{
	"patcher" : 	{
		"fileversion" : 1,
		"rect" : [ 45.0, 92.0, 686.0, 282.0 ],
		"bglocked" : 0,
		"defrect" : [ 45.0, 92.0, 686.0, 282.0 ],
		"openrect" : [ 0.0, 0.0, 0.0, 0.0 ],
		"openinpresentation" : 0,
		"default_fontsize" : 12.0,
		"default_fontface" : 0,
		"default_fontname" : "Arial",
		"gridonopen" : 0,
		"gridsize" : [ 15.0, 15.0 ],
		"gridsnaponopen" : 0,
		"toolbarvisible" : 1,
		"boxanimatetime" : 200,
		"imprint" : 0,
		"enablehscroll" : 1,
		"enablevscroll" : 1,
		"devicewidth" : 0.0,
		"boxes" : [ 			{
				"box" : 				{
					"maxclass" : "message",
					"text" : "0",
					"outlettype" : [ "" ],
					"patching_rect" : [ 53.0, 26.0, 32.5, 16.0 ],
					"id" : "obj-1",
					"fontname" : "Helvetica",
					"numinlets" : 2,
					"numoutlets" : 1,
					"fontsize" : 12.0
				}

			}
, 			{
				"box" : 				{
					"maxclass" : "newobj",
					"text" : "loadbang",
					"outlettype" : [ "bang" ],
					"patching_rect" : [ 53.0, 3.0, 60.0, 18.0 ],
					"id" : "obj-2",
					"fontname" : "Helvetica",
					"numinlets" : 1,
					"numoutlets" : 1,
					"fontsize" : 12.0
				}

			}
, 			{
				"box" : 				{
					"maxclass" : "comment",
					"text" : "free subdivision",
					"linecount" : 2,
					"patching_rect" : [ 598.0, 113.0, 78.0, 30.0 ],
					"id" : "obj-3",
					"fontname" : "Helvetica",
					"numinlets" : 1,
					"numoutlets" : 0,
					"fontsize" : 12.0
				}

			}
, 			{
				"box" : 				{
					"maxclass" : "comment",
					"text" : "third-\noctave",
					"linecount" : 2,
					"patching_rect" : [ 528.0, 113.0, 58.0, 30.0 ],
					"id" : "obj-4",
					"fontname" : "Helvetica",
					"numinlets" : 1,
					"numoutlets" : 0,
					"fontsize" : 12.0
				}

			}
, 			{
				"box" : 				{
					"maxclass" : "comment",
					"text" : "half-octave",
					"patching_rect" : [ 452.0, 123.0, 68.0, 18.0 ],
					"id" : "obj-5",
					"fontname" : "Helvetica",
					"numinlets" : 1,
					"numoutlets" : 0,
					"fontsize" : 12.0
				}

			}
, 			{
				"box" : 				{
					"maxclass" : "flonum",
					"outlettype" : [ "float", "bang" ],
					"bgcolor" : [ 0.866667, 0.866667, 0.866667, 1.0 ],
					"patching_rect" : [ 599.0, 141.0, 40.0, 18.0 ],
					"htextcolor" : [ 0.870588, 0.870588, 0.870588, 1.0 ],
					"id" : "obj-6",
					"triscale" : 0.9,
					"fontname" : "Helvetica",
					"numinlets" : 1,
					"numoutlets" : 2,
					"fontsize" : 12.0
				}

			}
, 			{
				"box" : 				{
					"maxclass" : "comment",
					"text" : "Q",
					"patching_rect" : [ 545.0, 237.0, 57.0, 18.0 ],
					"id" : "obj-7",
					"fontname" : "Helvetica",
					"numinlets" : 1,
					"numoutlets" : 0,
					"fontsize" : 12.0
				}

			}
, 			{
				"box" : 				{
					"maxclass" : "flonum",
					"outlettype" : [ "float", "bang" ],
					"bgcolor" : [ 0.866667, 0.866667, 0.866667, 1.0 ],
					"patching_rect" : [ 545.0, 219.0, 72.0, 18.0 ],
					"htextcolor" : [ 0.870588, 0.870588, 0.870588, 1.0 ],
					"id" : "obj-8",
					"triscale" : 0.9,
					"fontname" : "Helvetica",
					"numinlets" : 1,
					"numoutlets" : 2,
					"fontsize" : 12.0
				}

			}
, 			{
				"box" : 				{
					"maxclass" : "flonum",
					"outlettype" : [ "float", "bang" ],
					"bgcolor" : [ 0.866667, 0.866667, 0.866667, 1.0 ],
					"patching_rect" : [ 455.0, 219.0, 72.0, 18.0 ],
					"htextcolor" : [ 0.870588, 0.870588, 0.870588, 1.0 ],
					"id" : "obj-9",
					"triscale" : 0.9,
					"fontname" : "Helvetica",
					"numinlets" : 1,
					"numoutlets" : 2,
					"fontsize" : 12.0
				}

			}
, 			{
				"box" : 				{
					"maxclass" : "message",
					"text" : "3",
					"outlettype" : [ "" ],
					"patching_rect" : [ 530.0, 141.0, 32.5, 16.0 ],
					"id" : "obj-10",
					"fontname" : "Helvetica",
					"numinlets" : 2,
					"numoutlets" : 1,
					"fontsize" : 12.0
				}

			}
, 			{
				"box" : 				{
					"maxclass" : "message",
					"text" : "2",
					"outlettype" : [ "" ],
					"patching_rect" : [ 462.0, 141.0, 32.5, 16.0 ],
					"id" : "obj-11",
					"fontname" : "Helvetica",
					"numinlets" : 2,
					"numoutlets" : 1,
					"fontsize" : 12.0
				}

			}
, 			{
				"box" : 				{
					"maxclass" : "message",
					"text" : "1",
					"outlettype" : [ "" ],
					"patching_rect" : [ 405.0, 141.0, 32.5, 16.0 ],
					"id" : "obj-12",
					"fontname" : "Helvetica",
					"numinlets" : 2,
					"numoutlets" : 1,
					"fontsize" : 12.0
				}

			}
, 			{
				"box" : 				{
					"maxclass" : "newobj",
					"text" : "p ratio-q",
					"outlettype" : [ "", "" ],
					"patching_rect" : [ 509.0, 184.0, 55.0, 18.0 ],
					"id" : "obj-13",
					"fontname" : "Helvetica",
					"numinlets" : 1,
					"numoutlets" : 2,
					"fontsize" : 12.0,
					"patcher" : 					{
						"fileversion" : 1,
						"rect" : [ 639.0, 84.0, 375.0, 259.0 ],
						"bglocked" : 0,
						"defrect" : [ 639.0, 84.0, 375.0, 259.0 ],
						"openrect" : [ 0.0, 0.0, 0.0, 0.0 ],
						"openinpresentation" : 0,
						"default_fontsize" : 12.0,
						"default_fontface" : 0,
						"default_fontname" : "Arial",
						"gridonopen" : 0,
						"gridsize" : [ 15.0, 15.0 ],
						"gridsnaponopen" : 0,
						"toolbarvisible" : 1,
						"boxanimatetime" : 200,
						"imprint" : 0,
						"enablehscroll" : 1,
						"enablevscroll" : 1,
						"devicewidth" : 0.0,
						"boxes" : [ 							{
								"box" : 								{
									"maxclass" : "newobj",
									"text" : "expr \"pow(2, 1/$f1)\"",
									"outlettype" : [ "" ],
									"patching_rect" : [ 170.0, 101.0, 116.0, 20.0 ],
									"id" : "obj-27",
									"fontname" : "Arial",
									"numinlets" : 1,
									"numoutlets" : 1,
									"fontsize" : 12.0
								}

							}
, 							{
								"box" : 								{
									"maxclass" : "newobj",
									"text" : "expr (1/($f1-1)*2+1)/2",
									"outlettype" : [ "" ],
									"patching_rect" : [ 170.0, 131.0, 126.0, 20.0 ],
									"id" : "obj-21",
									"fontname" : "Arial",
									"numinlets" : 1,
									"numoutlets" : 1,
									"fontsize" : 12.0
								}

							}
, 							{
								"box" : 								{
									"maxclass" : "outlet",
									"patching_rect" : [ 170.0, 160.0, 25.0, 25.0 ],
									"id" : "obj-1",
									"numinlets" : 1,
									"numoutlets" : 0,
									"comment" : ""
								}

							}
, 							{
								"box" : 								{
									"maxclass" : "outlet",
									"patching_rect" : [ 116.0, 158.0, 25.0, 25.0 ],
									"id" : "obj-2",
									"numinlets" : 1,
									"numoutlets" : 0,
									"comment" : ""
								}

							}
, 							{
								"box" : 								{
									"maxclass" : "inlet",
									"outlettype" : [ "float" ],
									"patching_rect" : [ 170.0, 50.0, 25.0, 25.0 ],
									"id" : "obj-3",
									"numinlets" : 0,
									"numoutlets" : 1,
									"comment" : ""
								}

							}
, 							{
								"box" : 								{
									"maxclass" : "comment",
									"text" : "calcola ratio e q per un equalizzatore grafico",
									"patching_rect" : [ 69.0, 189.0, 248.0, 20.0 ],
									"id" : "obj-20",
									"fontname" : "Arial",
									"numinlets" : 1,
									"numoutlets" : 0,
									"fontsize" : 12.0
								}

							}
 ],
						"lines" : [ 							{
								"patchline" : 								{
									"source" : [ "obj-21", 0 ],
									"destination" : [ "obj-1", 0 ],
									"hidden" : 0,
									"midpoints" : [  ]
								}

							}
, 							{
								"patchline" : 								{
									"source" : [ "obj-3", 0 ],
									"destination" : [ "obj-27", 0 ],
									"hidden" : 0,
									"midpoints" : [  ]
								}

							}
, 							{
								"patchline" : 								{
									"source" : [ "obj-27", 0 ],
									"destination" : [ "obj-2", 0 ],
									"hidden" : 0,
									"midpoints" : [  ]
								}

							}
, 							{
								"patchline" : 								{
									"source" : [ "obj-27", 0 ],
									"destination" : [ "obj-21", 0 ],
									"hidden" : 0,
									"midpoints" : [  ]
								}

							}
 ]
					}
,
					"saved_object_attributes" : 					{
						"default_fontname" : "Arial",
						"default_fontsize" : 12.0,
						"fontname" : "Arial",
						"default_fontface" : 0,
						"globalpatchername" : "",
						"fontface" : 0,
						"fontsize" : 12.0
					}

				}

			}
, 			{
				"box" : 				{
					"maxclass" : "comment",
					"text" : "frequency ratio",
					"patching_rect" : [ 452.0, 237.0, 90.0, 18.0 ],
					"id" : "obj-14",
					"fontname" : "Helvetica",
					"numinlets" : 1,
					"numoutlets" : 0,
					"fontsize" : 12.0
				}

			}
, 			{
				"box" : 				{
					"maxclass" : "comment",
					"text" : "octave",
					"patching_rect" : [ 399.0, 123.0, 45.0, 18.0 ],
					"id" : "obj-15",
					"fontname" : "Helvetica",
					"numinlets" : 1,
					"numoutlets" : 0,
					"fontsize" : 12.0
				}

			}
, 			{
				"box" : 				{
					"maxclass" : "message",
					"text" : "stop",
					"outlettype" : [ "" ],
					"patching_rect" : [ 5.0, 253.0, 33.0, 16.0 ],
					"id" : "obj-16",
					"fontname" : "Helvetica",
					"numinlets" : 2,
					"numoutlets" : 1,
					"fontsize" : 12.0
				}

			}
, 			{
				"box" : 				{
					"maxclass" : "message",
					"text" : "startwindow",
					"outlettype" : [ "" ],
					"patching_rect" : [ 4.0, 233.0, 74.0, 16.0 ],
					"id" : "obj-17",
					"fontname" : "Helvetica",
					"numinlets" : 2,
					"numoutlets" : 1,
					"fontsize" : 12.0
				}

			}
, 			{
				"box" : 				{
					"maxclass" : "newobj",
					"text" : "dac~",
					"patching_rect" : [ 80.0, 259.0, 37.0, 18.0 ],
					"id" : "obj-18",
					"fontname" : "Helvetica",
					"numinlets" : 2,
					"numoutlets" : 0,
					"fontsize" : 12.0
				}

			}
, 			{
				"box" : 				{
					"maxclass" : "gain~",
					"outlettype" : [ "signal", "int" ],
					"patching_rect" : [ 83.0, 176.0, 17.0, 74.0 ],
					"orientation" : 2,
					"id" : "obj-19",
					"numinlets" : 2,
					"numoutlets" : 2
				}

			}
, 			{
				"box" : 				{
					"maxclass" : "multislider",
					"outlettype" : [ "", "" ],
					"patching_rect" : [ 128.0, 22.0, 242.0, 91.0 ],
					"contdata" : 1,
					"candicane6" : [ 0.733333, 0.035294, 0.788235, 1.0 ],
					"candicane5" : [ 0.584314, 0.827451, 0.431373, 1.0 ],
					"spacing" : 2,
					"candicane4" : [ 0.439216, 0.619608, 0.070588, 1.0 ],
					"setstyle" : 1,
					"size" : 10,
					"id" : "obj-20",
					"peakcolor" : [ 0.498039, 0.498039, 0.498039, 1.0 ],
					"numinlets" : 1,
					"candicane3" : [ 0.290196, 0.411765, 0.713726, 1.0 ],
					"candicane8" : [ 0.027451, 0.447059, 0.501961, 1.0 ],
					"candicane2" : [ 0.145098, 0.203922, 0.356863, 1.0 ],
					"numoutlets" : 2,
					"setminmax" : [ 0.0, 1.0 ],
					"candicane7" : [ 0.878431, 0.243137, 0.145098, 1.0 ]
				}

			}
, 			{
				"box" : 				{
					"maxclass" : "newobj",
					"text" : "prepend gain 0",
					"outlettype" : [ "" ],
					"patching_rect" : [ 128.0, 119.0, 91.0, 18.0 ],
					"id" : "obj-21",
					"fontname" : "Helvetica",
					"numinlets" : 1,
					"numoutlets" : 1,
					"fontsize" : 12.0
				}

			}
, 			{
				"box" : 				{
					"maxclass" : "newobj",
					"text" : "noise~",
					"outlettype" : [ "signal" ],
					"patching_rect" : [ 82.0, 119.0, 46.0, 18.0 ],
					"id" : "obj-22",
					"fontname" : "Helvetica",
					"numinlets" : 1,
					"numoutlets" : 1,
					"fontsize" : 12.0
				}

			}
, 			{
				"box" : 				{
					"maxclass" : "newobj",
					"text" : "fffb~ 10 31.25 2 1.5",
					"outlettype" : [ "signal", "signal", "signal", "signal", "signal", "signal", "signal", "signal", "signal", "signal" ],
					"patching_rect" : [ 82.0, 146.0, 140.5, 18.0 ],
					"id" : "obj-23",
					"fontname" : "Helvetica",
					"numinlets" : 1,
					"numoutlets" : 10,
					"fontsize" : 12.0
				}

			}
, 			{
				"box" : 				{
					"maxclass" : "comment",
					"text" : "with this subpatch it is possible to calculate, given a subdivision of an octave, the ratio between succeeding cutoff frequencies along with an acceptable Q value (see the text)",
					"linecount" : 4,
					"patching_rect" : [ 380.0, 45.0, 299.0, 54.0 ],
					"id" : "obj-24",
					"fontname" : "Helvetica",
					"numinlets" : 1,
					"numoutlets" : 0,
					"fontsize" : 12.0
				}

			}
, 			{
				"box" : 				{
					"maxclass" : "panel",
					"bgcolor" : [ 0.956863, 0.956863, 0.956863, 1.0 ],
					"patching_rect" : [ 379.0, 22.0, 299.0, 243.0 ],
					"border" : 1,
					"rounded" : 0,
					"background" : 1,
					"id" : "obj-25",
					"numinlets" : 1,
					"numoutlets" : 0
				}

			}
 ],
		"lines" : [ 			{
				"patchline" : 				{
					"source" : [ "obj-13", 1 ],
					"destination" : [ "obj-8", 0 ],
					"hidden" : 0,
					"midpoints" : [  ]
				}

			}
, 			{
				"patchline" : 				{
					"source" : [ "obj-6", 0 ],
					"destination" : [ "obj-13", 0 ],
					"hidden" : 0,
					"midpoints" : [ 608.5, 170.0, 518.5, 170.0 ]
				}

			}
, 			{
				"patchline" : 				{
					"source" : [ "obj-10", 0 ],
					"destination" : [ "obj-13", 0 ],
					"hidden" : 0,
					"midpoints" : [ 539.5, 170.0, 518.5, 170.0 ]
				}

			}
, 			{
				"patchline" : 				{
					"source" : [ "obj-11", 0 ],
					"destination" : [ "obj-13", 0 ],
					"hidden" : 0,
					"midpoints" : [ 471.5, 170.0, 518.5, 170.0 ]
				}

			}
, 			{
				"patchline" : 				{
					"source" : [ "obj-12", 0 ],
					"destination" : [ "obj-13", 0 ],
					"hidden" : 0,
					"midpoints" : [ 414.5, 170.0, 518.5, 170.0 ]
				}

			}
, 			{
				"patchline" : 				{
					"source" : [ "obj-13", 0 ],
					"destination" : [ "obj-9", 0 ],
					"hidden" : 0,
					"midpoints" : [ 518.5, 209.0, 464.5, 209.0 ]
				}

			}
, 			{
				"patchline" : 				{
					"source" : [ "obj-20", 0 ],
					"destination" : [ "obj-21", 0 ],
					"hidden" : 0,
					"midpoints" : [  ]
				}

			}
, 			{
				"patchline" : 				{
					"source" : [ "obj-1", 0 ],
					"destination" : [ "obj-20", 0 ],
					"hidden" : 0,
					"midpoints" : [ 62.5, 46.0, 117.0, 46.0, 117.0, 15.0, 137.5, 15.0 ]
				}

			}
, 			{
				"patchline" : 				{
					"source" : [ "obj-19", 0 ],
					"destination" : [ "obj-18", 1 ],
					"hidden" : 0,
					"midpoints" : [  ]
				}

			}
, 			{
				"patchline" : 				{
					"source" : [ "obj-19", 0 ],
					"destination" : [ "obj-18", 0 ],
					"hidden" : 0,
					"midpoints" : [  ]
				}

			}
, 			{
				"patchline" : 				{
					"source" : [ "obj-17", 0 ],
					"destination" : [ "obj-18", 0 ],
					"hidden" : 0,
					"midpoints" : [  ]
				}

			}
, 			{
				"patchline" : 				{
					"source" : [ "obj-16", 0 ],
					"destination" : [ "obj-18", 0 ],
					"hidden" : 0,
					"midpoints" : [  ]
				}

			}
, 			{
				"patchline" : 				{
					"source" : [ "obj-23", 9 ],
					"destination" : [ "obj-19", 0 ],
					"hidden" : 0,
					"midpoints" : [ 213.0, 169.0, 89.5, 169.0 ]
				}

			}
, 			{
				"patchline" : 				{
					"source" : [ "obj-23", 8 ],
					"destination" : [ "obj-19", 0 ],
					"hidden" : 0,
					"midpoints" : [ 199.5, 169.0, 89.5, 169.0 ]
				}

			}
, 			{
				"patchline" : 				{
					"source" : [ "obj-23", 7 ],
					"destination" : [ "obj-19", 0 ],
					"hidden" : 0,
					"midpoints" : [ 186.0, 169.0, 89.5, 169.0 ]
				}

			}
, 			{
				"patchline" : 				{
					"source" : [ "obj-23", 6 ],
					"destination" : [ "obj-19", 0 ],
					"hidden" : 0,
					"midpoints" : [ 172.5, 169.0, 89.5, 169.0 ]
				}

			}
, 			{
				"patchline" : 				{
					"source" : [ "obj-23", 5 ],
					"destination" : [ "obj-19", 0 ],
					"hidden" : 0,
					"midpoints" : [ 159.0, 169.0, 89.5, 169.0 ]
				}

			}
, 			{
				"patchline" : 				{
					"source" : [ "obj-23", 4 ],
					"destination" : [ "obj-19", 0 ],
					"hidden" : 0,
					"midpoints" : [ 145.5, 169.0, 89.5, 169.0 ]
				}

			}
, 			{
				"patchline" : 				{
					"source" : [ "obj-23", 3 ],
					"destination" : [ "obj-19", 0 ],
					"hidden" : 0,
					"midpoints" : [ 132.0, 169.0, 89.5, 169.0 ]
				}

			}
, 			{
				"patchline" : 				{
					"source" : [ "obj-23", 2 ],
					"destination" : [ "obj-19", 0 ],
					"hidden" : 0,
					"midpoints" : [ 118.5, 169.0, 89.5, 169.0 ]
				}

			}
, 			{
				"patchline" : 				{
					"source" : [ "obj-23", 1 ],
					"destination" : [ "obj-19", 0 ],
					"hidden" : 0,
					"midpoints" : [ 105.0, 169.0, 89.5, 169.0 ]
				}

			}
, 			{
				"patchline" : 				{
					"source" : [ "obj-23", 0 ],
					"destination" : [ "obj-19", 0 ],
					"hidden" : 0,
					"midpoints" : [ 91.5, 169.0, 89.5, 169.0 ]
				}

			}
, 			{
				"patchline" : 				{
					"source" : [ "obj-22", 0 ],
					"destination" : [ "obj-23", 0 ],
					"hidden" : 0,
					"midpoints" : [  ]
				}

			}
, 			{
				"patchline" : 				{
					"source" : [ "obj-21", 0 ],
					"destination" : [ "obj-23", 0 ],
					"hidden" : 0,
					"midpoints" : [ 137.5, 142.0, 91.5, 142.0 ]
				}

			}
, 			{
				"patchline" : 				{
					"source" : [ "obj-2", 0 ],
					"destination" : [ "obj-1", 0 ],
					"hidden" : 0,
					"midpoints" : [  ]
				}

			}
 ]
	}

}
