{
	"patcher" : 	{
		"fileversion" : 1,
		"appversion" : 		{
			"major" : 6,
			"minor" : 0,
			"revision" : 5
		}
,
		"rect" : [ 16.0, 44.0, 625.0, 342.0 ],
		"bglocked" : 0,
		"openinpresentation" : 0,
		"default_fontsize" : 12.0,
		"default_fontface" : 0,
		"default_fontname" : "Arial",
		"gridonopen" : 0,
		"gridsize" : [ 15.0, 15.0 ],
		"gridsnaponopen" : 0,
		"statusbarvisible" : 2,
		"toolbarvisible" : 1,
		"boxanimatetime" : 200,
		"imprint" : 0,
		"enablehscroll" : 1,
		"enablevscroll" : 1,
		"devicewidth" : 0.0,
		"description" : "",
		"digest" : "",
		"tags" : "",
		"boxes" : [ 			{
				"box" : 				{
					"fontname" : "Arial",
					"fontsize" : 12.0,
					"hidden" : 1,
					"id" : "obj-2",
					"maxclass" : "newobj",
					"numinlets" : 1,
					"numoutlets" : 1,
					"outlettype" : [ "" ],
					"patching_rect" : [ 335.0, 301.516357, 72.0, 20.0 ],
					"text" : "loadmess 1"
				}

			}
, 			{
				"box" : 				{
					"fontname" : "Arial",
					"fontsize" : 12.0,
					"id" : "obj-21",
					"maxclass" : "comment",
					"numinlets" : 1,
					"numoutlets" : 0,
					"patching_rect" : [ 274.250488, 301.516357, 50.0, 20.0 ],
					"text" : "flute q2"
				}

			}
, 			{
				"box" : 				{
					"fontname" : "Arial",
					"fontsize" : 12.0,
					"id" : "obj-19",
					"maxclass" : "comment",
					"numinlets" : 1,
					"numoutlets" : 0,
					"patching_rect" : [ 274.250488, 288.516357, 44.0, 20.0 ],
					"text" : "drums"
				}

			}
, 			{
				"box" : 				{
					"fontname" : "Arial",
					"fontsize" : 12.0,
					"id" : "obj-17",
					"maxclass" : "comment",
					"numinlets" : 1,
					"numoutlets" : 0,
					"patching_rect" : [ 274.250488, 275.516357, 78.0, 20.0 ],
					"text" : "flute bourree"
				}

			}
, 			{
				"box" : 				{
					"fontname" : "Arial",
					"fontsize" : 12.0,
					"id" : "obj-15",
					"maxclass" : "comment",
					"numinlets" : 1,
					"numoutlets" : 0,
					"patching_rect" : [ 274.250488, 260.516357, 85.0, 20.0 ],
					"text" : "group fadeout"
				}

			}
, 			{
				"box" : 				{
					"fontname" : "Arial",
					"fontsize" : 12.0,
					"id" : "obj-9",
					"maxclass" : "comment",
					"numinlets" : 1,
					"numoutlets" : 0,
					"patching_rect" : [ 70.062653, 93.5, 49.0, 20.0 ],
					"text" : "bypass"
				}

			}
, 			{
				"box" : 				{
					"id" : "obj-6",
					"maxclass" : "toggle",
					"numinlets" : 1,
					"numoutlets" : 1,
					"outlettype" : [ "int" ],
					"parameter_enable" : 0,
					"patching_rect" : [ 84.562653, 113.5, 20.0, 20.0 ]
				}

			}
, 			{
				"box" : 				{
					"fontname" : "Arial",
					"fontsize" : 12.0,
					"id" : "obj-12",
					"maxclass" : "comment",
					"numinlets" : 1,
					"numoutlets" : 0,
					"patching_rect" : [ 233.500061, 93.5, 45.0, 20.0 ],
					"text" : "ceiling"
				}

			}
, 			{
				"box" : 				{
					"fontname" : "Arial",
					"fontsize" : 12.0,
					"id" : "obj-13",
					"maxclass" : "flonum",
					"maximum" : 0.0,
					"numinlets" : 1,
					"numoutlets" : 2,
					"outlettype" : [ "float", "bang" ],
					"parameter_enable" : 0,
					"patching_rect" : [ 233.500061, 113.5, 53.0, 20.0 ],
					"varname" : "release[3]"
				}

			}
, 			{
				"box" : 				{
					"fontname" : "Arial",
					"fontsize" : 12.0,
					"id" : "obj-11",
					"linecount" : 2,
					"maxclass" : "comment",
					"numinlets" : 1,
					"numoutlets" : 0,
					"patching_rect" : [ 119.500061, 79.5, 42.0, 34.0 ],
					"text" : "look- ahead"
				}

			}
, 			{
				"box" : 				{
					"fontname" : "Arial",
					"fontsize" : 12.0,
					"id" : "obj-7",
					"maxclass" : "flonum",
					"maximum" : 6.0,
					"minimum" : 0.0,
					"numinlets" : 1,
					"numoutlets" : 2,
					"outlettype" : [ "float", "bang" ],
					"parameter_enable" : 0,
					"patching_rect" : [ 119.500061, 113.5, 44.625183, 20.0 ],
					"varname" : "release[2]"
				}

			}
, 			{
				"box" : 				{
					"fontname" : "Arial",
					"fontsize" : 12.0,
					"id" : "obj-5",
					"maxclass" : "comment",
					"numinlets" : 1,
					"numoutlets" : 0,
					"patching_rect" : [ 444.125244, 313.0, 36.0, 20.0 ],
					"text" : "OUT"
				}

			}
, 			{
				"box" : 				{
					"fontname" : "Arial",
					"fontsize" : 12.0,
					"id" : "obj-4",
					"maxclass" : "comment",
					"numinlets" : 1,
					"numoutlets" : 0,
					"patching_rect" : [ 450.625244, 83.0, 23.0, 20.0 ],
					"text" : "IN"
				}

			}
, 			{
				"box" : 				{
					"id" : "obj-1",
					"maxclass" : "levelmeter~",
					"numinlets" : 1,
					"numoutlets" : 1,
					"outlettype" : [ "int" ],
					"patching_rect" : [ 398.125244, 249.0, 128.0, 64.0 ]
				}

			}
, 			{
				"box" : 				{
					"id" : "obj-29",
					"maxclass" : "levelmeter~",
					"numinlets" : 1,
					"numoutlets" : 1,
					"outlettype" : [ "int" ],
					"patching_rect" : [ 398.125244, 19.0, 128.0, 64.0 ]
				}

			}
, 			{
				"box" : 				{
					"fontname" : "Arial",
					"fontsize" : 12.0,
					"id" : "obj-25",
					"maxclass" : "newobj",
					"numinlets" : 2,
					"numoutlets" : 2,
					"outlettype" : [ "signal", "signal" ],
					"patcher" : 					{
						"fileversion" : 1,
						"appversion" : 						{
							"major" : 6,
							"minor" : 0,
							"revision" : 5
						}
,
						"rect" : [ 25.0, 69.0, 156.0, 322.0 ],
						"bglocked" : 0,
						"openinpresentation" : 0,
						"default_fontsize" : 12.0,
						"default_fontface" : 0,
						"default_fontname" : "Arial",
						"gridonopen" : 0,
						"gridsize" : [ 15.0, 15.0 ],
						"gridsnaponopen" : 0,
						"statusbarvisible" : 2,
						"toolbarvisible" : 1,
						"boxanimatetime" : 200,
						"imprint" : 0,
						"enablehscroll" : 1,
						"enablevscroll" : 1,
						"devicewidth" : 0.0,
						"description" : "",
						"digest" : "",
						"tags" : "",
						"boxes" : [ 							{
								"box" : 								{
									"fontname" : "Arial",
									"fontsize" : 12.0,
									"id" : "obj-74",
									"maxclass" : "message",
									"numinlets" : 2,
									"numoutlets" : 1,
									"outlettype" : [ "" ],
									"patching_rect" : [ 46.249939, 119.0, 43.0, 18.0 ],
									"text" : "loop 1"
								}

							}
, 							{
								"box" : 								{
									"fontname" : "Arial",
									"fontsize" : 12.0,
									"id" : "obj-1",
									"maxclass" : "newobj",
									"numinlets" : 1,
									"numoutlets" : 3,
									"outlettype" : [ "int", "", "bang" ],
									"patching_rect" : [ 10.249939, 80.5, 55.0, 20.0 ],
									"text" : "t 1 l b"
								}

							}
, 							{
								"box" : 								{
									"fontname" : "Arial",
									"fontsize" : 12.0,
									"id" : "obj-2",
									"maxclass" : "newobj",
									"numinlets" : 1,
									"numoutlets" : 1,
									"outlettype" : [ "" ],
									"patching_rect" : [ 10.249939, 54.0, 85.0, 20.0 ],
									"text" : "prepend open"
								}

							}
, 							{
								"box" : 								{
									"id" : "obj-4",
									"maxclass" : "toggle",
									"numinlets" : 1,
									"numoutlets" : 1,
									"outlettype" : [ "int" ],
									"parameter_enable" : 0,
									"patching_rect" : [ 10.249939, 119.0, 20.0, 20.0 ]
								}

							}
, 							{
								"box" : 								{
									"comment" : "",
									"id" : "obj-19",
									"maxclass" : "inlet",
									"numinlets" : 0,
									"numoutlets" : 1,
									"outlettype" : [ "float" ],
									"patching_rect" : [ 99.0, 8.0, 25.0, 25.0 ]
								}

							}
, 							{
								"box" : 								{
									"comment" : "",
									"id" : "obj-22",
									"maxclass" : "inlet",
									"numinlets" : 0,
									"numoutlets" : 1,
									"outlettype" : [ "" ],
									"patching_rect" : [ 10.249939, 8.0, 25.0, 25.0 ]
								}

							}
, 							{
								"box" : 								{
									"comment" : "",
									"id" : "obj-23",
									"maxclass" : "outlet",
									"numinlets" : 1,
									"numoutlets" : 0,
									"patching_rect" : [ 28.0, 285.0, 25.0, 25.0 ]
								}

							}
, 							{
								"box" : 								{
									"comment" : "",
									"id" : "obj-24",
									"maxclass" : "outlet",
									"numinlets" : 1,
									"numoutlets" : 0,
									"patching_rect" : [ 72.0, 285.0, 25.0, 25.0 ]
								}

							}
, 							{
								"box" : 								{
									"fontname" : "Arial",
									"fontsize" : 12.0,
									"id" : "obj-5",
									"maxclass" : "newobj",
									"numinlets" : 1,
									"numoutlets" : 1,
									"outlettype" : [ "" ],
									"patching_rect" : [ 99.0, 177.0, 41.0, 20.0 ],
									"text" : "dbtoa"
								}

							}
, 							{
								"box" : 								{
									"fontname" : "Arial",
									"fontsize" : 12.0,
									"id" : "obj-6",
									"maxclass" : "newobj",
									"numinlets" : 2,
									"numoutlets" : 1,
									"outlettype" : [ "signal" ],
									"patching_rect" : [ 72.0, 240.0, 32.5, 20.0 ],
									"text" : "*~"
								}

							}
, 							{
								"box" : 								{
									"fontname" : "Arial",
									"fontsize" : 12.0,
									"id" : "obj-7",
									"maxclass" : "newobj",
									"numinlets" : 2,
									"numoutlets" : 1,
									"outlettype" : [ "signal" ],
									"patching_rect" : [ 28.0, 240.0, 32.5, 20.0 ],
									"text" : "*~"
								}

							}
, 							{
								"box" : 								{
									"fontname" : "Arial",
									"fontsize" : 12.0,
									"id" : "obj-9",
									"maxclass" : "newobj",
									"numinlets" : 2,
									"numoutlets" : 3,
									"outlettype" : [ "signal", "signal", "bang" ],
									"patching_rect" : [ 28.249939, 177.0, 59.0, 20.0 ],
									"save" : [ "#N", "sfplay~", "", 2, 120960, 0, "", ";" ],
									"text" : "sfplay~ 2"
								}

							}
 ],
						"lines" : [ 							{
								"patchline" : 								{
									"destination" : [ "obj-4", 0 ],
									"disabled" : 0,
									"hidden" : 0,
									"source" : [ "obj-1", 0 ]
								}

							}
, 							{
								"patchline" : 								{
									"destination" : [ "obj-74", 0 ],
									"disabled" : 0,
									"hidden" : 0,
									"source" : [ "obj-1", 2 ]
								}

							}
, 							{
								"patchline" : 								{
									"destination" : [ "obj-9", 0 ],
									"disabled" : 0,
									"hidden" : 0,
									"source" : [ "obj-1", 1 ]
								}

							}
, 							{
								"patchline" : 								{
									"destination" : [ "obj-5", 0 ],
									"disabled" : 0,
									"hidden" : 0,
									"source" : [ "obj-19", 0 ]
								}

							}
, 							{
								"patchline" : 								{
									"destination" : [ "obj-1", 0 ],
									"disabled" : 0,
									"hidden" : 0,
									"source" : [ "obj-2", 0 ]
								}

							}
, 							{
								"patchline" : 								{
									"destination" : [ "obj-2", 0 ],
									"disabled" : 0,
									"hidden" : 0,
									"source" : [ "obj-22", 0 ]
								}

							}
, 							{
								"patchline" : 								{
									"destination" : [ "obj-9", 0 ],
									"disabled" : 0,
									"hidden" : 0,
									"source" : [ "obj-4", 0 ]
								}

							}
, 							{
								"patchline" : 								{
									"destination" : [ "obj-6", 1 ],
									"disabled" : 0,
									"hidden" : 0,
									"source" : [ "obj-5", 0 ]
								}

							}
, 							{
								"patchline" : 								{
									"destination" : [ "obj-7", 1 ],
									"disabled" : 0,
									"hidden" : 0,
									"source" : [ "obj-5", 0 ]
								}

							}
, 							{
								"patchline" : 								{
									"destination" : [ "obj-24", 0 ],
									"disabled" : 0,
									"hidden" : 0,
									"source" : [ "obj-6", 0 ]
								}

							}
, 							{
								"patchline" : 								{
									"destination" : [ "obj-23", 0 ],
									"disabled" : 0,
									"hidden" : 0,
									"source" : [ "obj-7", 0 ]
								}

							}
, 							{
								"patchline" : 								{
									"destination" : [ "obj-9", 0 ],
									"disabled" : 0,
									"hidden" : 0,
									"source" : [ "obj-74", 0 ]
								}

							}
, 							{
								"patchline" : 								{
									"destination" : [ "obj-6", 0 ],
									"disabled" : 0,
									"hidden" : 0,
									"source" : [ "obj-9", 1 ]
								}

							}
, 							{
								"patchline" : 								{
									"destination" : [ "obj-7", 0 ],
									"disabled" : 0,
									"hidden" : 0,
									"source" : [ "obj-9", 0 ]
								}

							}
 ],
						"dependency_cache" : [  ]
					}
,
					"patching_rect" : [ 6.750061, 41.0, 175.625183, 20.0 ],
					"saved_object_attributes" : 					{
						"default_fontname" : "Arial",
						"fontname" : "Arial",
						"default_fontsize" : 12.0,
						"description" : "",
						"fontface" : 0,
						"fontsize" : 12.0,
						"tags" : "",
						"default_fontface" : 0,
						"globalpatchername" : "",
						"digest" : ""
					}
,
					"text" : "p play+gain"
				}

			}
, 			{
				"box" : 				{
					"fontname" : "Arial",
					"fontsize" : 12.0,
					"id" : "obj-108",
					"maxclass" : "newobj",
					"numinlets" : 6,
					"numoutlets" : 4,
					"outlettype" : [ "signal", "signal", "signal", "signal" ],
					"patcher" : 					{
						"fileversion" : 1,
						"appversion" : 						{
							"major" : 6,
							"minor" : 0,
							"revision" : 5
						}
,
						"rect" : [ 36.0, 158.0, 488.0, 452.0 ],
						"bglocked" : 0,
						"openinpresentation" : 0,
						"default_fontsize" : 12.0,
						"default_fontface" : 0,
						"default_fontname" : "Arial",
						"gridonopen" : 0,
						"gridsize" : [ 15.0, 15.0 ],
						"gridsnaponopen" : 0,
						"statusbarvisible" : 2,
						"toolbarvisible" : 1,
						"boxanimatetime" : 200,
						"imprint" : 0,
						"enablehscroll" : 1,
						"enablevscroll" : 1,
						"devicewidth" : 0.0,
						"description" : "",
						"digest" : "",
						"tags" : "",
						"boxes" : [ 							{
								"box" : 								{
									"fontname" : "Arial",
									"fontsize" : 12.0,
									"id" : "obj-12",
									"maxclass" : "newobj",
									"numinlets" : 1,
									"numoutlets" : 1,
									"outlettype" : [ "signal" ],
									"patching_rect" : [ 399.5, 328.0, 43.0, 20.0 ],
									"text" : "sig~ 0"
								}

							}
, 							{
								"box" : 								{
									"fontname" : "Arial",
									"fontsize" : 12.0,
									"id" : "obj-13",
									"maxclass" : "newobj",
									"numinlets" : 3,
									"numoutlets" : 1,
									"outlettype" : [ "signal" ],
									"patching_rect" : [ 348.5, 354.0, 70.0, 20.0 ],
									"text" : "selector~ 2"
								}

							}
, 							{
								"box" : 								{
									"fontname" : "Arial",
									"fontsize" : 12.0,
									"id" : "obj-11",
									"maxclass" : "newobj",
									"numinlets" : 2,
									"numoutlets" : 1,
									"outlettype" : [ "int" ],
									"patching_rect" : [ 151.5, 263.0, 32.5, 20.0 ],
									"text" : "+ 1"
								}

							}
, 							{
								"box" : 								{
									"fontname" : "Arial",
									"fontsize" : 12.0,
									"id" : "obj-10",
									"maxclass" : "newobj",
									"numinlets" : 1,
									"numoutlets" : 1,
									"outlettype" : [ "signal" ],
									"patching_rect" : [ 202.5, 328.0, 43.0, 20.0 ],
									"text" : "sig~ 1"
								}

							}
, 							{
								"box" : 								{
									"fontname" : "Arial",
									"fontsize" : 12.0,
									"id" : "obj-9",
									"maxclass" : "newobj",
									"numinlets" : 3,
									"numoutlets" : 1,
									"outlettype" : [ "signal" ],
									"patching_rect" : [ 151.5, 354.0, 70.0, 20.0 ],
									"text" : "selector~ 2"
								}

							}
, 							{
								"box" : 								{
									"comment" : "",
									"id" : "obj-4",
									"maxclass" : "inlet",
									"numinlets" : 0,
									"numoutlets" : 1,
									"outlettype" : [ "int" ],
									"patching_rect" : [ 151.5, 9.0, 25.0, 25.0 ]
								}

							}
, 							{
								"box" : 								{
									"fontname" : "Arial",
									"fontsize" : 12.0,
									"id" : "obj-7",
									"maxclass" : "comment",
									"numinlets" : 1,
									"numoutlets" : 0,
									"patching_rect" : [ 407.5, 7.0, 42.0, 20.0 ],
									"text" : "ceilng"
								}

							}
, 							{
								"box" : 								{
									"fontname" : "Arial",
									"fontsize" : 12.0,
									"id" : "obj-6",
									"maxclass" : "comment",
									"numinlets" : 1,
									"numoutlets" : 0,
									"patching_rect" : [ 337.0, 7.0, 50.0, 20.0 ],
									"text" : "release"
								}

							}
, 							{
								"box" : 								{
									"fontname" : "Arial",
									"fontsize" : 12.0,
									"id" : "obj-5",
									"linecount" : 2,
									"maxclass" : "comment",
									"numinlets" : 1,
									"numoutlets" : 0,
									"patching_rect" : [ 233.0, 7.0, 44.0, 34.0 ],
									"text" : "look- ahead"
								}

							}
, 							{
								"box" : 								{
									"fontname" : "Arial",
									"fontsize" : 12.0,
									"id" : "obj-59",
									"maxclass" : "newobj",
									"numinlets" : 2,
									"numoutlets" : 2,
									"outlettype" : [ "signal", "signal" ],
									"patcher" : 									{
										"fileversion" : 1,
										"appversion" : 										{
											"major" : 6,
											"minor" : 0,
											"revision" : 5
										}
,
										"rect" : [ 1201.0, 123.0, 141.0, 266.0 ],
										"bglocked" : 0,
										"openinpresentation" : 0,
										"default_fontsize" : 12.0,
										"default_fontface" : 0,
										"default_fontname" : "Arial",
										"gridonopen" : 0,
										"gridsize" : [ 15.0, 15.0 ],
										"gridsnaponopen" : 0,
										"statusbarvisible" : 2,
										"toolbarvisible" : 1,
										"boxanimatetime" : 200,
										"imprint" : 0,
										"enablehscroll" : 1,
										"enablevscroll" : 1,
										"devicewidth" : 0.0,
										"description" : "",
										"digest" : "",
										"tags" : "",
										"boxes" : [ 											{
												"box" : 												{
													"fontname" : "Arial",
													"fontsize" : 12.0,
													"id" : "obj-5",
													"maxclass" : "comment",
													"numinlets" : 1,
													"numoutlets" : 0,
													"patching_rect" : [ 6.0, 13.0, 59.0, 20.0 ],
													"text" : "envelope"
												}

											}
, 											{
												"box" : 												{
													"fontname" : "Arial",
													"fontsize" : 12.0,
													"id" : "obj-4",
													"maxclass" : "comment",
													"numinlets" : 1,
													"numoutlets" : 0,
													"patching_rect" : [ 95.75, 13.0, 45.0, 20.0 ],
													"text" : "ceiling"
												}

											}
, 											{
												"box" : 												{
													"fontname" : "Arial",
													"fontsize" : 12.0,
													"id" : "obj-2",
													"maxclass" : "newobj",
													"numinlets" : 2,
													"numoutlets" : 1,
													"outlettype" : [ "signal" ],
													"patching_rect" : [ 16.0, 129.0, 36.0, 20.0 ],
													"text" : "*~ -1"
												}

											}
, 											{
												"box" : 												{
													"fontname" : "Arial",
													"fontsize" : 12.0,
													"id" : "obj-1",
													"maxclass" : "newobj",
													"numinlets" : 2,
													"numoutlets" : 1,
													"outlettype" : [ "signal" ],
													"patching_rect" : [ 16.0, 71.0, 32.5, 20.0 ],
													"text" : "-~"
												}

											}
, 											{
												"box" : 												{
													"fontname" : "Arial",
													"fontsize" : 12.0,
													"id" : "obj-28",
													"maxclass" : "newobj",
													"numinlets" : 2,
													"numoutlets" : 1,
													"outlettype" : [ "signal" ],
													"patching_rect" : [ 16.0, 102.0, 97.0, 20.0 ],
													"text" : "maximum~ -120"
												}

											}
, 											{
												"box" : 												{
													"fontname" : "Arial",
													"fontsize" : 12.0,
													"id" : "obj-6",
													"maxclass" : "newobj",
													"numinlets" : 1,
													"numoutlets" : 1,
													"outlettype" : [ "signal" ],
													"patching_rect" : [ 16.0, 197.0, 48.0, 20.0 ],
													"text" : "dbtoa~"
												}

											}
, 											{
												"box" : 												{
													"comment" : "",
													"id" : "obj-55",
													"maxclass" : "inlet",
													"numinlets" : 0,
													"numoutlets" : 1,
													"outlettype" : [ "signal" ],
													"patching_rect" : [ 16.0, 33.0, 25.0, 25.0 ]
												}

											}
, 											{
												"box" : 												{
													"comment" : "",
													"id" : "obj-56",
													"maxclass" : "inlet",
													"numinlets" : 0,
													"numoutlets" : 1,
													"outlettype" : [ "float" ],
													"patching_rect" : [ 105.75, 33.0, 25.0, 25.0 ]
												}

											}
, 											{
												"box" : 												{
													"comment" : "",
													"id" : "obj-57",
													"maxclass" : "outlet",
													"numinlets" : 1,
													"numoutlets" : 0,
													"patching_rect" : [ 71.0, 197.0, 25.0, 25.0 ]
												}

											}
, 											{
												"box" : 												{
													"comment" : "",
													"id" : "obj-58",
													"maxclass" : "outlet",
													"numinlets" : 1,
													"numoutlets" : 0,
													"patching_rect" : [ 16.0, 234.0, 25.0, 25.0 ]
												}

											}
 ],
										"lines" : [ 											{
												"patchline" : 												{
													"destination" : [ "obj-28", 0 ],
													"disabled" : 0,
													"hidden" : 0,
													"source" : [ "obj-1", 0 ]
												}

											}
, 											{
												"patchline" : 												{
													"destination" : [ "obj-57", 0 ],
													"disabled" : 0,
													"hidden" : 0,
													"source" : [ "obj-2", 0 ]
												}

											}
, 											{
												"patchline" : 												{
													"destination" : [ "obj-6", 0 ],
													"disabled" : 0,
													"hidden" : 0,
													"source" : [ "obj-2", 0 ]
												}

											}
, 											{
												"patchline" : 												{
													"destination" : [ "obj-2", 0 ],
													"disabled" : 0,
													"hidden" : 0,
													"source" : [ "obj-28", 0 ]
												}

											}
, 											{
												"patchline" : 												{
													"destination" : [ "obj-1", 0 ],
													"disabled" : 0,
													"hidden" : 0,
													"source" : [ "obj-55", 0 ]
												}

											}
, 											{
												"patchline" : 												{
													"destination" : [ "obj-1", 1 ],
													"disabled" : 0,
													"hidden" : 0,
													"source" : [ "obj-56", 0 ]
												}

											}
, 											{
												"patchline" : 												{
													"destination" : [ "obj-58", 0 ],
													"disabled" : 0,
													"hidden" : 0,
													"source" : [ "obj-6", 0 ]
												}

											}
 ],
										"dependency_cache" : [  ]
									}
,
									"patching_rect" : [ 224.0, 246.0, 211.0, 20.0 ],
									"saved_object_attributes" : 									{
										"default_fontname" : "Arial",
										"fontname" : "Arial",
										"default_fontsize" : 12.0,
										"description" : "",
										"fontface" : 0,
										"fontsize" : 12.0,
										"tags" : "",
										"default_fontface" : 0,
										"globalpatchername" : "",
										"digest" : ""
									}
,
									"text" : "p normalize"
								}

							}
, 							{
								"box" : 								{
									"fontname" : "Arial",
									"fontsize" : 12.0,
									"id" : "obj-54",
									"maxclass" : "newobj",
									"numinlets" : 3,
									"numoutlets" : 1,
									"outlettype" : [ "signal" ],
									"patcher" : 									{
										"fileversion" : 1,
										"appversion" : 										{
											"major" : 6,
											"minor" : 0,
											"revision" : 5
										}
,
										"rect" : [ 150.0, 367.0, 263.0, 239.0 ],
										"bglocked" : 0,
										"openinpresentation" : 0,
										"default_fontsize" : 12.0,
										"default_fontface" : 0,
										"default_fontname" : "Arial",
										"gridonopen" : 0,
										"gridsize" : [ 15.0, 15.0 ],
										"gridsnaponopen" : 0,
										"statusbarvisible" : 2,
										"toolbarvisible" : 1,
										"boxanimatetime" : 200,
										"imprint" : 0,
										"enablehscroll" : 1,
										"enablevscroll" : 1,
										"devicewidth" : 0.0,
										"description" : "",
										"digest" : "",
										"tags" : "",
										"boxes" : [ 											{
												"box" : 												{
													"fontname" : "Arial",
													"fontsize" : 12.0,
													"id" : "obj-5",
													"maxclass" : "comment",
													"numinlets" : 1,
													"numoutlets" : 0,
													"patching_rect" : [ 159.0, 5.0, 70.0, 20.0 ],
													"text" : "look-ahead"
												}

											}
, 											{
												"box" : 												{
													"fontname" : "Arial",
													"fontsize" : 12.0,
													"id" : "obj-4",
													"maxclass" : "comment",
													"numinlets" : 1,
													"numoutlets" : 0,
													"patching_rect" : [ 82.5, 5.0, 50.0, 20.0 ],
													"text" : "release"
												}

											}
, 											{
												"box" : 												{
													"fontname" : "Arial",
													"fontsize" : 12.0,
													"id" : "obj-2",
													"maxclass" : "comment",
													"numinlets" : 1,
													"numoutlets" : 0,
													"patching_rect" : [ 11.5, 5.0, 37.0, 20.0 ],
													"text" : "peak"
												}

											}
, 											{
												"box" : 												{
													"fontname" : "Arial",
													"fontsize" : 12.0,
													"id" : "obj-11",
													"maxclass" : "newobj",
													"numinlets" : 3,
													"numoutlets" : 1,
													"outlettype" : [ "signal" ],
													"patcher" : 													{
														"fileversion" : 1,
														"appversion" : 														{
															"major" : 6,
															"minor" : 0,
															"revision" : 5
														}
,
														"rect" : [ 331.0, 68.0, 200.0, 310.0 ],
														"bglocked" : 0,
														"openinpresentation" : 0,
														"default_fontsize" : 12.0,
														"default_fontface" : 0,
														"default_fontname" : "Arial",
														"gridonopen" : 0,
														"gridsize" : [ 15.0, 15.0 ],
														"gridsnaponopen" : 0,
														"statusbarvisible" : 2,
														"toolbarvisible" : 1,
														"boxanimatetime" : 200,
														"imprint" : 0,
														"enablehscroll" : 1,
														"enablevscroll" : 1,
														"devicewidth" : 0.0,
														"description" : "",
														"digest" : "",
														"tags" : "",
														"boxes" : [ 															{
																"box" : 																{
																	"fontname" : "Arial",
																	"fontsize" : 12.0,
																	"id" : "obj-4",
																	"linecount" : 3,
																	"maxclass" : "comment",
																	"numinlets" : 1,
																	"numoutlets" : 0,
																	"patching_rect" : [ 149.5, 5.0, 45.0, 48.0 ],
																	"text" : "look- ahead time"
																}

															}
, 															{
																"box" : 																{
																	"fontname" : "Arial",
																	"fontsize" : 12.0,
																	"id" : "obj-3",
																	"linecount" : 2,
																	"maxclass" : "comment",
																	"numinlets" : 1,
																	"numoutlets" : 0,
																	"patching_rect" : [ 65.5, 5.0, 59.0, 34.0 ],
																	"text" : "inviluppo realtime"
																}

															}
, 															{
																"box" : 																{
																	"fontname" : "Arial",
																	"fontsize" : 12.0,
																	"id" : "obj-2",
																	"linecount" : 2,
																	"maxclass" : "comment",
																	"numinlets" : 1,
																	"numoutlets" : 0,
																	"patching_rect" : [ 5.0, 5.0, 60.5, 34.0 ],
																	"text" : "inviluppo ritardato"
																}

															}
, 															{
																"box" : 																{
																	"fontname" : "Arial",
																	"fontsize" : 12.0,
																	"id" : "obj-25",
																	"maxclass" : "newobj",
																	"numinlets" : 2,
																	"numoutlets" : 1,
																	"outlettype" : [ "signal" ],
																	"patching_rect" : [ 58.5, 246.169922, 32.5, 20.0 ],
																	"text" : "+~"
																}

															}
, 															{
																"box" : 																{
																	"fontname" : "Arial",
																	"fontsize" : 12.0,
																	"id" : "obj-23",
																	"maxclass" : "newobj",
																	"numinlets" : 2,
																	"numoutlets" : 1,
																	"outlettype" : [ "signal" ],
																	"patching_rect" : [ 5.0, 205.169922, 32.5, 20.0 ],
																	"text" : "*~"
																}

															}
, 															{
																"box" : 																{
																	"fontname" : "Arial",
																	"fontsize" : 12.0,
																	"id" : "obj-22",
																	"maxclass" : "newobj",
																	"numinlets" : 2,
																	"numoutlets" : 1,
																	"outlettype" : [ "signal" ],
																	"patching_rect" : [ 18.5, 175.169922, 35.0, 20.0 ],
																	"text" : "!-~ 1"
																}

															}
, 															{
																"box" : 																{
																	"fontname" : "Arial",
																	"fontsize" : 12.0,
																	"id" : "obj-21",
																	"maxclass" : "newobj",
																	"numinlets" : 2,
																	"numoutlets" : 1,
																	"outlettype" : [ "signal" ],
																	"patching_rect" : [ 90.5, 205.169922, 32.5, 20.0 ],
																	"text" : "*~"
																}

															}
, 															{
																"box" : 																{
																	"fontname" : "Arial",
																	"fontsize" : 12.0,
																	"id" : "obj-20",
																	"maxclass" : "newobj",
																	"numinlets" : 3,
																	"numoutlets" : 1,
																	"outlettype" : [ "signal" ],
																	"patching_rect" : [ 51.0, 130.169922, 139.0, 20.0 ],
																	"text" : "rampsmooth~ 0 0"
																}

															}
, 															{
																"box" : 																{
																	"fontname" : "Arial",
																	"fontsize" : 12.0,
																	"id" : "obj-19",
																	"maxclass" : "newobj",
																	"numinlets" : 2,
																	"numoutlets" : 1,
																	"outlettype" : [ "signal" ],
																	"patching_rect" : [ 51.0, 96.169922, 32.5, 20.0 ],
																	"text" : "<~"
																}

															}
, 															{
																"box" : 																{
																	"comment" : "",
																	"id" : "obj-7",
																	"maxclass" : "inlet",
																	"numinlets" : 0,
																	"numoutlets" : 1,
																	"outlettype" : [ "signal" ],
																	"patching_rect" : [ 5.0, 39.0, 25.0, 25.0 ],
																	"varname" : "u952002304"
																}

															}
, 															{
																"box" : 																{
																	"comment" : "",
																	"id" : "obj-8",
																	"maxclass" : "inlet",
																	"numinlets" : 0,
																	"numoutlets" : 1,
																	"outlettype" : [ "signal" ],
																	"patching_rect" : [ 79.5, 39.0, 25.0, 25.0 ],
																	"varname" : "u693002305"
																}

															}
, 															{
																"box" : 																{
																	"comment" : "",
																	"id" : "obj-9",
																	"maxclass" : "inlet",
																	"numinlets" : 0,
																	"numoutlets" : 1,
																	"outlettype" : [ "int" ],
																	"patching_rect" : [ 157.0, 53.0, 25.0, 25.0 ],
																	"varname" : "u166002306"
																}

															}
, 															{
																"box" : 																{
																	"comment" : "",
																	"id" : "obj-10",
																	"maxclass" : "outlet",
																	"numinlets" : 1,
																	"numoutlets" : 0,
																	"patching_rect" : [ 58.5, 278.169922, 25.0, 25.0 ],
																	"varname" : "u338002307"
																}

															}
 ],
														"lines" : [ 															{
																"patchline" : 																{
																	"destination" : [ "obj-20", 0 ],
																	"disabled" : 0,
																	"hidden" : 0,
																	"source" : [ "obj-19", 0 ]
																}

															}
, 															{
																"patchline" : 																{
																	"destination" : [ "obj-21", 0 ],
																	"disabled" : 0,
																	"hidden" : 0,
																	"source" : [ "obj-20", 0 ]
																}

															}
, 															{
																"patchline" : 																{
																	"destination" : [ "obj-22", 0 ],
																	"disabled" : 0,
																	"hidden" : 0,
																	"source" : [ "obj-20", 0 ]
																}

															}
, 															{
																"patchline" : 																{
																	"destination" : [ "obj-25", 1 ],
																	"disabled" : 0,
																	"hidden" : 0,
																	"source" : [ "obj-21", 0 ]
																}

															}
, 															{
																"patchline" : 																{
																	"destination" : [ "obj-23", 1 ],
																	"disabled" : 0,
																	"hidden" : 0,
																	"source" : [ "obj-22", 0 ]
																}

															}
, 															{
																"patchline" : 																{
																	"destination" : [ "obj-25", 0 ],
																	"disabled" : 0,
																	"hidden" : 0,
																	"source" : [ "obj-23", 0 ]
																}

															}
, 															{
																"patchline" : 																{
																	"destination" : [ "obj-10", 0 ],
																	"disabled" : 0,
																	"hidden" : 0,
																	"source" : [ "obj-25", 0 ]
																}

															}
, 															{
																"patchline" : 																{
																	"destination" : [ "obj-19", 0 ],
																	"disabled" : 0,
																	"hidden" : 0,
																	"source" : [ "obj-7", 0 ]
																}

															}
, 															{
																"patchline" : 																{
																	"destination" : [ "obj-23", 0 ],
																	"disabled" : 0,
																	"hidden" : 0,
																	"source" : [ "obj-7", 0 ]
																}

															}
, 															{
																"patchline" : 																{
																	"destination" : [ "obj-19", 1 ],
																	"disabled" : 0,
																	"hidden" : 0,
																	"source" : [ "obj-8", 0 ]
																}

															}
, 															{
																"patchline" : 																{
																	"destination" : [ "obj-21", 1 ],
																	"disabled" : 0,
																	"hidden" : 0,
																	"source" : [ "obj-8", 0 ]
																}

															}
, 															{
																"patchline" : 																{
																	"destination" : [ "obj-20", 1 ],
																	"disabled" : 0,
																	"hidden" : 0,
																	"source" : [ "obj-9", 0 ]
																}

															}
 ],
														"dependency_cache" : [  ]
													}
,
													"patching_rect" : [ 10.0, 157.830078, 238.0, 20.0 ],
													"saved_object_attributes" : 													{
														"default_fontname" : "Arial",
														"fontname" : "Arial",
														"default_fontsize" : 12.0,
														"description" : "",
														"fontface" : 0,
														"fontsize" : 12.0,
														"tags" : "",
														"default_fontface" : 0,
														"globalpatchername" : "",
														"digest" : ""
													}
,
													"text" : "p x_solve"
												}

											}
, 											{
												"box" : 												{
													"fontname" : "Arial",
													"fontsize" : 12.0,
													"id" : "obj-15",
													"maxclass" : "newobj",
													"numinlets" : 2,
													"numoutlets" : 1,
													"outlettype" : [ "signal" ],
													"patching_rect" : [ 10.0, 124.0, 86.0, 20.0 ],
													"text" : "delay~ 1000 0"
												}

											}
, 											{
												"box" : 												{
													"fontname" : "Arial",
													"fontsize" : 12.0,
													"id" : "obj-32",
													"maxclass" : "newobj",
													"numinlets" : 3,
													"numoutlets" : 1,
													"outlettype" : [ "signal" ],
													"patching_rect" : [ 10.0, 64.0, 104.0, 20.0 ],
													"text" : "rampsmooth~ 0 0"
												}

											}
, 											{
												"box" : 												{
													"comment" : "",
													"id" : "obj-50",
													"maxclass" : "inlet",
													"numinlets" : 0,
													"numoutlets" : 1,
													"outlettype" : [ "int" ],
													"patching_rect" : [ 229.0, 5.0, 25.0, 25.0 ]
												}

											}
, 											{
												"box" : 												{
													"comment" : "",
													"id" : "obj-51",
													"maxclass" : "inlet",
													"numinlets" : 0,
													"numoutlets" : 1,
													"outlettype" : [ "signal" ],
													"patching_rect" : [ 47.5, 5.0, 25.0, 25.0 ]
												}

											}
, 											{
												"box" : 												{
													"comment" : "",
													"id" : "obj-52",
													"maxclass" : "inlet",
													"numinlets" : 0,
													"numoutlets" : 1,
													"outlettype" : [ "float" ],
													"patching_rect" : [ 132.5, 5.0, 25.0, 25.0 ]
												}

											}
, 											{
												"box" : 												{
													"comment" : "",
													"id" : "obj-53",
													"maxclass" : "outlet",
													"numinlets" : 1,
													"numoutlets" : 0,
													"patching_rect" : [ 10.0, 210.0, 25.0, 25.0 ]
												}

											}
 ],
										"lines" : [ 											{
												"patchline" : 												{
													"destination" : [ "obj-53", 0 ],
													"disabled" : 0,
													"hidden" : 0,
													"source" : [ "obj-11", 0 ]
												}

											}
, 											{
												"patchline" : 												{
													"destination" : [ "obj-11", 0 ],
													"disabled" : 0,
													"hidden" : 0,
													"source" : [ "obj-15", 0 ]
												}

											}
, 											{
												"patchline" : 												{
													"destination" : [ "obj-11", 1 ],
													"disabled" : 0,
													"hidden" : 0,
													"midpoints" : [ 19.5, 99.415039, 129.0, 99.415039 ],
													"source" : [ "obj-32", 0 ]
												}

											}
, 											{
												"patchline" : 												{
													"destination" : [ "obj-15", 0 ],
													"disabled" : 0,
													"hidden" : 0,
													"source" : [ "obj-32", 0 ]
												}

											}
, 											{
												"patchline" : 												{
													"destination" : [ "obj-11", 2 ],
													"disabled" : 0,
													"hidden" : 0,
													"source" : [ "obj-50", 0 ]
												}

											}
, 											{
												"patchline" : 												{
													"destination" : [ "obj-15", 1 ],
													"disabled" : 0,
													"hidden" : 0,
													"midpoints" : [ 238.5, 109.5, 86.5, 109.5 ],
													"source" : [ "obj-50", 0 ]
												}

											}
, 											{
												"patchline" : 												{
													"destination" : [ "obj-32", 0 ],
													"disabled" : 0,
													"hidden" : 0,
													"source" : [ "obj-51", 0 ]
												}

											}
, 											{
												"patchline" : 												{
													"destination" : [ "obj-32", 2 ],
													"disabled" : 0,
													"hidden" : 0,
													"source" : [ "obj-52", 0 ]
												}

											}
 ],
										"dependency_cache" : [  ]
									}
,
									"patching_rect" : [ 224.0, 220.0, 132.0, 20.0 ],
									"saved_object_attributes" : 									{
										"default_fontname" : "Arial",
										"fontname" : "Arial",
										"default_fontsize" : 12.0,
										"description" : "",
										"fontface" : 0,
										"fontsize" : 12.0,
										"tags" : "",
										"default_fontface" : 0,
										"globalpatchername" : "",
										"digest" : ""
									}
,
									"text" : "p peak_follow"
								}

							}
, 							{
								"box" : 								{
									"fontname" : "Arial",
									"fontsize" : 12.0,
									"id" : "obj-49",
									"maxclass" : "newobj",
									"numinlets" : 2,
									"numoutlets" : 2,
									"outlettype" : [ "signal", "signal" ],
									"patcher" : 									{
										"fileversion" : 1,
										"appversion" : 										{
											"major" : 6,
											"minor" : 0,
											"revision" : 5
										}
,
										"rect" : [ 27.0, 362.0, 110.0, 214.0 ],
										"bglocked" : 0,
										"openinpresentation" : 0,
										"default_fontsize" : 12.0,
										"default_fontface" : 0,
										"default_fontname" : "Arial",
										"gridonopen" : 0,
										"gridsize" : [ 15.0, 15.0 ],
										"gridsnaponopen" : 0,
										"statusbarvisible" : 2,
										"toolbarvisible" : 1,
										"boxanimatetime" : 200,
										"imprint" : 0,
										"enablehscroll" : 1,
										"enablevscroll" : 1,
										"devicewidth" : 0.0,
										"description" : "",
										"digest" : "",
										"tags" : "",
										"boxes" : [ 											{
												"box" : 												{
													"fontname" : "Arial",
													"fontsize" : 12.0,
													"id" : "obj-10",
													"maxclass" : "newobj",
													"numinlets" : 1,
													"numoutlets" : 1,
													"outlettype" : [ "signal" ],
													"patching_rect" : [ 66.0, 48.0, 37.0, 20.0 ],
													"text" : "abs~"
												}

											}
, 											{
												"box" : 												{
													"fontname" : "Arial",
													"fontsize" : 12.0,
													"id" : "obj-11",
													"maxclass" : "newobj",
													"numinlets" : 1,
													"numoutlets" : 1,
													"outlettype" : [ "signal" ],
													"patching_rect" : [ 15.0, 48.0, 37.0, 20.0 ],
													"text" : "abs~"
												}

											}
, 											{
												"box" : 												{
													"fontname" : "Arial",
													"fontsize" : 12.0,
													"id" : "obj-12",
													"maxclass" : "newobj",
													"numinlets" : 2,
													"numoutlets" : 1,
													"outlettype" : [ "signal" ],
													"patching_rect" : [ 15.0, 83.0, 70.0, 20.0 ],
													"text" : "maximum~"
												}

											}
, 											{
												"box" : 												{
													"fontname" : "Arial",
													"fontsize" : 12.0,
													"id" : "obj-14",
													"maxclass" : "newobj",
													"numinlets" : 1,
													"numoutlets" : 1,
													"outlettype" : [ "signal" ],
													"patching_rect" : [ 15.0, 139.0, 48.0, 20.0 ],
													"text" : "atodb~"
												}

											}
, 											{
												"box" : 												{
													"comment" : "",
													"id" : "obj-45",
													"maxclass" : "inlet",
													"numinlets" : 0,
													"numoutlets" : 1,
													"outlettype" : [ "signal" ],
													"patching_rect" : [ 15.0, 11.0, 25.0, 25.0 ]
												}

											}
, 											{
												"box" : 												{
													"comment" : "",
													"id" : "obj-46",
													"maxclass" : "inlet",
													"numinlets" : 0,
													"numoutlets" : 1,
													"outlettype" : [ "signal" ],
													"patching_rect" : [ 66.0, 11.0, 25.0, 25.0 ]
												}

											}
, 											{
												"box" : 												{
													"comment" : "",
													"id" : "obj-47",
													"maxclass" : "outlet",
													"numinlets" : 1,
													"numoutlets" : 0,
													"patching_rect" : [ 72.0, 139.0, 25.0, 25.0 ]
												}

											}
, 											{
												"box" : 												{
													"comment" : "",
													"id" : "obj-48",
													"maxclass" : "outlet",
													"numinlets" : 1,
													"numoutlets" : 0,
													"patching_rect" : [ 15.0, 181.0, 25.0, 25.0 ]
												}

											}
 ],
										"lines" : [ 											{
												"patchline" : 												{
													"destination" : [ "obj-12", 1 ],
													"disabled" : 0,
													"hidden" : 0,
													"source" : [ "obj-10", 0 ]
												}

											}
, 											{
												"patchline" : 												{
													"destination" : [ "obj-12", 0 ],
													"disabled" : 0,
													"hidden" : 0,
													"source" : [ "obj-11", 0 ]
												}

											}
, 											{
												"patchline" : 												{
													"destination" : [ "obj-14", 0 ],
													"disabled" : 0,
													"hidden" : 0,
													"source" : [ "obj-12", 0 ]
												}

											}
, 											{
												"patchline" : 												{
													"destination" : [ "obj-47", 0 ],
													"disabled" : 0,
													"hidden" : 0,
													"source" : [ "obj-12", 0 ]
												}

											}
, 											{
												"patchline" : 												{
													"destination" : [ "obj-48", 0 ],
													"disabled" : 0,
													"hidden" : 0,
													"source" : [ "obj-14", 0 ]
												}

											}
, 											{
												"patchline" : 												{
													"destination" : [ "obj-11", 0 ],
													"disabled" : 0,
													"hidden" : 0,
													"source" : [ "obj-45", 0 ]
												}

											}
, 											{
												"patchline" : 												{
													"destination" : [ "obj-10", 0 ],
													"disabled" : 0,
													"hidden" : 0,
													"source" : [ "obj-46", 0 ]
												}

											}
 ],
										"dependency_cache" : [  ]
									}
,
									"patching_rect" : [ 224.0, 150.0, 105.0, 20.0 ],
									"saved_object_attributes" : 									{
										"default_fontname" : "Arial",
										"fontname" : "Arial",
										"default_fontsize" : 12.0,
										"description" : "",
										"fontface" : 0,
										"fontsize" : 12.0,
										"tags" : "",
										"default_fontface" : 0,
										"globalpatchername" : "",
										"digest" : ""
									}
,
									"text" : "p maximum_peak"
								}

							}
, 							{
								"box" : 								{
									"fontname" : "Arial",
									"fontsize" : 12.0,
									"id" : "obj-44",
									"maxclass" : "newobj",
									"numinlets" : 3,
									"numoutlets" : 2,
									"outlettype" : [ "signal", "signal" ],
									"patcher" : 									{
										"fileversion" : 1,
										"appversion" : 										{
											"major" : 6,
											"minor" : 0,
											"revision" : 5
										}
,
										"rect" : [ 25.0, 69.0, 184.0, 213.0 ],
										"bglocked" : 0,
										"openinpresentation" : 0,
										"default_fontsize" : 12.0,
										"default_fontface" : 0,
										"default_fontname" : "Arial",
										"gridonopen" : 0,
										"gridsize" : [ 15.0, 15.0 ],
										"gridsnaponopen" : 0,
										"statusbarvisible" : 2,
										"toolbarvisible" : 1,
										"boxanimatetime" : 200,
										"imprint" : 0,
										"enablehscroll" : 1,
										"enablevscroll" : 1,
										"devicewidth" : 0.0,
										"description" : "",
										"digest" : "",
										"tags" : "",
										"boxes" : [ 											{
												"box" : 												{
													"fontname" : "Arial",
													"fontsize" : 12.0,
													"id" : "obj-13",
													"maxclass" : "newobj",
													"numinlets" : 2,
													"numoutlets" : 1,
													"outlettype" : [ "signal" ],
													"patching_rect" : [ 72.5, 101.0, 86.0, 20.0 ],
													"text" : "delay~ 1000 0"
												}

											}
, 											{
												"box" : 												{
													"fontname" : "Arial",
													"fontsize" : 12.0,
													"id" : "obj-7",
													"maxclass" : "newobj",
													"numinlets" : 2,
													"numoutlets" : 1,
													"outlettype" : [ "signal" ],
													"patching_rect" : [ 22.0, 72.0, 86.0, 20.0 ],
													"text" : "delay~ 1000 0"
												}

											}
, 											{
												"box" : 												{
													"comment" : "",
													"id" : "obj-39",
													"maxclass" : "inlet",
													"numinlets" : 0,
													"numoutlets" : 1,
													"outlettype" : [ "signal" ],
													"patching_rect" : [ 22.0, 12.0, 25.0, 25.0 ]
												}

											}
, 											{
												"box" : 												{
													"comment" : "",
													"id" : "obj-40",
													"maxclass" : "inlet",
													"numinlets" : 0,
													"numoutlets" : 1,
													"outlettype" : [ "signal" ],
													"patching_rect" : [ 72.5, 12.0, 25.0, 25.0 ]
												}

											}
, 											{
												"box" : 												{
													"comment" : "",
													"id" : "obj-41",
													"maxclass" : "inlet",
													"numinlets" : 0,
													"numoutlets" : 1,
													"outlettype" : [ "int" ],
													"patching_rect" : [ 139.5, 12.0, 25.0, 25.0 ]
												}

											}
, 											{
												"box" : 												{
													"comment" : "",
													"id" : "obj-42",
													"maxclass" : "outlet",
													"numinlets" : 1,
													"numoutlets" : 0,
													"patching_rect" : [ 22.0, 181.0, 25.0, 25.0 ]
												}

											}
, 											{
												"box" : 												{
													"comment" : "",
													"id" : "obj-43",
													"maxclass" : "outlet",
													"numinlets" : 1,
													"numoutlets" : 0,
													"patching_rect" : [ 72.5, 181.0, 25.0, 25.0 ]
												}

											}
 ],
										"lines" : [ 											{
												"patchline" : 												{
													"destination" : [ "obj-43", 0 ],
													"disabled" : 0,
													"hidden" : 0,
													"source" : [ "obj-13", 0 ]
												}

											}
, 											{
												"patchline" : 												{
													"destination" : [ "obj-7", 0 ],
													"disabled" : 0,
													"hidden" : 0,
													"source" : [ "obj-39", 0 ]
												}

											}
, 											{
												"patchline" : 												{
													"destination" : [ "obj-13", 0 ],
													"disabled" : 0,
													"hidden" : 0,
													"source" : [ "obj-40", 0 ]
												}

											}
, 											{
												"patchline" : 												{
													"destination" : [ "obj-13", 1 ],
													"disabled" : 0,
													"hidden" : 0,
													"source" : [ "obj-41", 0 ]
												}

											}
, 											{
												"patchline" : 												{
													"destination" : [ "obj-7", 1 ],
													"disabled" : 0,
													"hidden" : 0,
													"source" : [ "obj-41", 0 ]
												}

											}
, 											{
												"patchline" : 												{
													"destination" : [ "obj-42", 0 ],
													"disabled" : 0,
													"hidden" : 0,
													"source" : [ "obj-7", 0 ]
												}

											}
 ],
										"dependency_cache" : [  ]
									}
,
									"patching_rect" : [ 25.0, 150.0, 69.5, 20.0 ],
									"saved_object_attributes" : 									{
										"default_fontname" : "Arial",
										"fontname" : "Arial",
										"default_fontsize" : 12.0,
										"description" : "",
										"fontface" : 0,
										"fontsize" : 12.0,
										"tags" : "",
										"default_fontface" : 0,
										"globalpatchername" : "",
										"digest" : ""
									}
,
									"text" : "p delay"
								}

							}
, 							{
								"box" : 								{
									"fontname" : "Arial",
									"fontsize" : 12.0,
									"id" : "obj-37",
									"maxclass" : "newobj",
									"numinlets" : 2,
									"numoutlets" : 1,
									"outlettype" : [ "int" ],
									"patching_rect" : [ 337.0, 107.0, 32.5, 20.0 ],
									"text" : "int"
								}

							}
, 							{
								"box" : 								{
									"fontname" : "Arial",
									"fontsize" : 12.0,
									"id" : "obj-36",
									"maxclass" : "newobj",
									"numinlets" : 1,
									"numoutlets" : 2,
									"outlettype" : [ "signal", "float" ],
									"patching_rect" : [ 277.0, 77.0, 79.0, 20.0 ],
									"text" : "mstosamps~"
								}

							}
, 							{
								"box" : 								{
									"comment" : "",
									"id" : "obj-35",
									"maxclass" : "inlet",
									"numinlets" : 0,
									"numoutlets" : 1,
									"outlettype" : [ "float" ],
									"patching_rect" : [ 416.0, 27.0, 25.0, 25.0 ]
								}

							}
, 							{
								"box" : 								{
									"comment" : "",
									"id" : "obj-17",
									"maxclass" : "inlet",
									"numinlets" : 0,
									"numoutlets" : 1,
									"outlettype" : [ "float" ],
									"patching_rect" : [ 277.0, 7.0, 25.0, 25.0 ]
								}

							}
, 							{
								"box" : 								{
									"comment" : "",
									"id" : "obj-3",
									"maxclass" : "outlet",
									"numinlets" : 1,
									"numoutlets" : 0,
									"patching_rect" : [ 75.5, 421.0, 25.0, 25.0 ]
								}

							}
, 							{
								"box" : 								{
									"fontname" : "Arial",
									"fontsize" : 12.0,
									"id" : "obj-2",
									"maxclass" : "newobj",
									"numinlets" : 2,
									"numoutlets" : 1,
									"outlettype" : [ "signal" ],
									"patching_rect" : [ 75.5, 386.0, 32.5, 20.0 ],
									"text" : "*~"
								}

							}
, 							{
								"box" : 								{
									"fontname" : "Arial",
									"fontsize" : 12.0,
									"id" : "obj-1",
									"maxclass" : "newobj",
									"numinlets" : 2,
									"numoutlets" : 1,
									"outlettype" : [ "signal" ],
									"patching_rect" : [ 25.0, 386.0, 32.5, 20.0 ],
									"text" : "*~"
								}

							}
, 							{
								"box" : 								{
									"comment" : "",
									"id" : "obj-84",
									"maxclass" : "inlet",
									"numinlets" : 0,
									"numoutlets" : 1,
									"outlettype" : [ "signal" ],
									"patching_rect" : [ 25.0, 9.0, 25.0, 25.0 ]
								}

							}
, 							{
								"box" : 								{
									"comment" : "",
									"id" : "obj-86",
									"maxclass" : "inlet",
									"numinlets" : 0,
									"numoutlets" : 1,
									"outlettype" : [ "float" ],
									"patching_rect" : [ 313.75, 7.0, 25.0, 25.0 ]
								}

							}
, 							{
								"box" : 								{
									"comment" : "",
									"id" : "obj-87",
									"maxclass" : "inlet",
									"numinlets" : 0,
									"numoutlets" : 1,
									"outlettype" : [ "signal" ],
									"patching_rect" : [ 75.5, 9.0, 25.0, 25.0 ]
								}

							}
, 							{
								"box" : 								{
									"comment" : "",
									"id" : "obj-90",
									"maxclass" : "outlet",
									"numinlets" : 1,
									"numoutlets" : 0,
									"patching_rect" : [ 25.0, 421.0, 25.0, 25.0 ]
								}

							}
, 							{
								"box" : 								{
									"comment" : "",
									"id" : "obj-91",
									"maxclass" : "outlet",
									"numinlets" : 1,
									"numoutlets" : 0,
									"patching_rect" : [ 310.0, 181.0, 25.0, 25.0 ]
								}

							}
, 							{
								"box" : 								{
									"comment" : "",
									"id" : "obj-93",
									"maxclass" : "outlet",
									"numinlets" : 1,
									"numoutlets" : 0,
									"patching_rect" : [ 348.5, 421.0, 25.0, 25.0 ]
								}

							}
, 							{
								"box" : 								{
									"fontname" : "Arial",
									"fontsize" : 12.0,
									"id" : "obj-8",
									"maxclass" : "newobj",
									"numinlets" : 1,
									"numoutlets" : 2,
									"outlettype" : [ "signal", "float" ],
									"patching_rect" : [ 313.75, 47.0, 79.0, 20.0 ],
									"text" : "mstosamps~"
								}

							}
 ],
						"lines" : [ 							{
								"patchline" : 								{
									"destination" : [ "obj-90", 0 ],
									"disabled" : 0,
									"hidden" : 0,
									"source" : [ "obj-1", 0 ]
								}

							}
, 							{
								"patchline" : 								{
									"destination" : [ "obj-9", 2 ],
									"disabled" : 0,
									"hidden" : 0,
									"source" : [ "obj-10", 0 ]
								}

							}
, 							{
								"patchline" : 								{
									"destination" : [ "obj-13", 0 ],
									"disabled" : 0,
									"hidden" : 0,
									"midpoints" : [ 161.0, 308.0, 358.0, 308.0 ],
									"source" : [ "obj-11", 0 ]
								}

							}
, 							{
								"patchline" : 								{
									"destination" : [ "obj-9", 0 ],
									"disabled" : 0,
									"hidden" : 0,
									"source" : [ "obj-11", 0 ]
								}

							}
, 							{
								"patchline" : 								{
									"destination" : [ "obj-13", 2 ],
									"disabled" : 0,
									"hidden" : 0,
									"source" : [ "obj-12", 0 ]
								}

							}
, 							{
								"patchline" : 								{
									"destination" : [ "obj-93", 0 ],
									"disabled" : 0,
									"hidden" : 0,
									"source" : [ "obj-13", 0 ]
								}

							}
, 							{
								"patchline" : 								{
									"destination" : [ "obj-36", 0 ],
									"disabled" : 0,
									"hidden" : 0,
									"source" : [ "obj-17", 0 ]
								}

							}
, 							{
								"patchline" : 								{
									"destination" : [ "obj-3", 0 ],
									"disabled" : 0,
									"hidden" : 0,
									"source" : [ "obj-2", 0 ]
								}

							}
, 							{
								"patchline" : 								{
									"destination" : [ "obj-59", 1 ],
									"disabled" : 0,
									"hidden" : 0,
									"source" : [ "obj-35", 0 ]
								}

							}
, 							{
								"patchline" : 								{
									"destination" : [ "obj-37", 0 ],
									"disabled" : 0,
									"hidden" : 0,
									"source" : [ "obj-36", 1 ]
								}

							}
, 							{
								"patchline" : 								{
									"destination" : [ "obj-44", 2 ],
									"disabled" : 0,
									"hidden" : 0,
									"source" : [ "obj-37", 0 ]
								}

							}
, 							{
								"patchline" : 								{
									"destination" : [ "obj-54", 2 ],
									"disabled" : 0,
									"hidden" : 0,
									"source" : [ "obj-37", 0 ]
								}

							}
, 							{
								"patchline" : 								{
									"destination" : [ "obj-11", 0 ],
									"disabled" : 0,
									"hidden" : 0,
									"source" : [ "obj-4", 0 ]
								}

							}
, 							{
								"patchline" : 								{
									"destination" : [ "obj-1", 0 ],
									"disabled" : 0,
									"hidden" : 0,
									"source" : [ "obj-44", 0 ]
								}

							}
, 							{
								"patchline" : 								{
									"destination" : [ "obj-2", 0 ],
									"disabled" : 0,
									"hidden" : 0,
									"source" : [ "obj-44", 1 ]
								}

							}
, 							{
								"patchline" : 								{
									"destination" : [ "obj-54", 0 ],
									"disabled" : 0,
									"hidden" : 0,
									"source" : [ "obj-49", 0 ]
								}

							}
, 							{
								"patchline" : 								{
									"destination" : [ "obj-91", 0 ],
									"disabled" : 0,
									"hidden" : 0,
									"source" : [ "obj-49", 1 ]
								}

							}
, 							{
								"patchline" : 								{
									"destination" : [ "obj-59", 0 ],
									"disabled" : 0,
									"hidden" : 0,
									"source" : [ "obj-54", 0 ]
								}

							}
, 							{
								"patchline" : 								{
									"destination" : [ "obj-13", 1 ],
									"disabled" : 0,
									"hidden" : 0,
									"midpoints" : [ 425.5, 309.0, 383.5, 309.0 ],
									"source" : [ "obj-59", 1 ]
								}

							}
, 							{
								"patchline" : 								{
									"destination" : [ "obj-9", 1 ],
									"disabled" : 0,
									"hidden" : 0,
									"midpoints" : [ 233.5, 277.0, 186.5, 277.0 ],
									"source" : [ "obj-59", 0 ]
								}

							}
, 							{
								"patchline" : 								{
									"destination" : [ "obj-54", 1 ],
									"disabled" : 0,
									"hidden" : 0,
									"midpoints" : [ 383.25, 209.0, 290.0, 209.0 ],
									"source" : [ "obj-8", 1 ]
								}

							}
, 							{
								"patchline" : 								{
									"destination" : [ "obj-44", 0 ],
									"disabled" : 0,
									"hidden" : 0,
									"source" : [ "obj-84", 0 ]
								}

							}
, 							{
								"patchline" : 								{
									"destination" : [ "obj-49", 0 ],
									"disabled" : 0,
									"hidden" : 0,
									"source" : [ "obj-84", 0 ]
								}

							}
, 							{
								"patchline" : 								{
									"destination" : [ "obj-8", 0 ],
									"disabled" : 0,
									"hidden" : 0,
									"source" : [ "obj-86", 0 ]
								}

							}
, 							{
								"patchline" : 								{
									"destination" : [ "obj-44", 1 ],
									"disabled" : 0,
									"hidden" : 0,
									"source" : [ "obj-87", 0 ]
								}

							}
, 							{
								"patchline" : 								{
									"destination" : [ "obj-49", 1 ],
									"disabled" : 0,
									"hidden" : 0,
									"source" : [ "obj-87", 0 ]
								}

							}
, 							{
								"patchline" : 								{
									"destination" : [ "obj-1", 1 ],
									"disabled" : 0,
									"hidden" : 0,
									"source" : [ "obj-9", 0 ]
								}

							}
, 							{
								"patchline" : 								{
									"destination" : [ "obj-2", 1 ],
									"disabled" : 0,
									"hidden" : 0,
									"source" : [ "obj-9", 0 ]
								}

							}
 ],
						"dependency_cache" : [  ]
					}
,
					"patching_rect" : [ 6.750061, 143.0, 245.75, 20.0 ],
					"saved_object_attributes" : 					{
						"default_fontname" : "Arial",
						"fontname" : "Arial",
						"default_fontsize" : 12.0,
						"description" : "",
						"fontface" : 0,
						"fontsize" : 12.0,
						"tags" : "",
						"default_fontface" : 0,
						"globalpatchername" : "",
						"digest" : ""
					}
,
					"text" : "p normalizer"
				}

			}
, 			{
				"box" : 				{
					"fontname" : "Arial",
					"fontsize" : 12.0,
					"id" : "obj-111",
					"maxclass" : "comment",
					"numinlets" : 1,
					"numoutlets" : 0,
					"patching_rect" : [ 466.625244, 108.5, 24.0, 20.0 ],
					"text" : "60"
				}

			}
, 			{
				"box" : 				{
					"fontname" : "Arial",
					"fontsize" : 12.0,
					"id" : "obj-112",
					"maxclass" : "comment",
					"numinlets" : 1,
					"numoutlets" : 0,
					"patching_rect" : [ 464.625244, 218.5, 28.0, 20.0 ],
					"text" : "-60"
				}

			}
, 			{
				"box" : 				{
					"fontname" : "Arial",
					"fontsize" : 12.0,
					"id" : "obj-113",
					"maxclass" : "comment",
					"numinlets" : 1,
					"numoutlets" : 0,
					"patching_rect" : [ 307.250488, 108.5, 19.0, 20.0 ],
					"text" : "1"
				}

			}
, 			{
				"box" : 				{
					"fontname" : "Arial",
					"fontsize" : 12.0,
					"id" : "obj-114",
					"maxclass" : "comment",
					"numinlets" : 1,
					"numoutlets" : 0,
					"patching_rect" : [ 307.250488, 218.5, 19.0, 20.0 ],
					"text" : "0"
				}

			}
, 			{
				"box" : 				{
					"fontname" : "Arial",
					"fontsize" : 12.0,
					"id" : "obj-117",
					"maxclass" : "comment",
					"numinlets" : 1,
					"numoutlets" : 0,
					"patching_rect" : [ 176.812561, 93.5, 50.0, 20.0 ],
					"text" : "release"
				}

			}
, 			{
				"box" : 				{
					"fontname" : "Arial",
					"fontsize" : 12.0,
					"id" : "obj-121",
					"maxclass" : "flonum",
					"minimum" : 0.0,
					"numinlets" : 1,
					"numoutlets" : 2,
					"outlettype" : [ "float", "bang" ],
					"parameter_enable" : 0,
					"patching_rect" : [ 176.812561, 113.5, 53.0, 20.0 ],
					"varname" : "release[1]"
				}

			}
, 			{
				"box" : 				{
					"calccount" : 13,
					"id" : "obj-123",
					"maxclass" : "scope~",
					"numinlets" : 2,
					"numoutlets" : 0,
					"patching_rect" : [ 490.0, 108.5, 130.0, 130.0 ],
					"range" : [ -60.0, 60.0 ]
				}

			}
, 			{
				"box" : 				{
					"calccount" : 13,
					"id" : "obj-124",
					"maxclass" : "scope~",
					"numinlets" : 2,
					"numoutlets" : 0,
					"patching_rect" : [ 321.625244, 108.5, 130.0, 130.0 ],
					"range" : [ 0.0, 1.0 ]
				}

			}
, 			{
				"box" : 				{
					"fontname" : "Arial",
					"fontsize" : 12.0,
					"frgb" : [ 1.0, 1.0, 1.0, 1.0 ],
					"id" : "obj-83",
					"maxclass" : "comment",
					"numinlets" : 1,
					"numoutlets" : 0,
					"patching_rect" : [ 213.250061, 5.0, 40.0, 20.0 ],
					"text" : "GAIN",
					"textcolor" : [ 1.0, 1.0, 1.0, 1.0 ]
				}

			}
, 			{
				"box" : 				{
					"id" : "obj-80",
					"maxclass" : "preset",
					"numinlets" : 1,
					"numoutlets" : 4,
					"outlettype" : [ "preset", "int", "preset", "int" ],
					"patching_rect" : [ 245.000061, 265.516357, 30.0, 54.0 ],
					"preset_data" : [ 						{
							"number" : 1,
							"data" : [ 5, "obj-3", "umenu", "int", 12, 5, "obj-73", "flonum", "float", 0.0, 5, "obj-121", "flonum", "float", 1000.0, 5, "obj-7", "flonum", "float", 2.5, 5, "obj-13", "flonum", "float", -0.5, 5, "obj-6", "toggle", "int", 1 ]
						}
, 						{
							"number" : 2,
							"data" : [ 5, "obj-3", "umenu", "int", 12, 5, "obj-73", "flonum", "float", 0.0, 5, "obj-121", "flonum", "float", 1000.0, 5, "obj-7", "flonum", "float", 2.5, 5, "obj-13", "flonum", "float", -0.5, 5, "obj-6", "toggle", "int", 0 ]
						}
, 						{
							"number" : 3,
							"data" : [ 5, "obj-3", "umenu", "int", 6, 5, "obj-73", "flonum", "float", 0.0, 5, "obj-121", "flonum", "float", 1000.0, 5, "obj-7", "flonum", "float", 2.5, 5, "obj-13", "flonum", "float", -0.5, 5, "obj-6", "toggle", "int", 1 ]
						}
, 						{
							"number" : 4,
							"data" : [ 5, "obj-3", "umenu", "int", 6, 5, "obj-73", "flonum", "float", 0.0, 5, "obj-121", "flonum", "float", 1000.0, 5, "obj-7", "flonum", "float", 2.5, 5, "obj-13", "flonum", "float", -0.5, 5, "obj-6", "toggle", "int", 0 ]
						}
, 						{
							"number" : 5,
							"data" : [ 5, "obj-3", "umenu", "int", 2, 5, "obj-73", "flonum", "float", 0.0, 5, "obj-121", "flonum", "float", 50.0, 5, "obj-7", "flonum", "float", 0.0, 5, "obj-13", "flonum", "float", 0.0, 5, "obj-6", "toggle", "int", 1 ]
						}
, 						{
							"number" : 6,
							"data" : [ 5, "obj-3", "umenu", "int", 2, 5, "obj-73", "flonum", "float", 0.0, 5, "obj-121", "flonum", "float", 50.0, 5, "obj-7", "flonum", "float", 0.0, 5, "obj-13", "flonum", "float", 0.0, 5, "obj-6", "toggle", "int", 0 ]
						}
, 						{
							"number" : 7,
							"data" : [ 5, "obj-3", "umenu", "int", 7, 5, "obj-73", "flonum", "float", 0.0, 5, "obj-121", "flonum", "float", 50.0, 5, "obj-7", "flonum", "float", 2.5, 5, "obj-13", "flonum", "float", -0.5, 5, "obj-6", "toggle", "int", 1 ]
						}
, 						{
							"number" : 8,
							"data" : [ 5, "obj-3", "umenu", "int", 7, 5, "obj-73", "flonum", "float", 0.0, 5, "obj-121", "flonum", "float", 50.0, 5, "obj-7", "flonum", "float", 2.5, 5, "obj-13", "flonum", "float", -0.5, 5, "obj-6", "toggle", "int", 0 ]
						}
 ]
				}

			}
, 			{
				"box" : 				{
					"fontname" : "Arial",
					"fontsize" : 12.0,
					"id" : "obj-73",
					"maxclass" : "flonum",
					"maximum" : 0.0,
					"numinlets" : 1,
					"numoutlets" : 2,
					"outlettype" : [ "float", "bang" ],
					"parameter_enable" : 0,
					"patching_rect" : [ 163.375244, 5.0, 50.0, 20.0 ]
				}

			}
, 			{
				"box" : 				{
					"fontname" : "Arial",
					"fontsize" : 12.0,
					"id" : "obj-72",
					"maxclass" : "message",
					"numinlets" : 2,
					"numoutlets" : 1,
					"outlettype" : [ "" ],
					"patching_rect" : [ 6.750061, 283.516357, 74.0, 18.0 ],
					"text" : "startwindow"
				}

			}
, 			{
				"box" : 				{
					"id" : "obj-61",
					"maxclass" : "live.gain~",
					"numinlets" : 2,
					"numoutlets" : 5,
					"orientation" : 1,
					"outlettype" : [ "signal", "signal", "", "float", "list" ],
					"parameter_enable" : 1,
					"patching_rect" : [ 6.750061, 206.0, 298.0, 49.0 ],
					"presentation_rect" : [ 0.0, 0.0, 50.0, 35.0 ],
					"saved_attribute_attributes" : 					{
						"valueof" : 						{
							"parameter_unitstyle" : 4,
							"parameter_mmax" : 6.0,
							"parameter_mmin" : -70.0,
							"parameter_initial" : [ -120 ],
							"parameter_type" : 0,
							"parameter_initial_enable" : 1,
							"parameter_shortname" : "live.gain~",
							"parameter_longname" : "live.gain~"
						}

					}
,
					"varname" : "live.gain~"
				}

			}
, 			{
				"box" : 				{
					"fontname" : "Arial",
					"fontsize" : 12.0,
					"id" : "obj-20",
					"maxclass" : "comment",
					"numinlets" : 1,
					"numoutlets" : 0,
					"patching_rect" : [ 490.0, 87.75, 81.0, 20.0 ],
					"text" : "Gain Change"
				}

			}
, 			{
				"box" : 				{
					"fontname" : "Arial",
					"fontsize" : 12.0,
					"id" : "obj-18",
					"maxclass" : "comment",
					"numinlets" : 1,
					"numoutlets" : 0,
					"patching_rect" : [ 321.625244, 89.5, 61.0, 20.0 ],
					"text" : "Peak"
				}

			}
, 			{
				"box" : 				{
					"fontname" : "Arial",
					"fontsize" : 12.0,
					"id" : "obj-14",
					"maxclass" : "newobj",
					"numinlets" : 2,
					"numoutlets" : 0,
					"patching_rect" : [ 153.008163, 313.0, 51.500061, 20.0 ],
					"text" : "dac~"
				}

			}
, 			{
				"box" : 				{
					"fontname" : "Arial",
					"fontsize" : 12.0,
					"id" : "obj-16",
					"maxclass" : "message",
					"numinlets" : 2,
					"numoutlets" : 1,
					"outlettype" : [ "" ],
					"patching_rect" : [ 98.094498, 283.516357, 50.0, 18.0 ],
					"text" : "stop"
				}

			}
, 			{
				"box" : 				{
					"arrow" : 0,
					"arrowframe" : 0,
					"arrowlink" : 0,
					"fontname" : "Arial",
					"fontsize" : 12.0,
					"id" : "obj-3",
					"items" : [ "vs_piano_tango.wav", ",", "vs_walking_bass.wav", ",", "vs_abreak2.aif", ",", "vs_harp_riff.wav", ",", "vs_aqua_sap.aif", ",", "vs_drums_loop.aif", ",", "vs_flute_bourree.wav", ",", "vs_flute_q2.aif", ",", "vs_guitar_frag_q4.aif", ",", "vs_guitar_melody_q4.aif", ",", "vs_guitar_phrase_q4.aif", ",", "vs_guitar_rythm_q4.aif", ",", "vs_group_groove_fadeout.wav" ],
					"maxclass" : "umenu",
					"numinlets" : 1,
					"numoutlets" : 3,
					"outlettype" : [ "int", "", "" ],
					"parameter_enable" : 0,
					"patching_rect" : [ 6.750061, 5.0, 150.0, 20.0 ]
				}

			}
, 			{
				"box" : 				{
					"background" : 1,
					"bgcolor" : [ 0.847059, 0.269771, 0.186805, 1.0 ],
					"id" : "obj-27",
					"ignoreclick" : 1,
					"maxclass" : "panel",
					"numinlets" : 1,
					"numoutlets" : 0,
					"patching_rect" : [ 160.375244, 1.75, 92.874817, 26.25 ]
				}

			}
 ],
		"lines" : [ 			{
				"patchline" : 				{
					"destination" : [ "obj-123", 0 ],
					"disabled" : 0,
					"hidden" : 1,
					"midpoints" : [ 243.000061, 175.0, 470.125031, 175.0, 470.125031, 46.5, 499.5, 46.5 ],
					"source" : [ "obj-108", 3 ]
				}

			}
, 			{
				"patchline" : 				{
					"destination" : [ "obj-124", 0 ],
					"disabled" : 0,
					"hidden" : 1,
					"midpoints" : [ 167.416733, 183.0, 301.187653, 183.0, 301.187653, 95.5, 331.125244, 95.5 ],
					"source" : [ "obj-108", 2 ]
				}

			}
, 			{
				"patchline" : 				{
					"destination" : [ "obj-61", 1 ],
					"disabled" : 0,
					"hidden" : 0,
					"midpoints" : [ 91.833397, 192.25, 295.250061, 192.25 ],
					"source" : [ "obj-108", 1 ]
				}

			}
, 			{
				"patchline" : 				{
					"destination" : [ "obj-61", 0 ],
					"disabled" : 0,
					"hidden" : 0,
					"source" : [ "obj-108", 0 ]
				}

			}
, 			{
				"patchline" : 				{
					"destination" : [ "obj-108", 4 ],
					"disabled" : 0,
					"hidden" : 0,
					"source" : [ "obj-121", 0 ]
				}

			}
, 			{
				"patchline" : 				{
					"destination" : [ "obj-108", 5 ],
					"disabled" : 0,
					"hidden" : 0,
					"source" : [ "obj-13", 0 ]
				}

			}
, 			{
				"patchline" : 				{
					"destination" : [ "obj-14", 0 ],
					"disabled" : 0,
					"hidden" : 0,
					"midpoints" : [ 107.594498, 306.0, 162.508163, 306.0 ],
					"source" : [ "obj-16", 0 ]
				}

			}
, 			{
				"patchline" : 				{
					"destination" : [ "obj-80", 0 ],
					"disabled" : 0,
					"hidden" : 1,
					"source" : [ "obj-2", 0 ]
				}

			}
, 			{
				"patchline" : 				{
					"destination" : [ "obj-108", 1 ],
					"disabled" : 0,
					"hidden" : 0,
					"midpoints" : [ 172.875244, 68.5, 61.60006, 68.5 ],
					"source" : [ "obj-25", 1 ]
				}

			}
, 			{
				"patchline" : 				{
					"destination" : [ "obj-108", 0 ],
					"disabled" : 0,
					"hidden" : 0,
					"source" : [ "obj-25", 0 ]
				}

			}
, 			{
				"patchline" : 				{
					"destination" : [ "obj-29", 0 ],
					"disabled" : 0,
					"hidden" : 1,
					"midpoints" : [ 172.875244, 70.0, 264.000244, 70.0, 264.000244, 4.0, 407.625244, 4.0 ],
					"source" : [ "obj-25", 1 ]
				}

			}
, 			{
				"patchline" : 				{
					"destination" : [ "obj-25", 0 ],
					"disabled" : 0,
					"hidden" : 0,
					"source" : [ "obj-3", 1 ]
				}

			}
, 			{
				"patchline" : 				{
					"destination" : [ "obj-108", 2 ],
					"disabled" : 0,
					"hidden" : 0,
					"source" : [ "obj-6", 0 ]
				}

			}
, 			{
				"patchline" : 				{
					"destination" : [ "obj-1", 0 ],
					"disabled" : 0,
					"hidden" : 1,
					"source" : [ "obj-61", 1 ]
				}

			}
, 			{
				"patchline" : 				{
					"destination" : [ "obj-14", 1 ],
					"disabled" : 0,
					"hidden" : 0,
					"midpoints" : [ 86.000061, 267.0, 195.008224, 267.0 ],
					"source" : [ "obj-61", 1 ]
				}

			}
, 			{
				"patchline" : 				{
					"destination" : [ "obj-14", 0 ],
					"disabled" : 0,
					"hidden" : 0,
					"midpoints" : [ 16.250061, 274.0, 162.508163, 274.0 ],
					"source" : [ "obj-61", 0 ]
				}

			}
, 			{
				"patchline" : 				{
					"destination" : [ "obj-108", 3 ],
					"disabled" : 0,
					"hidden" : 0,
					"source" : [ "obj-7", 0 ]
				}

			}
, 			{
				"patchline" : 				{
					"destination" : [ "obj-14", 0 ],
					"disabled" : 0,
					"hidden" : 0,
					"midpoints" : [ 16.250061, 306.0, 162.508163, 306.0 ],
					"source" : [ "obj-72", 0 ]
				}

			}
, 			{
				"patchline" : 				{
					"destination" : [ "obj-25", 1 ],
					"disabled" : 0,
					"hidden" : 0,
					"source" : [ "obj-73", 0 ]
				}

			}
, 			{
				"patchline" : 				{
					"destination" : [ "obj-61", 0 ],
					"disabled" : 0,
					"hidden" : 1,
					"source" : [ "obj-80", 2 ]
				}

			}
 ],
		"parameters" : 		{
			"obj-61" : [ "live.gain~", "live.gain~", 0 ]
		}
,
		"dependency_cache" : [  ]
	}

}
