{
	"patcher" : 	{
		"fileversion" : 1,
		"appversion" : 		{
			"major" : 6,
			"minor" : 1,
			"revision" : 3,
			"architecture" : "x86"
		}
,
		"rect" : [ 148.0, 45.0, 698.0, 594.0 ],
		"bglocked" : 0,
		"openinpresentation" : 0,
		"default_fontsize" : 12.0,
		"default_fontface" : 0,
		"default_fontname" : "Arial",
		"gridonopen" : 0,
		"gridsize" : [ 15.0, 15.0 ],
		"gridsnaponopen" : 0,
		"statusbarvisible" : 2,
		"toolbarvisible" : 1,
		"boxanimatetime" : 200,
		"imprint" : 0,
		"enablehscroll" : 1,
		"enablevscroll" : 1,
		"devicewidth" : 0.0,
		"description" : "",
		"digest" : "",
		"tags" : "",
		"boxes" : [ 			{
				"box" : 				{
					"fontname" : "Arial",
					"fontsize" : 12.0,
					"frgb" : 0.0,
					"id" : "obj-66",
					"linecount" : 2,
					"maxclass" : "comment",
					"numinlets" : 1,
					"numoutlets" : 0,
					"patching_rect" : [ 307.5, 126.0, 58.899994, 33.0 ],
					"text" : "element number"
				}

			}
, 			{
				"box" : 				{
					"fontname" : "Arial",
					"fontsize" : 12.0,
					"id" : "obj-57",
					"maxclass" : "number",
					"numinlets" : 1,
					"numoutlets" : 2,
					"outlettype" : [ "int", "bang" ],
					"parameter_enable" : 0,
					"patching_rect" : [ 318.399994, 109.0, 36.0, 20.0 ]
				}

			}
, 			{
				"box" : 				{
					"fontname" : "Arial",
					"fontsize" : 12.0,
					"frgb" : 0.0,
					"id" : "obj-31",
					"maxclass" : "comment",
					"numinlets" : 1,
					"numoutlets" : 0,
					"patching_rect" : [ 113.5, 405.0, 47.0, 20.0 ],
					"text" : "panpot"
				}

			}
, 			{
				"box" : 				{
					"fontname" : "Arial",
					"fontsize" : 12.0,
					"frgb" : 0.0,
					"id" : "obj-27",
					"maxclass" : "comment",
					"numinlets" : 1,
					"numoutlets" : 0,
					"patching_rect" : [ 43.5, 379.0, 93.0, 20.0 ],
					"text" : "envelope (slice)"
				}

			}
, 			{
				"box" : 				{
					"fontname" : "Arial",
					"fontsize" : 12.0,
					"frgb" : 0.0,
					"id" : "obj-8",
					"maxclass" : "comment",
					"numinlets" : 1,
					"numoutlets" : 0,
					"patching_rect" : [ 138.149994, 336.0, 79.0, 20.0 ],
					"text" : "lowpass"
				}

			}
, 			{
				"box" : 				{
					"fontname" : "Arial",
					"fontsize" : 12.0,
					"id" : "obj-64",
					"maxclass" : "newobj",
					"numinlets" : 1,
					"numoutlets" : 1,
					"outlettype" : [ "" ],
					"patching_rect" : [ 67.5, 275.258179, 34.0, 20.0 ],
					"text" : "mtof"
				}

			}
, 			{
				"box" : 				{
					"fontname" : "Arial",
					"fontsize" : 12.0,
					"id" : "obj-63",
					"maxclass" : "newobj",
					"numinlets" : 1,
					"numoutlets" : 1,
					"outlettype" : [ "" ],
					"patching_rect" : [ 120.166664, 222.0, 47.0, 20.0 ],
					"text" : "ftom 0."
				}

			}
, 			{
				"box" : 				{
					"fontname" : "Arial",
					"fontsize" : 12.0,
					"id" : "obj-62",
					"maxclass" : "newobj",
					"numinlets" : 1,
					"numoutlets" : 1,
					"outlettype" : [ "" ],
					"patching_rect" : [ 94.0, 172.0, 47.0, 20.0 ],
					"text" : "ftom 0."
				}

			}
, 			{
				"box" : 				{
					"fontname" : "Arial",
					"fontsize" : 12.0,
					"frgb" : 0.0,
					"id" : "obj-60",
					"linecount" : 2,
					"maxclass" : "comment",
					"numinlets" : 1,
					"numoutlets" : 0,
					"patching_rect" : [ 513.75, 338.0, 83.0, 33.0 ],
					"text" : "lowpass filter response"
				}

			}
, 			{
				"box" : 				{
					"fontname" : "Arial",
					"fontsize" : 12.0,
					"frgb" : 0.0,
					"id" : "obj-59",
					"linecount" : 2,
					"maxclass" : "comment",
					"numinlets" : 1,
					"numoutlets" : 0,
					"patching_rect" : [ 332.75, 395.0, 79.0, 33.0 ],
					"text" : "stereo position"
				}

			}
, 			{
				"box" : 				{
					"fontname" : "Arial",
					"fontsize" : 12.0,
					"frgb" : 0.0,
					"id" : "obj-54",
					"maxclass" : "comment",
					"numinlets" : 1,
					"numoutlets" : 0,
					"patching_rect" : [ 30.5, 302.0, 41.0, 20.0 ],
					"text" : "lpfreq"
				}

			}
, 			{
				"box" : 				{
					"color" : [ 0.839216, 0.537243, 0.138049, 1.0 ],
					"fontname" : "Arial",
					"fontsize" : 12.0,
					"id" : "obj-42",
					"maxclass" : "newobj",
					"numinlets" : 1,
					"numoutlets" : 1,
					"outlettype" : [ "" ],
					"patching_rect" : [ 596.357117, 294.5, 67.0, 20.0 ],
					"text" : "pvar lpfreq"
				}

			}
, 			{
				"box" : 				{
					"color" : [ 0.839216, 0.537243, 0.138049, 1.0 ],
					"fontname" : "Arial",
					"fontsize" : 12.0,
					"id" : "obj-36",
					"maxclass" : "newobj",
					"numinlets" : 1,
					"numoutlets" : 1,
					"outlettype" : [ "" ],
					"patching_rect" : [ 621.0, 327.5, 63.0, 20.0 ],
					"text" : "pvar qfact"
				}

			}
, 			{
				"box" : 				{
					"edit_mode" : 1,
					"frozen_box_attributes" : [ "edit_mode" ],
					"id" : "obj-32",
					"maxclass" : "filtergraph~",
					"nfilters" : 1,
					"numinlets" : 8,
					"numoutlets" : 7,
					"outlettype" : [ "list", "float", "float", "float", "float", "list", "int" ],
					"parameter_enable" : 0,
					"patching_rect" : [ 424.75, 371.0, 259.25, 158.0 ],
					"setfilter" : [ 0, 1, 1, 0, 0, 778.220398, 1.0, 6.0, 0.0, 0.0, 0.0, 0.0, 0.0, 0.0 ]
				}

			}
, 			{
				"box" : 				{
					"floatoutput" : 1,
					"id" : "obj-6",
					"maxclass" : "dial",
					"numinlets" : 1,
					"numoutlets" : 1,
					"outlettype" : [ "float" ],
					"parameter_enable" : 0,
					"patching_rect" : [ 317.75, 427.0, 102.0, 102.0 ],
					"size" : 1.0
				}

			}
, 			{
				"box" : 				{
					"color" : [ 0.839216, 0.537243, 0.138049, 1.0 ],
					"fontname" : "Arial",
					"fontsize" : 12.0,
					"id" : "obj-53",
					"maxclass" : "newobj",
					"numinlets" : 1,
					"numoutlets" : 1,
					"outlettype" : [ "" ],
					"patching_rect" : [ 253.0, 4.0, 64.0, 20.0 ],
					"text" : "pvar onoff"
				}

			}
, 			{
				"box" : 				{
					"fontname" : "Arial",
					"fontsize" : 12.0,
					"frgb" : 0.0,
					"id" : "obj-52",
					"maxclass" : "comment",
					"numinlets" : 1,
					"numoutlets" : 0,
					"patching_rect" : [ 596.75, 173.0, 57.0, 20.0 ],
					"text" : "Q factor"
				}

			}
, 			{
				"box" : 				{
					"color" : [ 0.839216, 0.537243, 0.138049, 1.0 ],
					"fontname" : "Arial",
					"fontsize" : 12.0,
					"id" : "obj-48",
					"maxclass" : "newobj",
					"numinlets" : 1,
					"numoutlets" : 1,
					"outlettype" : [ "" ],
					"patching_rect" : [ 155.250031, 302.0, 63.0, 20.0 ],
					"text" : "pvar qfact"
				}

			}
, 			{
				"box" : 				{
					"color" : [ 0.839216, 0.537243, 0.138049, 1.0 ],
					"fontname" : "Arial",
					"fontsize" : 12.0,
					"id" : "obj-47",
					"maxclass" : "newobj",
					"numinlets" : 1,
					"numoutlets" : 1,
					"outlettype" : [ "" ],
					"patching_rect" : [ 287.75, 239.0, 74.0, 20.0 ],
					"text" : "pvar envdur"
				}

			}
, 			{
				"box" : 				{
					"fontname" : "Arial",
					"fontsize" : 12.0,
					"frgb" : 0.0,
					"id" : "obj-46",
					"linecount" : 2,
					"maxclass" : "comment",
					"numinlets" : 1,
					"numoutlets" : 0,
					"patching_rect" : [ 559.75, 219.0, 64.0, 33.0 ],
					"text" : "envelope duration"
				}

			}
, 			{
				"box" : 				{
					"fontname" : "Arial",
					"fontsize" : 12.0,
					"frgb" : 0.0,
					"id" : "obj-44",
					"maxclass" : "comment",
					"numinlets" : 1,
					"numoutlets" : 0,
					"patching_rect" : [ 316.100006, 210.0, 87.0, 20.0 ],
					"text" : "tempo division"
				}

			}
, 			{
				"box" : 				{
					"fontname" : "Arial",
					"fontsize" : 12.0,
					"frgb" : 0.0,
					"id" : "obj-40",
					"maxclass" : "comment",
					"numinlets" : 1,
					"numoutlets" : 0,
					"patching_rect" : [ 462.0, 5.0, 96.0, 20.0 ],
					"text" : "list length"
				}

			}
, 			{
				"box" : 				{
					"fontname" : "Arial",
					"fontsize" : 12.0,
					"frgb" : 0.0,
					"id" : "obj-33",
					"maxclass" : "comment",
					"numinlets" : 1,
					"numoutlets" : 0,
					"patching_rect" : [ 509.0, 44.0, 88.0, 20.0 ],
					"text" : "division list"
				}

			}
, 			{
				"box" : 				{
					"fontname" : "Arial",
					"fontsize" : 12.0,
					"frgb" : 0.0,
					"id" : "obj-30",
					"maxclass" : "comment",
					"numinlets" : 1,
					"numoutlets" : 0,
					"patching_rect" : [ 473.0, 231.0, 68.0, 20.0 ],
					"text" : "metro rate"
				}

			}
, 			{
				"box" : 				{
					"color" : [ 0.839216, 0.537243, 0.138049, 1.0 ],
					"fontname" : "Arial",
					"fontsize" : 12.0,
					"id" : "obj-29",
					"maxclass" : "newobj",
					"numinlets" : 1,
					"numoutlets" : 1,
					"outlettype" : [ "" ],
					"patching_rect" : [ 280.25, 26.0, 89.0, 20.0 ],
					"text" : "pvar metrorate"
				}

			}
, 			{
				"box" : 				{
					"fontname" : "Arial",
					"fontsize" : 12.0,
					"frgb" : 0.0,
					"id" : "obj-28",
					"maxclass" : "comment",
					"numinlets" : 1,
					"numoutlets" : 0,
					"patching_rect" : [ 513.75, 173.0, 68.0, 20.0 ],
					"text" : "max lp freq"
				}

			}
, 			{
				"box" : 				{
					"color" : [ 0.839216, 0.537243, 0.138049, 1.0 ],
					"fontname" : "Arial",
					"fontsize" : 12.0,
					"id" : "obj-24",
					"maxclass" : "newobj",
					"numinlets" : 1,
					"numoutlets" : 1,
					"outlettype" : [ "" ],
					"patching_rect" : [ 120.166664, 198.0, 90.0, 20.0 ],
					"text" : "pvar maxlpfreq"
				}

			}
, 			{
				"box" : 				{
					"fontname" : "Arial",
					"fontsize" : 12.0,
					"frgb" : 0.0,
					"id" : "obj-18",
					"maxclass" : "comment",
					"numinlets" : 1,
					"numoutlets" : 0,
					"patching_rect" : [ 436.0, 173.0, 68.0, 20.0 ],
					"text" : "min lp freq"
				}

			}
, 			{
				"box" : 				{
					"color" : [ 0.839216, 0.537243, 0.138049, 1.0 ],
					"fontname" : "Arial",
					"fontsize" : 12.0,
					"id" : "obj-11",
					"maxclass" : "newobj",
					"numinlets" : 1,
					"numoutlets" : 1,
					"outlettype" : [ "" ],
					"patching_rect" : [ 94.0, 148.0, 87.0, 20.0 ],
					"text" : "pvar minlpfreq"
				}

			}
, 			{
				"box" : 				{
					"fontname" : "Arial",
					"fontsize" : 12.0,
					"id" : "obj-2",
					"maxclass" : "newobj",
					"numinlets" : 1,
					"numoutlets" : 2,
					"outlettype" : [ "", "bang" ],
					"patching_rect" : [ 307.5, 55.0, 73.5, 20.0 ],
					"text" : "t l b"
				}

			}
, 			{
				"box" : 				{
					"fontname" : "Arial",
					"fontsize" : 12.0,
					"id" : "obj-49",
					"maxclass" : "newobj",
					"numinlets" : 2,
					"numoutlets" : 2,
					"outlettype" : [ "signal", "signal" ],
					"patcher" : 					{
						"fileversion" : 1,
						"appversion" : 						{
							"major" : 6,
							"minor" : 1,
							"revision" : 3,
							"architecture" : "x86"
						}
,
						"rect" : [ 549.0, 381.0, 356.0, 235.0 ],
						"bglocked" : 0,
						"openinpresentation" : 0,
						"default_fontsize" : 12.0,
						"default_fontface" : 0,
						"default_fontname" : "Arial",
						"gridonopen" : 0,
						"gridsize" : [ 15.0, 15.0 ],
						"gridsnaponopen" : 0,
						"statusbarvisible" : 2,
						"toolbarvisible" : 1,
						"boxanimatetime" : 200,
						"imprint" : 0,
						"enablehscroll" : 1,
						"enablevscroll" : 1,
						"devicewidth" : 0.0,
						"description" : "",
						"digest" : "",
						"tags" : "",
						"boxes" : [ 							{
								"box" : 								{
									"comment" : "",
									"id" : "obj-9",
									"maxclass" : "inlet",
									"numinlets" : 0,
									"numoutlets" : 1,
									"outlettype" : [ "signal" ],
									"patching_rect" : [ 78.437561, 36.0, 25.0, 25.0 ]
								}

							}
, 							{
								"box" : 								{
									"comment" : "",
									"id" : "obj-8",
									"maxclass" : "inlet",
									"numinlets" : 0,
									"numoutlets" : 1,
									"outlettype" : [ "signal" ],
									"patching_rect" : [ 21.750061, 36.0, 25.0, 25.0 ]
								}

							}
, 							{
								"box" : 								{
									"comment" : "",
									"id" : "obj-5",
									"maxclass" : "outlet",
									"numinlets" : 1,
									"numoutlets" : 0,
									"patching_rect" : [ 248.500061, 202.0, 25.0, 25.0 ]
								}

							}
, 							{
								"box" : 								{
									"comment" : "",
									"id" : "obj-4",
									"maxclass" : "outlet",
									"numinlets" : 1,
									"numoutlets" : 0,
									"patching_rect" : [ 21.750061, 202.0, 25.0, 25.0 ]
								}

							}
, 							{
								"box" : 								{
									"fontname" : "Arial",
									"fontsize" : 12.0,
									"id" : "obj-2",
									"maxclass" : "newobj",
									"numinlets" : 1,
									"numoutlets" : 3,
									"outlettype" : [ "float", "float", "float" ],
									"patching_rect" : [ 206.500061, 49.0, 89.0, 20.0 ],
									"text" : "unpack 0. 0. 0."
								}

							}
, 							{
								"box" : 								{
									"fontname" : "Arial",
									"fontsize" : 12.0,
									"id" : "obj-1",
									"maxclass" : "newobj",
									"numinlets" : 1,
									"numoutlets" : 1,
									"outlettype" : [ "" ],
									"patching_rect" : [ 206.500061, 21.0, 129.0, 20.0 ],
									"text" : "loadmess 2.5 500 -0.1"
								}

							}
, 							{
								"box" : 								{
									"fontname" : "Arial",
									"fontsize" : 12.0,
									"frgb" : 0.0,
									"id" : "obj-12",
									"maxclass" : "comment",
									"numinlets" : 1,
									"numoutlets" : 0,
									"patching_rect" : [ 248.500061, 99.5, 45.0, 20.0 ],
									"text" : "ceiling"
								}

							}
, 							{
								"box" : 								{
									"fontname" : "Arial",
									"fontsize" : 12.0,
									"id" : "obj-13",
									"maxclass" : "flonum",
									"maximum" : 0.0,
									"numinlets" : 1,
									"numoutlets" : 2,
									"outlettype" : [ "float", "bang" ],
									"parameter_enable" : 0,
									"patching_rect" : [ 248.500061, 119.5, 53.0, 20.0 ],
									"varname" : "release[3]"
								}

							}
, 							{
								"box" : 								{
									"fontname" : "Arial",
									"fontsize" : 12.0,
									"frgb" : 0.0,
									"id" : "obj-11",
									"linecount" : 2,
									"maxclass" : "comment",
									"numinlets" : 1,
									"numoutlets" : 0,
									"patching_rect" : [ 134.500061, 85.5, 42.0, 34.0 ],
									"text" : "look- ahead"
								}

							}
, 							{
								"box" : 								{
									"fontname" : "Arial",
									"fontsize" : 12.0,
									"id" : "obj-7",
									"maxclass" : "flonum",
									"maximum" : 6.0,
									"minimum" : 0.0,
									"numinlets" : 1,
									"numoutlets" : 2,
									"outlettype" : [ "float", "bang" ],
									"parameter_enable" : 0,
									"patching_rect" : [ 134.500061, 119.5, 44.625183, 20.0 ],
									"varname" : "release[2]"
								}

							}
, 							{
								"box" : 								{
									"fontname" : "Arial",
									"fontsize" : 12.0,
									"id" : "obj-108",
									"maxclass" : "newobj",
									"numinlets" : 5,
									"numoutlets" : 2,
									"outlettype" : [ "signal", "signal" ],
									"patcher" : 									{
										"fileversion" : 1,
										"appversion" : 										{
											"major" : 6,
											"minor" : 1,
											"revision" : 3,
											"architecture" : "x86"
										}
,
										"rect" : [ 527.0, 44.0, 341.0, 363.0 ],
										"bglocked" : 0,
										"openinpresentation" : 0,
										"default_fontsize" : 12.0,
										"default_fontface" : 0,
										"default_fontname" : "Arial",
										"gridonopen" : 0,
										"gridsize" : [ 15.0, 15.0 ],
										"gridsnaponopen" : 0,
										"statusbarvisible" : 2,
										"toolbarvisible" : 1,
										"boxanimatetime" : 200,
										"imprint" : 0,
										"enablehscroll" : 1,
										"enablevscroll" : 1,
										"devicewidth" : 0.0,
										"description" : "",
										"digest" : "",
										"tags" : "",
										"boxes" : [ 											{
												"box" : 												{
													"fontname" : "Arial",
													"fontsize" : 12.0,
													"frgb" : 0.0,
													"id" : "obj-7",
													"maxclass" : "comment",
													"numinlets" : 1,
													"numoutlets" : 0,
													"patching_rect" : [ 293.5, 7.0, 42.0, 20.0 ],
													"text" : "ceilng"
												}

											}
, 											{
												"box" : 												{
													"fontname" : "Arial",
													"fontsize" : 12.0,
													"frgb" : 0.0,
													"id" : "obj-6",
													"maxclass" : "comment",
													"numinlets" : 1,
													"numoutlets" : 0,
													"patching_rect" : [ 223.0, 7.0, 50.0, 20.0 ],
													"text" : "release"
												}

											}
, 											{
												"box" : 												{
													"fontname" : "Arial",
													"fontsize" : 12.0,
													"frgb" : 0.0,
													"id" : "obj-5",
													"linecount" : 2,
													"maxclass" : "comment",
													"numinlets" : 1,
													"numoutlets" : 0,
													"patching_rect" : [ 119.0, 7.0, 44.0, 34.0 ],
													"text" : "look- ahead"
												}

											}
, 											{
												"box" : 												{
													"fontname" : "Arial",
													"fontsize" : 12.0,
													"id" : "obj-59",
													"maxclass" : "newobj",
													"numinlets" : 2,
													"numoutlets" : 2,
													"outlettype" : [ "signal", "signal" ],
													"patcher" : 													{
														"fileversion" : 1,
														"appversion" : 														{
															"major" : 6,
															"minor" : 1,
															"revision" : 3,
															"architecture" : "x86"
														}
,
														"rect" : [ 574.0, 322.0, 141.0, 266.0 ],
														"bglocked" : 0,
														"openinpresentation" : 0,
														"default_fontsize" : 12.0,
														"default_fontface" : 0,
														"default_fontname" : "Arial",
														"gridonopen" : 0,
														"gridsize" : [ 15.0, 15.0 ],
														"gridsnaponopen" : 0,
														"statusbarvisible" : 2,
														"toolbarvisible" : 1,
														"boxanimatetime" : 200,
														"imprint" : 0,
														"enablehscroll" : 1,
														"enablevscroll" : 1,
														"devicewidth" : 0.0,
														"description" : "",
														"digest" : "",
														"tags" : "",
														"boxes" : [ 															{
																"box" : 																{
																	"fontname" : "Arial",
																	"fontsize" : 12.0,
																	"frgb" : 0.0,
																	"id" : "obj-5",
																	"maxclass" : "comment",
																	"numinlets" : 1,
																	"numoutlets" : 0,
																	"patching_rect" : [ 6.0, 13.0, 59.0, 20.0 ],
																	"text" : "envelope"
																}

															}
, 															{
																"box" : 																{
																	"fontname" : "Arial",
																	"fontsize" : 12.0,
																	"frgb" : 0.0,
																	"id" : "obj-4",
																	"maxclass" : "comment",
																	"numinlets" : 1,
																	"numoutlets" : 0,
																	"patching_rect" : [ 95.75, 13.0, 45.0, 20.0 ],
																	"text" : "ceiling"
																}

															}
, 															{
																"box" : 																{
																	"fontname" : "Arial",
																	"fontsize" : 12.0,
																	"id" : "obj-2",
																	"maxclass" : "newobj",
																	"numinlets" : 2,
																	"numoutlets" : 1,
																	"outlettype" : [ "signal" ],
																	"patching_rect" : [ 16.0, 129.0, 36.0, 20.0 ],
																	"text" : "*~ -1"
																}

															}
, 															{
																"box" : 																{
																	"fontname" : "Arial",
																	"fontsize" : 12.0,
																	"id" : "obj-1",
																	"maxclass" : "newobj",
																	"numinlets" : 2,
																	"numoutlets" : 1,
																	"outlettype" : [ "signal" ],
																	"patching_rect" : [ 16.0, 71.0, 32.5, 20.0 ],
																	"text" : "-~"
																}

															}
, 															{
																"box" : 																{
																	"fontname" : "Arial",
																	"fontsize" : 12.0,
																	"id" : "obj-28",
																	"maxclass" : "newobj",
																	"numinlets" : 2,
																	"numoutlets" : 1,
																	"outlettype" : [ "signal" ],
																	"patching_rect" : [ 16.0, 100.0, 80.0, 20.0 ],
																	"text" : "maximum~ 0"
																}

															}
, 															{
																"box" : 																{
																	"fontname" : "Arial",
																	"fontsize" : 12.0,
																	"id" : "obj-6",
																	"maxclass" : "newobj",
																	"numinlets" : 1,
																	"numoutlets" : 1,
																	"outlettype" : [ "signal" ],
																	"patching_rect" : [ 16.0, 197.0, 48.0, 20.0 ],
																	"text" : "dbtoa~"
																}

															}
, 															{
																"box" : 																{
																	"comment" : "",
																	"id" : "obj-55",
																	"maxclass" : "inlet",
																	"numinlets" : 0,
																	"numoutlets" : 1,
																	"outlettype" : [ "signal" ],
																	"patching_rect" : [ 16.0, 33.0, 25.0, 25.0 ]
																}

															}
, 															{
																"box" : 																{
																	"comment" : "",
																	"id" : "obj-56",
																	"maxclass" : "inlet",
																	"numinlets" : 0,
																	"numoutlets" : 1,
																	"outlettype" : [ "float" ],
																	"patching_rect" : [ 105.75, 33.0, 25.0, 25.0 ]
																}

															}
, 															{
																"box" : 																{
																	"comment" : "",
																	"id" : "obj-57",
																	"maxclass" : "outlet",
																	"numinlets" : 1,
																	"numoutlets" : 0,
																	"patching_rect" : [ 71.0, 197.0, 25.0, 25.0 ]
																}

															}
, 															{
																"box" : 																{
																	"comment" : "",
																	"id" : "obj-58",
																	"maxclass" : "outlet",
																	"numinlets" : 1,
																	"numoutlets" : 0,
																	"patching_rect" : [ 16.0, 234.0, 25.0, 25.0 ]
																}

															}
 ],
														"lines" : [ 															{
																"patchline" : 																{
																	"destination" : [ "obj-28", 0 ],
																	"disabled" : 0,
																	"hidden" : 0,
																	"source" : [ "obj-1", 0 ]
																}

															}
, 															{
																"patchline" : 																{
																	"destination" : [ "obj-57", 0 ],
																	"disabled" : 0,
																	"hidden" : 0,
																	"source" : [ "obj-2", 0 ]
																}

															}
, 															{
																"patchline" : 																{
																	"destination" : [ "obj-6", 0 ],
																	"disabled" : 0,
																	"hidden" : 0,
																	"source" : [ "obj-2", 0 ]
																}

															}
, 															{
																"patchline" : 																{
																	"destination" : [ "obj-2", 0 ],
																	"disabled" : 0,
																	"hidden" : 0,
																	"source" : [ "obj-28", 0 ]
																}

															}
, 															{
																"patchline" : 																{
																	"destination" : [ "obj-1", 0 ],
																	"disabled" : 0,
																	"hidden" : 0,
																	"source" : [ "obj-55", 0 ]
																}

															}
, 															{
																"patchline" : 																{
																	"destination" : [ "obj-1", 1 ],
																	"disabled" : 0,
																	"hidden" : 0,
																	"source" : [ "obj-56", 0 ]
																}

															}
, 															{
																"patchline" : 																{
																	"destination" : [ "obj-58", 0 ],
																	"disabled" : 0,
																	"hidden" : 0,
																	"source" : [ "obj-6", 0 ]
																}

															}
 ]
													}
,
													"patching_rect" : [ 110.0, 250.0, 211.0, 20.0 ],
													"saved_object_attributes" : 													{
														"default_fontface" : 0,
														"default_fontname" : "Arial",
														"default_fontsize" : 12.0,
														"description" : "",
														"digest" : "",
														"fontface" : 0,
														"fontname" : "Arial",
														"fontsize" : 12.0,
														"globalpatchername" : "",
														"tags" : ""
													}
,
													"text" : "p limiting"
												}

											}
, 											{
												"box" : 												{
													"fontname" : "Arial",
													"fontsize" : 12.0,
													"id" : "obj-54",
													"maxclass" : "newobj",
													"numinlets" : 3,
													"numoutlets" : 1,
													"outlettype" : [ "signal" ],
													"patcher" : 													{
														"fileversion" : 1,
														"appversion" : 														{
															"major" : 6,
															"minor" : 1,
															"revision" : 3,
															"architecture" : "x86"
														}
,
														"rect" : [ 150.0, 367.0, 263.0, 239.0 ],
														"bglocked" : 0,
														"openinpresentation" : 0,
														"default_fontsize" : 12.0,
														"default_fontface" : 0,
														"default_fontname" : "Arial",
														"gridonopen" : 0,
														"gridsize" : [ 15.0, 15.0 ],
														"gridsnaponopen" : 0,
														"statusbarvisible" : 2,
														"toolbarvisible" : 1,
														"boxanimatetime" : 200,
														"imprint" : 0,
														"enablehscroll" : 1,
														"enablevscroll" : 1,
														"devicewidth" : 0.0,
														"description" : "",
														"digest" : "",
														"tags" : "",
														"boxes" : [ 															{
																"box" : 																{
																	"fontname" : "Arial",
																	"fontsize" : 12.0,
																	"frgb" : 0.0,
																	"id" : "obj-5",
																	"maxclass" : "comment",
																	"numinlets" : 1,
																	"numoutlets" : 0,
																	"patching_rect" : [ 159.0, 5.0, 70.0, 20.0 ],
																	"text" : "look-ahead"
																}

															}
, 															{
																"box" : 																{
																	"fontname" : "Arial",
																	"fontsize" : 12.0,
																	"frgb" : 0.0,
																	"id" : "obj-4",
																	"maxclass" : "comment",
																	"numinlets" : 1,
																	"numoutlets" : 0,
																	"patching_rect" : [ 82.5, 5.0, 50.0, 20.0 ],
																	"text" : "release"
																}

															}
, 															{
																"box" : 																{
																	"fontname" : "Arial",
																	"fontsize" : 12.0,
																	"frgb" : 0.0,
																	"id" : "obj-2",
																	"maxclass" : "comment",
																	"numinlets" : 1,
																	"numoutlets" : 0,
																	"patching_rect" : [ 11.5, 5.0, 37.0, 20.0 ],
																	"text" : "peak"
																}

															}
, 															{
																"box" : 																{
																	"fontname" : "Arial",
																	"fontsize" : 12.0,
																	"id" : "obj-11",
																	"maxclass" : "newobj",
																	"numinlets" : 3,
																	"numoutlets" : 1,
																	"outlettype" : [ "signal" ],
																	"patcher" : 																	{
																		"fileversion" : 1,
																		"appversion" : 																		{
																			"major" : 6,
																			"minor" : 1,
																			"revision" : 3,
																			"architecture" : "x86"
																		}
,
																		"rect" : [ 331.0, 68.0, 200.0, 310.0 ],
																		"bglocked" : 0,
																		"openinpresentation" : 0,
																		"default_fontsize" : 12.0,
																		"default_fontface" : 0,
																		"default_fontname" : "Arial",
																		"gridonopen" : 0,
																		"gridsize" : [ 15.0, 15.0 ],
																		"gridsnaponopen" : 0,
																		"statusbarvisible" : 2,
																		"toolbarvisible" : 1,
																		"boxanimatetime" : 200,
																		"imprint" : 0,
																		"enablehscroll" : 1,
																		"enablevscroll" : 1,
																		"devicewidth" : 0.0,
																		"description" : "",
																		"digest" : "",
																		"tags" : "",
																		"boxes" : [ 																			{
																				"box" : 																				{
																					"fontname" : "Arial",
																					"fontsize" : 12.0,
																					"frgb" : 0.0,
																					"id" : "obj-4",
																					"linecount" : 3,
																					"maxclass" : "comment",
																					"numinlets" : 1,
																					"numoutlets" : 0,
																					"patching_rect" : [ 149.5, 5.0, 45.0, 48.0 ],
																					"text" : "look- ahead time"
																				}

																			}
, 																			{
																				"box" : 																				{
																					"fontname" : "Arial",
																					"fontsize" : 12.0,
																					"frgb" : 0.0,
																					"id" : "obj-3",
																					"linecount" : 2,
																					"maxclass" : "comment",
																					"numinlets" : 1,
																					"numoutlets" : 0,
																					"patching_rect" : [ 65.5, 5.0, 59.0, 34.0 ],
																					"text" : "inviluppo realtime"
																				}

																			}
, 																			{
																				"box" : 																				{
																					"fontname" : "Arial",
																					"fontsize" : 12.0,
																					"frgb" : 0.0,
																					"id" : "obj-2",
																					"linecount" : 2,
																					"maxclass" : "comment",
																					"numinlets" : 1,
																					"numoutlets" : 0,
																					"patching_rect" : [ 5.0, 5.0, 60.5, 34.0 ],
																					"text" : "inviluppo ritardato"
																				}

																			}
, 																			{
																				"box" : 																				{
																					"fontname" : "Arial",
																					"fontsize" : 12.0,
																					"id" : "obj-25",
																					"maxclass" : "newobj",
																					"numinlets" : 2,
																					"numoutlets" : 1,
																					"outlettype" : [ "signal" ],
																					"patching_rect" : [ 58.5, 246.169922, 32.5, 20.0 ],
																					"text" : "+~"
																				}

																			}
, 																			{
																				"box" : 																				{
																					"fontname" : "Arial",
																					"fontsize" : 12.0,
																					"id" : "obj-23",
																					"maxclass" : "newobj",
																					"numinlets" : 2,
																					"numoutlets" : 1,
																					"outlettype" : [ "signal" ],
																					"patching_rect" : [ 5.0, 205.169922, 32.5, 20.0 ],
																					"text" : "*~"
																				}

																			}
, 																			{
																				"box" : 																				{
																					"fontname" : "Arial",
																					"fontsize" : 12.0,
																					"id" : "obj-22",
																					"maxclass" : "newobj",
																					"numinlets" : 2,
																					"numoutlets" : 1,
																					"outlettype" : [ "signal" ],
																					"patching_rect" : [ 18.5, 175.169922, 35.0, 20.0 ],
																					"text" : "!-~ 1"
																				}

																			}
, 																			{
																				"box" : 																				{
																					"fontname" : "Arial",
																					"fontsize" : 12.0,
																					"id" : "obj-21",
																					"maxclass" : "newobj",
																					"numinlets" : 2,
																					"numoutlets" : 1,
																					"outlettype" : [ "signal" ],
																					"patching_rect" : [ 90.5, 205.169922, 32.5, 20.0 ],
																					"text" : "*~"
																				}

																			}
, 																			{
																				"box" : 																				{
																					"fontname" : "Arial",
																					"fontsize" : 12.0,
																					"id" : "obj-20",
																					"maxclass" : "newobj",
																					"numinlets" : 3,
																					"numoutlets" : 1,
																					"outlettype" : [ "signal" ],
																					"patching_rect" : [ 51.0, 130.169922, 139.0, 20.0 ],
																					"text" : "rampsmooth~ 0 0"
																				}

																			}
, 																			{
																				"box" : 																				{
																					"fontname" : "Arial",
																					"fontsize" : 12.0,
																					"id" : "obj-19",
																					"maxclass" : "newobj",
																					"numinlets" : 2,
																					"numoutlets" : 1,
																					"outlettype" : [ "signal" ],
																					"patching_rect" : [ 51.0, 96.169922, 32.5, 20.0 ],
																					"text" : "<~"
																				}

																			}
, 																			{
																				"box" : 																				{
																					"comment" : "",
																					"id" : "obj-7",
																					"maxclass" : "inlet",
																					"numinlets" : 0,
																					"numoutlets" : 1,
																					"outlettype" : [ "signal" ],
																					"patching_rect" : [ 5.0, 39.0, 25.0, 25.0 ],
																					"varname" : "u952002304"
																				}

																			}
, 																			{
																				"box" : 																				{
																					"comment" : "",
																					"id" : "obj-8",
																					"maxclass" : "inlet",
																					"numinlets" : 0,
																					"numoutlets" : 1,
																					"outlettype" : [ "signal" ],
																					"patching_rect" : [ 79.5, 39.0, 25.0, 25.0 ],
																					"varname" : "u693002305"
																				}

																			}
, 																			{
																				"box" : 																				{
																					"comment" : "",
																					"id" : "obj-9",
																					"maxclass" : "inlet",
																					"numinlets" : 0,
																					"numoutlets" : 1,
																					"outlettype" : [ "int" ],
																					"patching_rect" : [ 157.0, 53.0, 25.0, 25.0 ],
																					"varname" : "u166002306"
																				}

																			}
, 																			{
																				"box" : 																				{
																					"comment" : "",
																					"id" : "obj-10",
																					"maxclass" : "outlet",
																					"numinlets" : 1,
																					"numoutlets" : 0,
																					"patching_rect" : [ 58.5, 278.169922, 25.0, 25.0 ],
																					"varname" : "u338002307"
																				}

																			}
 ],
																		"lines" : [ 																			{
																				"patchline" : 																				{
																					"destination" : [ "obj-20", 0 ],
																					"disabled" : 0,
																					"hidden" : 0,
																					"source" : [ "obj-19", 0 ]
																				}

																			}
, 																			{
																				"patchline" : 																				{
																					"destination" : [ "obj-21", 0 ],
																					"disabled" : 0,
																					"hidden" : 0,
																					"source" : [ "obj-20", 0 ]
																				}

																			}
, 																			{
																				"patchline" : 																				{
																					"destination" : [ "obj-22", 0 ],
																					"disabled" : 0,
																					"hidden" : 0,
																					"source" : [ "obj-20", 0 ]
																				}

																			}
, 																			{
																				"patchline" : 																				{
																					"destination" : [ "obj-25", 1 ],
																					"disabled" : 0,
																					"hidden" : 0,
																					"source" : [ "obj-21", 0 ]
																				}

																			}
, 																			{
																				"patchline" : 																				{
																					"destination" : [ "obj-23", 1 ],
																					"disabled" : 0,
																					"hidden" : 0,
																					"source" : [ "obj-22", 0 ]
																				}

																			}
, 																			{
																				"patchline" : 																				{
																					"destination" : [ "obj-25", 0 ],
																					"disabled" : 0,
																					"hidden" : 0,
																					"source" : [ "obj-23", 0 ]
																				}

																			}
, 																			{
																				"patchline" : 																				{
																					"destination" : [ "obj-10", 0 ],
																					"disabled" : 0,
																					"hidden" : 0,
																					"source" : [ "obj-25", 0 ]
																				}

																			}
, 																			{
																				"patchline" : 																				{
																					"destination" : [ "obj-19", 0 ],
																					"disabled" : 0,
																					"hidden" : 0,
																					"source" : [ "obj-7", 0 ]
																				}

																			}
, 																			{
																				"patchline" : 																				{
																					"destination" : [ "obj-23", 0 ],
																					"disabled" : 0,
																					"hidden" : 0,
																					"source" : [ "obj-7", 0 ]
																				}

																			}
, 																			{
																				"patchline" : 																				{
																					"destination" : [ "obj-19", 1 ],
																					"disabled" : 0,
																					"hidden" : 0,
																					"source" : [ "obj-8", 0 ]
																				}

																			}
, 																			{
																				"patchline" : 																				{
																					"destination" : [ "obj-21", 1 ],
																					"disabled" : 0,
																					"hidden" : 0,
																					"source" : [ "obj-8", 0 ]
																				}

																			}
, 																			{
																				"patchline" : 																				{
																					"destination" : [ "obj-20", 1 ],
																					"disabled" : 0,
																					"hidden" : 0,
																					"source" : [ "obj-9", 0 ]
																				}

																			}
 ]
																	}
,
																	"patching_rect" : [ 10.0, 157.830078, 238.0, 20.0 ],
																	"saved_object_attributes" : 																	{
																		"default_fontface" : 0,
																		"default_fontname" : "Arial",
																		"default_fontsize" : 12.0,
																		"description" : "",
																		"digest" : "",
																		"fontface" : 0,
																		"fontname" : "Arial",
																		"fontsize" : 12.0,
																		"globalpatchername" : "",
																		"tags" : ""
																	}
,
																	"text" : "p x_solve"
																}

															}
, 															{
																"box" : 																{
																	"fontname" : "Arial",
																	"fontsize" : 12.0,
																	"id" : "obj-15",
																	"maxclass" : "newobj",
																	"numinlets" : 2,
																	"numoutlets" : 1,
																	"outlettype" : [ "signal" ],
																	"patching_rect" : [ 10.0, 124.0, 86.0, 20.0 ],
																	"text" : "delay~ 1000 0"
																}

															}
, 															{
																"box" : 																{
																	"fontname" : "Arial",
																	"fontsize" : 12.0,
																	"id" : "obj-32",
																	"maxclass" : "newobj",
																	"numinlets" : 3,
																	"numoutlets" : 1,
																	"outlettype" : [ "signal" ],
																	"patching_rect" : [ 10.0, 64.0, 104.0, 20.0 ],
																	"text" : "rampsmooth~ 0 0"
																}

															}
, 															{
																"box" : 																{
																	"comment" : "",
																	"id" : "obj-50",
																	"maxclass" : "inlet",
																	"numinlets" : 0,
																	"numoutlets" : 1,
																	"outlettype" : [ "int" ],
																	"patching_rect" : [ 229.0, 5.0, 25.0, 25.0 ]
																}

															}
, 															{
																"box" : 																{
																	"comment" : "",
																	"id" : "obj-51",
																	"maxclass" : "inlet",
																	"numinlets" : 0,
																	"numoutlets" : 1,
																	"outlettype" : [ "signal" ],
																	"patching_rect" : [ 47.5, 5.0, 25.0, 25.0 ]
																}

															}
, 															{
																"box" : 																{
																	"comment" : "",
																	"id" : "obj-52",
																	"maxclass" : "inlet",
																	"numinlets" : 0,
																	"numoutlets" : 1,
																	"outlettype" : [ "float" ],
																	"patching_rect" : [ 132.5, 5.0, 25.0, 25.0 ]
																}

															}
, 															{
																"box" : 																{
																	"comment" : "",
																	"id" : "obj-53",
																	"maxclass" : "outlet",
																	"numinlets" : 1,
																	"numoutlets" : 0,
																	"patching_rect" : [ 10.0, 210.0, 25.0, 25.0 ]
																}

															}
 ],
														"lines" : [ 															{
																"patchline" : 																{
																	"destination" : [ "obj-53", 0 ],
																	"disabled" : 0,
																	"hidden" : 0,
																	"source" : [ "obj-11", 0 ]
																}

															}
, 															{
																"patchline" : 																{
																	"destination" : [ "obj-11", 0 ],
																	"disabled" : 0,
																	"hidden" : 0,
																	"source" : [ "obj-15", 0 ]
																}

															}
, 															{
																"patchline" : 																{
																	"destination" : [ "obj-11", 1 ],
																	"disabled" : 0,
																	"hidden" : 0,
																	"midpoints" : [ 19.5, 99.415039, 129.0, 99.415039 ],
																	"source" : [ "obj-32", 0 ]
																}

															}
, 															{
																"patchline" : 																{
																	"destination" : [ "obj-15", 0 ],
																	"disabled" : 0,
																	"hidden" : 0,
																	"source" : [ "obj-32", 0 ]
																}

															}
, 															{
																"patchline" : 																{
																	"destination" : [ "obj-11", 2 ],
																	"disabled" : 0,
																	"hidden" : 0,
																	"source" : [ "obj-50", 0 ]
																}

															}
, 															{
																"patchline" : 																{
																	"destination" : [ "obj-15", 1 ],
																	"disabled" : 0,
																	"hidden" : 0,
																	"midpoints" : [ 238.5, 109.5, 86.5, 109.5 ],
																	"source" : [ "obj-50", 0 ]
																}

															}
, 															{
																"patchline" : 																{
																	"destination" : [ "obj-32", 0 ],
																	"disabled" : 0,
																	"hidden" : 0,
																	"source" : [ "obj-51", 0 ]
																}

															}
, 															{
																"patchline" : 																{
																	"destination" : [ "obj-32", 2 ],
																	"disabled" : 0,
																	"hidden" : 0,
																	"source" : [ "obj-52", 0 ]
																}

															}
 ]
													}
,
													"patching_rect" : [ 110.0, 220.0, 132.0, 20.0 ],
													"saved_object_attributes" : 													{
														"default_fontface" : 0,
														"default_fontname" : "Arial",
														"default_fontsize" : 12.0,
														"description" : "",
														"digest" : "",
														"fontface" : 0,
														"fontname" : "Arial",
														"fontsize" : 12.0,
														"globalpatchername" : "",
														"tags" : ""
													}
,
													"text" : "p peak_follow"
												}

											}
, 											{
												"box" : 												{
													"fontname" : "Arial",
													"fontsize" : 12.0,
													"id" : "obj-49",
													"maxclass" : "newobj",
													"numinlets" : 2,
													"numoutlets" : 2,
													"outlettype" : [ "signal", "signal" ],
													"patcher" : 													{
														"fileversion" : 1,
														"appversion" : 														{
															"major" : 6,
															"minor" : 1,
															"revision" : 3,
															"architecture" : "x86"
														}
,
														"rect" : [ 27.0, 362.0, 110.0, 214.0 ],
														"bglocked" : 0,
														"openinpresentation" : 0,
														"default_fontsize" : 12.0,
														"default_fontface" : 0,
														"default_fontname" : "Arial",
														"gridonopen" : 0,
														"gridsize" : [ 15.0, 15.0 ],
														"gridsnaponopen" : 0,
														"statusbarvisible" : 2,
														"toolbarvisible" : 1,
														"boxanimatetime" : 200,
														"imprint" : 0,
														"enablehscroll" : 1,
														"enablevscroll" : 1,
														"devicewidth" : 0.0,
														"description" : "",
														"digest" : "",
														"tags" : "",
														"boxes" : [ 															{
																"box" : 																{
																	"fontname" : "Arial",
																	"fontsize" : 12.0,
																	"id" : "obj-10",
																	"maxclass" : "newobj",
																	"numinlets" : 1,
																	"numoutlets" : 1,
																	"outlettype" : [ "signal" ],
																	"patching_rect" : [ 66.0, 48.0, 37.0, 20.0 ],
																	"text" : "abs~"
																}

															}
, 															{
																"box" : 																{
																	"fontname" : "Arial",
																	"fontsize" : 12.0,
																	"id" : "obj-11",
																	"maxclass" : "newobj",
																	"numinlets" : 1,
																	"numoutlets" : 1,
																	"outlettype" : [ "signal" ],
																	"patching_rect" : [ 15.0, 48.0, 37.0, 20.0 ],
																	"text" : "abs~"
																}

															}
, 															{
																"box" : 																{
																	"fontname" : "Arial",
																	"fontsize" : 12.0,
																	"id" : "obj-12",
																	"maxclass" : "newobj",
																	"numinlets" : 2,
																	"numoutlets" : 1,
																	"outlettype" : [ "signal" ],
																	"patching_rect" : [ 15.0, 83.0, 70.0, 20.0 ],
																	"text" : "maximum~"
																}

															}
, 															{
																"box" : 																{
																	"fontname" : "Arial",
																	"fontsize" : 12.0,
																	"id" : "obj-14",
																	"maxclass" : "newobj",
																	"numinlets" : 1,
																	"numoutlets" : 1,
																	"outlettype" : [ "signal" ],
																	"patching_rect" : [ 15.0, 139.0, 48.0, 20.0 ],
																	"text" : "atodb~"
																}

															}
, 															{
																"box" : 																{
																	"comment" : "",
																	"id" : "obj-45",
																	"maxclass" : "inlet",
																	"numinlets" : 0,
																	"numoutlets" : 1,
																	"outlettype" : [ "signal" ],
																	"patching_rect" : [ 15.0, 11.0, 25.0, 25.0 ]
																}

															}
, 															{
																"box" : 																{
																	"comment" : "",
																	"id" : "obj-46",
																	"maxclass" : "inlet",
																	"numinlets" : 0,
																	"numoutlets" : 1,
																	"outlettype" : [ "signal" ],
																	"patching_rect" : [ 66.0, 11.0, 25.0, 25.0 ]
																}

															}
, 															{
																"box" : 																{
																	"comment" : "",
																	"id" : "obj-47",
																	"maxclass" : "outlet",
																	"numinlets" : 1,
																	"numoutlets" : 0,
																	"patching_rect" : [ 72.0, 139.0, 25.0, 25.0 ]
																}

															}
, 															{
																"box" : 																{
																	"comment" : "",
																	"id" : "obj-48",
																	"maxclass" : "outlet",
																	"numinlets" : 1,
																	"numoutlets" : 0,
																	"patching_rect" : [ 15.0, 181.0, 25.0, 25.0 ]
																}

															}
 ],
														"lines" : [ 															{
																"patchline" : 																{
																	"destination" : [ "obj-12", 1 ],
																	"disabled" : 0,
																	"hidden" : 0,
																	"source" : [ "obj-10", 0 ]
																}

															}
, 															{
																"patchline" : 																{
																	"destination" : [ "obj-12", 0 ],
																	"disabled" : 0,
																	"hidden" : 0,
																	"source" : [ "obj-11", 0 ]
																}

															}
, 															{
																"patchline" : 																{
																	"destination" : [ "obj-14", 0 ],
																	"disabled" : 0,
																	"hidden" : 0,
																	"source" : [ "obj-12", 0 ]
																}

															}
, 															{
																"patchline" : 																{
																	"destination" : [ "obj-47", 0 ],
																	"disabled" : 0,
																	"hidden" : 0,
																	"source" : [ "obj-12", 0 ]
																}

															}
, 															{
																"patchline" : 																{
																	"destination" : [ "obj-48", 0 ],
																	"disabled" : 0,
																	"hidden" : 0,
																	"source" : [ "obj-14", 0 ]
																}

															}
, 															{
																"patchline" : 																{
																	"destination" : [ "obj-11", 0 ],
																	"disabled" : 0,
																	"hidden" : 0,
																	"source" : [ "obj-45", 0 ]
																}

															}
, 															{
																"patchline" : 																{
																	"destination" : [ "obj-10", 0 ],
																	"disabled" : 0,
																	"hidden" : 0,
																	"source" : [ "obj-46", 0 ]
																}

															}
 ]
													}
,
													"patching_rect" : [ 110.0, 150.0, 105.0, 20.0 ],
													"saved_object_attributes" : 													{
														"default_fontface" : 0,
														"default_fontname" : "Arial",
														"default_fontsize" : 12.0,
														"description" : "",
														"digest" : "",
														"fontface" : 0,
														"fontname" : "Arial",
														"fontsize" : 12.0,
														"globalpatchername" : "",
														"tags" : ""
													}
,
													"text" : "p maximum_peak"
												}

											}
, 											{
												"box" : 												{
													"fontname" : "Arial",
													"fontsize" : 12.0,
													"id" : "obj-44",
													"maxclass" : "newobj",
													"numinlets" : 3,
													"numoutlets" : 2,
													"outlettype" : [ "signal", "signal" ],
													"patcher" : 													{
														"fileversion" : 1,
														"appversion" : 														{
															"major" : 6,
															"minor" : 1,
															"revision" : 3,
															"architecture" : "x86"
														}
,
														"rect" : [ 25.0, 69.0, 184.0, 213.0 ],
														"bglocked" : 0,
														"openinpresentation" : 0,
														"default_fontsize" : 12.0,
														"default_fontface" : 0,
														"default_fontname" : "Arial",
														"gridonopen" : 0,
														"gridsize" : [ 15.0, 15.0 ],
														"gridsnaponopen" : 0,
														"statusbarvisible" : 2,
														"toolbarvisible" : 1,
														"boxanimatetime" : 200,
														"imprint" : 0,
														"enablehscroll" : 1,
														"enablevscroll" : 1,
														"devicewidth" : 0.0,
														"description" : "",
														"digest" : "",
														"tags" : "",
														"boxes" : [ 															{
																"box" : 																{
																	"fontname" : "Arial",
																	"fontsize" : 12.0,
																	"id" : "obj-13",
																	"maxclass" : "newobj",
																	"numinlets" : 2,
																	"numoutlets" : 1,
																	"outlettype" : [ "signal" ],
																	"patching_rect" : [ 72.5, 101.0, 86.0, 20.0 ],
																	"text" : "delay~ 1000 0"
																}

															}
, 															{
																"box" : 																{
																	"fontname" : "Arial",
																	"fontsize" : 12.0,
																	"id" : "obj-7",
																	"maxclass" : "newobj",
																	"numinlets" : 2,
																	"numoutlets" : 1,
																	"outlettype" : [ "signal" ],
																	"patching_rect" : [ 22.0, 72.0, 86.0, 20.0 ],
																	"text" : "delay~ 1000 0"
																}

															}
, 															{
																"box" : 																{
																	"comment" : "",
																	"id" : "obj-39",
																	"maxclass" : "inlet",
																	"numinlets" : 0,
																	"numoutlets" : 1,
																	"outlettype" : [ "signal" ],
																	"patching_rect" : [ 22.0, 12.0, 25.0, 25.0 ]
																}

															}
, 															{
																"box" : 																{
																	"comment" : "",
																	"id" : "obj-40",
																	"maxclass" : "inlet",
																	"numinlets" : 0,
																	"numoutlets" : 1,
																	"outlettype" : [ "signal" ],
																	"patching_rect" : [ 72.5, 12.0, 25.0, 25.0 ]
																}

															}
, 															{
																"box" : 																{
																	"comment" : "",
																	"id" : "obj-41",
																	"maxclass" : "inlet",
																	"numinlets" : 0,
																	"numoutlets" : 1,
																	"outlettype" : [ "int" ],
																	"patching_rect" : [ 139.5, 12.0, 25.0, 25.0 ]
																}

															}
, 															{
																"box" : 																{
																	"comment" : "",
																	"id" : "obj-42",
																	"maxclass" : "outlet",
																	"numinlets" : 1,
																	"numoutlets" : 0,
																	"patching_rect" : [ 22.0, 181.0, 25.0, 25.0 ]
																}

															}
, 															{
																"box" : 																{
																	"comment" : "",
																	"id" : "obj-43",
																	"maxclass" : "outlet",
																	"numinlets" : 1,
																	"numoutlets" : 0,
																	"patching_rect" : [ 72.5, 181.0, 25.0, 25.0 ]
																}

															}
 ],
														"lines" : [ 															{
																"patchline" : 																{
																	"destination" : [ "obj-43", 0 ],
																	"disabled" : 0,
																	"hidden" : 0,
																	"source" : [ "obj-13", 0 ]
																}

															}
, 															{
																"patchline" : 																{
																	"destination" : [ "obj-7", 0 ],
																	"disabled" : 0,
																	"hidden" : 0,
																	"source" : [ "obj-39", 0 ]
																}

															}
, 															{
																"patchline" : 																{
																	"destination" : [ "obj-13", 0 ],
																	"disabled" : 0,
																	"hidden" : 0,
																	"source" : [ "obj-40", 0 ]
																}

															}
, 															{
																"patchline" : 																{
																	"destination" : [ "obj-13", 1 ],
																	"disabled" : 0,
																	"hidden" : 0,
																	"source" : [ "obj-41", 0 ]
																}

															}
, 															{
																"patchline" : 																{
																	"destination" : [ "obj-7", 1 ],
																	"disabled" : 0,
																	"hidden" : 0,
																	"source" : [ "obj-41", 0 ]
																}

															}
, 															{
																"patchline" : 																{
																	"destination" : [ "obj-42", 0 ],
																	"disabled" : 0,
																	"hidden" : 0,
																	"source" : [ "obj-7", 0 ]
																}

															}
 ]
													}
,
													"patching_rect" : [ 13.0, 150.0, 69.5, 20.0 ],
													"saved_object_attributes" : 													{
														"default_fontface" : 0,
														"default_fontname" : "Arial",
														"default_fontsize" : 12.0,
														"description" : "",
														"digest" : "",
														"fontface" : 0,
														"fontname" : "Arial",
														"fontsize" : 12.0,
														"globalpatchername" : "",
														"tags" : ""
													}
,
													"text" : "p delay"
												}

											}
, 											{
												"box" : 												{
													"fontname" : "Arial",
													"fontsize" : 12.0,
													"id" : "obj-37",
													"maxclass" : "newobj",
													"numinlets" : 2,
													"numoutlets" : 1,
													"outlettype" : [ "int" ],
													"patching_rect" : [ 223.0, 107.0, 32.5, 20.0 ],
													"text" : "int"
												}

											}
, 											{
												"box" : 												{
													"fontname" : "Arial",
													"fontsize" : 12.0,
													"id" : "obj-36",
													"maxclass" : "newobj",
													"numinlets" : 1,
													"numoutlets" : 2,
													"outlettype" : [ "signal", "float" ],
													"patching_rect" : [ 163.0, 77.0, 79.0, 20.0 ],
													"text" : "mstosamps~"
												}

											}
, 											{
												"box" : 												{
													"comment" : "",
													"id" : "obj-35",
													"maxclass" : "inlet",
													"numinlets" : 0,
													"numoutlets" : 1,
													"outlettype" : [ "float" ],
													"patching_rect" : [ 302.0, 27.0, 25.0, 25.0 ]
												}

											}
, 											{
												"box" : 												{
													"comment" : "",
													"id" : "obj-17",
													"maxclass" : "inlet",
													"numinlets" : 0,
													"numoutlets" : 1,
													"outlettype" : [ "float" ],
													"patching_rect" : [ 163.0, 7.0, 25.0, 25.0 ]
												}

											}
, 											{
												"box" : 												{
													"comment" : "",
													"id" : "obj-3",
													"maxclass" : "outlet",
													"numinlets" : 1,
													"numoutlets" : 0,
													"patching_rect" : [ 63.5, 334.0, 25.0, 25.0 ]
												}

											}
, 											{
												"box" : 												{
													"fontname" : "Arial",
													"fontsize" : 12.0,
													"id" : "obj-2",
													"maxclass" : "newobj",
													"numinlets" : 2,
													"numoutlets" : 1,
													"outlettype" : [ "signal" ],
													"patching_rect" : [ 63.5, 299.0, 32.5, 20.0 ],
													"text" : "*~"
												}

											}
, 											{
												"box" : 												{
													"fontname" : "Arial",
													"fontsize" : 12.0,
													"id" : "obj-1",
													"maxclass" : "newobj",
													"numinlets" : 2,
													"numoutlets" : 1,
													"outlettype" : [ "signal" ],
													"patching_rect" : [ 13.0, 299.0, 32.5, 20.0 ],
													"text" : "*~"
												}

											}
, 											{
												"box" : 												{
													"comment" : "",
													"id" : "obj-84",
													"maxclass" : "inlet",
													"numinlets" : 0,
													"numoutlets" : 1,
													"outlettype" : [ "signal" ],
													"patching_rect" : [ 13.0, 9.0, 25.0, 25.0 ]
												}

											}
, 											{
												"box" : 												{
													"comment" : "",
													"id" : "obj-86",
													"maxclass" : "inlet",
													"numinlets" : 0,
													"numoutlets" : 1,
													"outlettype" : [ "float" ],
													"patching_rect" : [ 199.75, 7.0, 25.0, 25.0 ]
												}

											}
, 											{
												"box" : 												{
													"comment" : "",
													"id" : "obj-87",
													"maxclass" : "inlet",
													"numinlets" : 0,
													"numoutlets" : 1,
													"outlettype" : [ "signal" ],
													"patching_rect" : [ 63.5, 9.0, 25.0, 25.0 ]
												}

											}
, 											{
												"box" : 												{
													"comment" : "",
													"id" : "obj-90",
													"maxclass" : "outlet",
													"numinlets" : 1,
													"numoutlets" : 0,
													"patching_rect" : [ 13.0, 334.0, 25.0, 25.0 ]
												}

											}
, 											{
												"box" : 												{
													"fontname" : "Arial",
													"fontsize" : 12.0,
													"id" : "obj-8",
													"maxclass" : "newobj",
													"numinlets" : 1,
													"numoutlets" : 2,
													"outlettype" : [ "signal", "float" ],
													"patching_rect" : [ 199.75, 47.0, 79.0, 20.0 ],
													"text" : "mstosamps~"
												}

											}
 ],
										"lines" : [ 											{
												"patchline" : 												{
													"destination" : [ "obj-90", 0 ],
													"disabled" : 0,
													"hidden" : 0,
													"source" : [ "obj-1", 0 ]
												}

											}
, 											{
												"patchline" : 												{
													"destination" : [ "obj-36", 0 ],
													"disabled" : 0,
													"hidden" : 0,
													"source" : [ "obj-17", 0 ]
												}

											}
, 											{
												"patchline" : 												{
													"destination" : [ "obj-3", 0 ],
													"disabled" : 0,
													"hidden" : 0,
													"source" : [ "obj-2", 0 ]
												}

											}
, 											{
												"patchline" : 												{
													"destination" : [ "obj-59", 1 ],
													"disabled" : 0,
													"hidden" : 0,
													"source" : [ "obj-35", 0 ]
												}

											}
, 											{
												"patchline" : 												{
													"destination" : [ "obj-37", 0 ],
													"disabled" : 0,
													"hidden" : 0,
													"source" : [ "obj-36", 1 ]
												}

											}
, 											{
												"patchline" : 												{
													"destination" : [ "obj-44", 2 ],
													"disabled" : 0,
													"hidden" : 0,
													"source" : [ "obj-37", 0 ]
												}

											}
, 											{
												"patchline" : 												{
													"destination" : [ "obj-54", 2 ],
													"disabled" : 0,
													"hidden" : 0,
													"source" : [ "obj-37", 0 ]
												}

											}
, 											{
												"patchline" : 												{
													"destination" : [ "obj-1", 0 ],
													"disabled" : 0,
													"hidden" : 0,
													"source" : [ "obj-44", 0 ]
												}

											}
, 											{
												"patchline" : 												{
													"destination" : [ "obj-2", 0 ],
													"disabled" : 0,
													"hidden" : 0,
													"source" : [ "obj-44", 1 ]
												}

											}
, 											{
												"patchline" : 												{
													"destination" : [ "obj-54", 0 ],
													"disabled" : 0,
													"hidden" : 0,
													"source" : [ "obj-49", 0 ]
												}

											}
, 											{
												"patchline" : 												{
													"destination" : [ "obj-59", 0 ],
													"disabled" : 0,
													"hidden" : 0,
													"source" : [ "obj-54", 0 ]
												}

											}
, 											{
												"patchline" : 												{
													"destination" : [ "obj-1", 1 ],
													"disabled" : 0,
													"hidden" : 0,
													"source" : [ "obj-59", 0 ]
												}

											}
, 											{
												"patchline" : 												{
													"destination" : [ "obj-2", 1 ],
													"disabled" : 0,
													"hidden" : 0,
													"source" : [ "obj-59", 0 ]
												}

											}
, 											{
												"patchline" : 												{
													"destination" : [ "obj-54", 1 ],
													"disabled" : 0,
													"hidden" : 0,
													"midpoints" : [ 269.25, 209.0, 176.0, 209.0 ],
													"source" : [ "obj-8", 1 ]
												}

											}
, 											{
												"patchline" : 												{
													"destination" : [ "obj-44", 0 ],
													"disabled" : 0,
													"hidden" : 0,
													"source" : [ "obj-84", 0 ]
												}

											}
, 											{
												"patchline" : 												{
													"destination" : [ "obj-49", 0 ],
													"disabled" : 0,
													"hidden" : 0,
													"source" : [ "obj-84", 0 ]
												}

											}
, 											{
												"patchline" : 												{
													"destination" : [ "obj-8", 0 ],
													"disabled" : 0,
													"hidden" : 0,
													"source" : [ "obj-86", 0 ]
												}

											}
, 											{
												"patchline" : 												{
													"destination" : [ "obj-44", 1 ],
													"disabled" : 0,
													"hidden" : 0,
													"source" : [ "obj-87", 0 ]
												}

											}
, 											{
												"patchline" : 												{
													"destination" : [ "obj-49", 1 ],
													"disabled" : 0,
													"hidden" : 0,
													"source" : [ "obj-87", 0 ]
												}

											}
 ]
									}
,
									"patching_rect" : [ 21.750061, 150.0, 245.75, 20.0 ],
									"saved_object_attributes" : 									{
										"default_fontface" : 0,
										"default_fontname" : "Arial",
										"default_fontsize" : 12.0,
										"description" : "",
										"digest" : "",
										"fontface" : 0,
										"fontname" : "Arial",
										"fontsize" : 12.0,
										"globalpatchername" : "",
										"tags" : ""
									}
,
									"text" : "p limiter"
								}

							}
, 							{
								"box" : 								{
									"fontname" : "Arial",
									"fontsize" : 12.0,
									"frgb" : 0.0,
									"id" : "obj-117",
									"maxclass" : "comment",
									"numinlets" : 1,
									"numoutlets" : 0,
									"patching_rect" : [ 191.812561, 99.5, 50.0, 20.0 ],
									"text" : "release"
								}

							}
, 							{
								"box" : 								{
									"fontname" : "Arial",
									"fontsize" : 12.0,
									"id" : "obj-121",
									"maxclass" : "flonum",
									"minimum" : 0.0,
									"numinlets" : 1,
									"numoutlets" : 2,
									"outlettype" : [ "float", "bang" ],
									"parameter_enable" : 0,
									"patching_rect" : [ 191.812561, 119.5, 53.0, 20.0 ],
									"varname" : "release[1]"
								}

							}
 ],
						"lines" : [ 							{
								"patchline" : 								{
									"destination" : [ "obj-2", 0 ],
									"disabled" : 0,
									"hidden" : 0,
									"source" : [ "obj-1", 0 ]
								}

							}
, 							{
								"patchline" : 								{
									"destination" : [ "obj-4", 0 ],
									"disabled" : 0,
									"hidden" : 0,
									"source" : [ "obj-108", 0 ]
								}

							}
, 							{
								"patchline" : 								{
									"destination" : [ "obj-5", 0 ],
									"disabled" : 0,
									"hidden" : 0,
									"source" : [ "obj-108", 1 ]
								}

							}
, 							{
								"patchline" : 								{
									"destination" : [ "obj-108", 3 ],
									"disabled" : 0,
									"hidden" : 0,
									"source" : [ "obj-121", 0 ]
								}

							}
, 							{
								"patchline" : 								{
									"destination" : [ "obj-108", 4 ],
									"disabled" : 0,
									"hidden" : 0,
									"source" : [ "obj-13", 0 ]
								}

							}
, 							{
								"patchline" : 								{
									"destination" : [ "obj-121", 0 ],
									"disabled" : 0,
									"hidden" : 0,
									"source" : [ "obj-2", 1 ]
								}

							}
, 							{
								"patchline" : 								{
									"destination" : [ "obj-13", 0 ],
									"disabled" : 0,
									"hidden" : 0,
									"source" : [ "obj-2", 2 ]
								}

							}
, 							{
								"patchline" : 								{
									"destination" : [ "obj-7", 0 ],
									"disabled" : 0,
									"hidden" : 0,
									"source" : [ "obj-2", 0 ]
								}

							}
, 							{
								"patchline" : 								{
									"destination" : [ "obj-108", 2 ],
									"disabled" : 0,
									"hidden" : 0,
									"source" : [ "obj-7", 0 ]
								}

							}
, 							{
								"patchline" : 								{
									"destination" : [ "obj-108", 0 ],
									"disabled" : 0,
									"hidden" : 0,
									"source" : [ "obj-8", 0 ]
								}

							}
, 							{
								"patchline" : 								{
									"destination" : [ "obj-108", 1 ],
									"disabled" : 0,
									"hidden" : 0,
									"source" : [ "obj-9", 0 ]
								}

							}
 ]
					}
,
					"patching_rect" : [ 160.258102, 541.516357, 51.500061, 20.0 ],
					"saved_object_attributes" : 					{
						"default_fontface" : 0,
						"default_fontname" : "Arial",
						"default_fontsize" : 12.0,
						"description" : "",
						"digest" : "",
						"fontface" : 0,
						"fontname" : "Arial",
						"fontsize" : 12.0,
						"globalpatchername" : "",
						"tags" : ""
					}
,
					"text" : "p limit"
				}

			}
, 			{
				"box" : 				{
					"fontname" : "Arial",
					"fontsize" : 12.0,
					"id" : "obj-9",
					"maxclass" : "message",
					"numinlets" : 2,
					"numoutlets" : 1,
					"outlettype" : [ "" ],
					"patching_rect" : [ 14.0, 541.516357, 74.0, 18.0 ],
					"text" : "startwindow"
				}

			}
, 			{
				"box" : 				{
					"id" : "obj-97",
					"maxclass" : "live.gain~",
					"numinlets" : 2,
					"numoutlets" : 5,
					"orientation" : 1,
					"outlettype" : [ "signal", "signal", "", "float", "list" ],
					"parameter_enable" : 1,
					"patching_rect" : [ 14.0, 470.0, 298.0, 48.0 ],
					"presentation_rect" : [ 60.0, 60.0, 50.0, 34.0 ],
					"saved_attribute_attributes" : 					{
						"valueof" : 						{
							"parameter_longname" : "live.gain~",
							"parameter_shortname" : "live.gain~",
							"parameter_type" : 0,
							"parameter_mmin" : -70.0,
							"parameter_mmax" : 6.0,
							"parameter_initial_enable" : 1,
							"parameter_initial" : [ -120 ],
							"parameter_unitstyle" : 4
						}

					}
,
					"varname" : "live.gain~"
				}

			}
, 			{
				"box" : 				{
					"fontname" : "Arial",
					"fontsize" : 12.0,
					"id" : "obj-50",
					"maxclass" : "newobj",
					"numinlets" : 2,
					"numoutlets" : 0,
					"patching_rect" : [ 160.258102, 571.0, 51.500061, 20.0 ],
					"text" : "dac~"
				}

			}
, 			{
				"box" : 				{
					"fontname" : "Arial",
					"fontsize" : 12.0,
					"id" : "obj-51",
					"maxclass" : "message",
					"numinlets" : 2,
					"numoutlets" : 1,
					"outlettype" : [ "" ],
					"patching_rect" : [ 105.344437, 541.516357, 50.0, 18.0 ],
					"text" : "stop"
				}

			}
, 			{
				"box" : 				{
					"fontname" : "Arial",
					"fontsize" : 12.0,
					"id" : "obj-43",
					"maxclass" : "flonum",
					"maximum" : 20000.0,
					"minimum" : 10.0,
					"numinlets" : 1,
					"numoutlets" : 2,
					"outlettype" : [ "float", "bang" ],
					"parameter_enable" : 0,
					"patching_rect" : [ 513.75, 193.0, 66.0, 20.0 ],
					"varname" : "maxlpfreq"
				}

			}
, 			{
				"box" : 				{
					"fontname" : "Arial",
					"fontsize" : 12.0,
					"id" : "obj-41",
					"maxclass" : "flonum",
					"maximum" : 20000.0,
					"minimum" : 10.0,
					"numinlets" : 1,
					"numoutlets" : 2,
					"outlettype" : [ "float", "bang" ],
					"parameter_enable" : 0,
					"patching_rect" : [ 436.0, 193.0, 64.500031, 20.0 ],
					"varname" : "minlpfreq"
				}

			}
, 			{
				"box" : 				{
					"fontname" : "Arial",
					"fontsize" : 12.0,
					"id" : "obj-39",
					"maxclass" : "flonum",
					"numinlets" : 1,
					"numoutlets" : 2,
					"outlettype" : [ "float", "bang" ],
					"parameter_enable" : 0,
					"patching_rect" : [ 67.75, 302.0, 81.0, 20.0 ],
					"varname" : "lpfreq"
				}

			}
, 			{
				"box" : 				{
					"fontname" : "Arial",
					"fontsize" : 12.0,
					"id" : "obj-23",
					"maxclass" : "newobj",
					"numinlets" : 4,
					"numoutlets" : 1,
					"outlettype" : [ "" ],
					"patching_rect" : [ 67.5, 250.258179, 98.0, 20.0 ],
					"text" : "vs.between 0. 0."
				}

			}
, 			{
				"box" : 				{
					"fontname" : "Arial",
					"fontsize" : 12.0,
					"id" : "obj-22",
					"maxclass" : "number",
					"numinlets" : 1,
					"numoutlets" : 2,
					"outlettype" : [ "int", "bang" ],
					"parameter_enable" : 0,
					"patching_rect" : [ 412.0, 5.0, 50.0, 20.0 ]
				}

			}
, 			{
				"box" : 				{
					"fontname" : "Arial",
					"fontsize" : 12.0,
					"id" : "obj-14",
					"maxclass" : "message",
					"numinlets" : 2,
					"numoutlets" : 1,
					"outlettype" : [ "" ],
					"patching_rect" : [ 412.0, 35.0, 49.0, 18.0 ],
					"text" : "size $1"
				}

			}
, 			{
				"box" : 				{
					"fontname" : "Arial",
					"fontsize" : 12.0,
					"id" : "obj-15",
					"maxclass" : "flonum",
					"minimum" : 0.5,
					"numinlets" : 1,
					"numoutlets" : 2,
					"outlettype" : [ "float", "bang" ],
					"parameter_enable" : 0,
					"patching_rect" : [ 600.25, 193.0, 50.0, 20.0 ],
					"varname" : "qfact"
				}

			}
, 			{
				"box" : 				{
					"fontname" : "Arial",
					"fontsize" : 12.0,
					"id" : "obj-7",
					"maxclass" : "newobj",
					"numinlets" : 3,
					"numoutlets" : 1,
					"outlettype" : [ "signal" ],
					"patching_rect" : [ 14.0, 336.0, 126.5, 20.0 ],
					"text" : "vs.lowpass~"
				}

			}
, 			{
				"box" : 				{
					"fontname" : "Arial",
					"fontsize" : 12.0,
					"id" : "obj-4",
					"maxclass" : "message",
					"numinlets" : 2,
					"numoutlets" : 1,
					"outlettype" : [ "" ],
					"patching_rect" : [ 412.0, 142.0, 272.0, 18.0 ],
					"text" : "1 2 4 2 8 6 3"
				}

			}
, 			{
				"box" : 				{
					"contdata" : 1,
					"id" : "obj-67",
					"maxclass" : "multislider",
					"numinlets" : 1,
					"numoutlets" : 2,
					"outlettype" : [ "", "" ],
					"parameter_enable" : 0,
					"patching_rect" : [ 412.0, 62.0, 272.0, 67.0 ],
					"setminmax" : [ 1.0, 8.0 ],
					"setstyle" : 1,
					"settype" : 0,
					"size" : 7,
					"slidercolor" : [ 0.815686, 0.177981, 0.0, 1.0 ],
					"spacing" : 1,
					"varname" : "divlist"
				}

			}
, 			{
				"box" : 				{
					"fontname" : "Arial",
					"fontsize" : 12.0,
					"id" : "obj-38",
					"maxclass" : "newobj",
					"numinlets" : 2,
					"numoutlets" : 1,
					"outlettype" : [ "float" ],
					"patching_rect" : [ 218.5, 371.0, 67.0, 20.0 ],
					"text" : "vs.random"
				}

			}
, 			{
				"box" : 				{
					"fontname" : "Arial",
					"fontsize" : 12.0,
					"id" : "obj-37",
					"maxclass" : "flonum",
					"maximum" : 1.0,
					"minimum" : 0.0,
					"numinlets" : 1,
					"numoutlets" : 2,
					"outlettype" : [ "float", "bang" ],
					"parameter_enable" : 0,
					"patching_rect" : [ 559.75, 251.0, 50.0, 20.0 ],
					"varname" : "envdur"
				}

			}
, 			{
				"box" : 				{
					"fontname" : "Arial",
					"fontsize" : 12.0,
					"id" : "obj-35",
					"maxclass" : "newobj",
					"numinlets" : 2,
					"numoutlets" : 1,
					"outlettype" : [ "float" ],
					"patching_rect" : [ 253.0, 286.0, 32.5, 20.0 ],
					"text" : "- 4."
				}

			}
, 			{
				"box" : 				{
					"id" : "obj-34",
					"maxclass" : "preset",
					"numinlets" : 1,
					"numoutlets" : 4,
					"outlettype" : [ "preset", "int", "preset", "int" ],
					"patching_rect" : [ 412.0, 290.0, 41.0, 29.0 ],
					"preset_data" : [ 						{
							"number" : 1,
							"data" : [ 5, "obj-5", "flonum", "float", 600.0, 5, "obj-58", "toggle", "int", 1, 5, "obj-70", "umenu", "int", 16, 5, "obj-16", "flonum", "float", 100.0, 5, "obj-37", "flonum", "float", 0.6, 13, "obj-67", "multislider", "list", 2, 4, 2, 2, 6, 2, 2, 2, 3, 5, "obj-15", "flonum", "float", 2.0, 5, "obj-22", "number", "int", 9, 5, "obj-39", "flonum", "float", 11337.277344, 5, "obj-41", "flonum", "float", 10000.0, 5, "obj-43", "flonum", "float", 20000.0, 5, "obj-6", "dial", "float", 0.494574, 5, "obj-32", "filtergraph~", "nfilters", 1, 9, "obj-32", "filtergraph~", "setoptions", 0, 1, 1, 0, 0, 8, "obj-32", "filtergraph~", "params", 0, 11337.277344, 1.0, 2.0, 5, "obj-57", "number", "int", 5 ]
						}
, 						{
							"number" : 2,
							"data" : [ 5, "obj-5", "flonum", "float", 500.0, 5, "obj-58", "toggle", "int", 1, 5, "obj-70", "umenu", "int", 9, 5, "obj-16", "flonum", "float", 500.0, 5, "obj-37", "flonum", "float", 0.7, 11, "obj-67", "multislider", "list", 1, 2, 4, 2, 8, 6, 3, 5, "obj-15", "flonum", "float", 6.0, 5, "obj-22", "number", "int", 7, 5, "obj-39", "flonum", "float", 12179.196289, 5, "obj-41", "flonum", "float", 500.0, 5, "obj-43", "flonum", "float", 15000.0 ]
						}
, 						{
							"number" : 3,
							"data" : [ 5, "obj-5", "flonum", "float", 500.0, 5, "obj-58", "toggle", "int", 1, 5, "obj-70", "umenu", "int", 22, 5, "obj-16", "flonum", "float", 500.0, 5, "obj-37", "flonum", "float", 0.7, 12, "obj-67", "multislider", "list", 1, 8, 4, 2, 3, 6, 3, 2, 5, "obj-15", "flonum", "float", 6.0, 5, "obj-22", "number", "int", 8, 5, "obj-39", "flonum", "float", 1503.087402, 5, "obj-41", "flonum", "float", 500.0, 5, "obj-43", "flonum", "float", 15000.0 ]
						}
, 						{
							"number" : 4,
							"data" : [ 5, "obj-5", "flonum", "float", 2000.0, 5, "obj-58", "toggle", "int", 1, 5, "obj-70", "umenu", "int", 25, 5, "obj-16", "flonum", "float", 250.0, 5, "obj-37", "flonum", "float", 0.98, 9, "obj-67", "multislider", "list", 5, 5, 2, 2, 8, 5, "obj-15", "flonum", "float", 3.0, 5, "obj-22", "number", "int", 5, 5, "obj-39", "flonum", "float", 872.538269, 5, "obj-41", "flonum", "float", 200.0, 5, "obj-43", "flonum", "float", 8000.0, 5, "obj-6", "dial", "float", 0.206158, 5, "obj-32", "filtergraph~", "nfilters", 1, 9, "obj-32", "filtergraph~", "setoptions", 0, 1, 1, 0, 0, 8, "obj-32", "filtergraph~", "params", 0, 872.538269, 1.0, 3.0 ]
						}
, 						{
							"number" : 5,
							"data" : [ 5, "obj-5", "flonum", "float", 375.0, 5, "obj-58", "toggle", "int", 1, 5, "obj-70", "umenu", "int", 3, 5, "obj-16", "flonum", "float", 46.875, 5, "obj-37", "flonum", "float", 0.75, 24, "obj-67", "multislider", "list", 8, 3, 5, 3, 8, 5, 3, 8, 6, 4, 8, 6, 7, 8, 4, 5, 7, 8, 6, 4, 5, "obj-15", "flonum", "float", 20.0, 5, "obj-22", "number", "int", 20, 5, "obj-39", "flonum", "float", 6964.522461, 5, "obj-41", "flonum", "float", 800.0, 5, "obj-43", "flonum", "float", 8000.0, 5, "obj-6", "dial", "float", 0.180567, 5, "obj-32", "filtergraph~", "nfilters", 1, 9, "obj-32", "filtergraph~", "setoptions", 0, 1, 1, 0, 0, 8, "obj-32", "filtergraph~", "params", 0, 6964.522461, 1.0, 20.0 ]
						}
, 						{
							"number" : 6,
							"data" : [ 5, "obj-5", "flonum", "float", 600.0, 5, "obj-58", "toggle", "int", 1, 5, "obj-70", "umenu", "int", 5, 5, "obj-16", "flonum", "float", 300.0, 5, "obj-37", "flonum", "float", 0.99, 10, "obj-67", "multislider", "list", 5, 8, 5, 2, 8, 1, 5, "obj-15", "flonum", "float", 10.0, 5, "obj-22", "number", "int", 6, 5, "obj-39", "flonum", "float", 914.580017, 5, "obj-41", "flonum", "float", 500.0, 5, "obj-43", "flonum", "float", 12000.0 ]
						}
 ]
				}

			}
, 			{
				"box" : 				{
					"fontname" : "Arial",
					"fontsize" : 12.0,
					"id" : "obj-26",
					"maxclass" : "newobj",
					"numinlets" : 2,
					"numoutlets" : 2,
					"outlettype" : [ "signal", "signal" ],
					"patching_rect" : [ 14.0, 422.0, 223.5, 20.0 ],
					"text" : "vs.pan~"
				}

			}
, 			{
				"box" : 				{
					"fontname" : "Arial",
					"fontsize" : 12.0,
					"id" : "obj-25",
					"maxclass" : "newobj",
					"numinlets" : 2,
					"numoutlets" : 1,
					"outlettype" : [ "float" ],
					"patching_rect" : [ 253.0, 239.0, 32.5, 20.0 ],
					"text" : "f"
				}

			}
, 			{
				"box" : 				{
					"fontname" : "Arial",
					"fontsize" : 12.0,
					"id" : "obj-21",
					"maxclass" : "newobj",
					"numinlets" : 2,
					"numoutlets" : 1,
					"outlettype" : [ "signal" ],
					"patching_rect" : [ 14.0, 379.0, 32.5, 20.0 ],
					"text" : "*~"
				}

			}
, 			{
				"box" : 				{
					"fontname" : "Arial",
					"fontsize" : 12.0,
					"id" : "obj-20",
					"maxclass" : "newobj",
					"numinlets" : 2,
					"numoutlets" : 1,
					"outlettype" : [ "float" ],
					"patching_rect" : [ 253.0, 263.0, 53.75, 20.0 ],
					"text" : "* 1."
				}

			}
, 			{
				"box" : 				{
					"fontname" : "Arial",
					"fontsize" : 12.0,
					"id" : "obj-19",
					"maxclass" : "message",
					"numinlets" : 2,
					"numoutlets" : 1,
					"outlettype" : [ "" ],
					"patching_rect" : [ 253.0, 312.0, 87.0, 18.0 ],
					"text" : "0, 1 2 1 $1 0 2"
				}

			}
, 			{
				"box" : 				{
					"fontname" : "Arial",
					"fontsize" : 12.0,
					"id" : "obj-16",
					"maxclass" : "flonum",
					"numinlets" : 1,
					"numoutlets" : 2,
					"outlettype" : [ "float", "bang" ],
					"parameter_enable" : 0,
					"patching_rect" : [ 266.600006, 210.0, 50.0, 20.0 ]
				}

			}
, 			{
				"box" : 				{
					"fontname" : "Arial",
					"fontsize" : 12.0,
					"id" : "obj-13",
					"maxclass" : "newobj",
					"numinlets" : 2,
					"numoutlets" : 2,
					"outlettype" : [ "signal", "bang" ],
					"patching_rect" : [ 253.0, 336.0, 36.0, 20.0 ],
					"text" : "line~"
				}

			}
, 			{
				"box" : 				{
					"fontname" : "Arial",
					"fontsize" : 12.0,
					"id" : "obj-74",
					"maxclass" : "message",
					"numinlets" : 2,
					"numoutlets" : 1,
					"outlettype" : [ "" ],
					"patching_rect" : [ 50.0, 112.0, 43.0, 18.0 ],
					"text" : "loop 1"
				}

			}
, 			{
				"box" : 				{
					"fontname" : "Arial",
					"fontsize" : 12.0,
					"id" : "obj-72",
					"maxclass" : "newobj",
					"numinlets" : 1,
					"numoutlets" : 3,
					"outlettype" : [ "int", "", "bang" ],
					"patching_rect" : [ 14.0, 73.0, 55.0, 20.0 ],
					"text" : "t 1 l b"
				}

			}
, 			{
				"box" : 				{
					"fontname" : "Arial",
					"fontsize" : 12.0,
					"id" : "obj-71",
					"maxclass" : "newobj",
					"numinlets" : 1,
					"numoutlets" : 1,
					"outlettype" : [ "" ],
					"patching_rect" : [ 14.0, 45.0, 85.0, 20.0 ],
					"text" : "prepend open"
				}

			}
, 			{
				"box" : 				{
					"arrow" : 0,
					"arrowframe" : 0,
					"arrowlink" : 0,
					"fontname" : "Arial",
					"fontsize" : 12.0,
					"id" : "obj-70",
					"items" : [ "vs_walking_bass.wav", ",", "vs_abreak.aif", ",", "vs_abreak2.aif", ",", "vs_analog_loop.aif", ",", "vs_analog_loop2.wav", ",", "vs_aqua_sap.aif", ",", "vs_aqua_sap_nr.wav", ",", "vs_carbon_loop.aif", ",", "vs_carbon_loop2.wav", ",", "vs_drums_loop.aif", ",", "vs_flute_bourree.wav", ",", "vs_flute_q2.aif", ",", "vs_greg_1666.aif", ",", "vs_group_groove_B.wav", ",", "vs_group_groove_fadeout.wav", ",", "vs_guitar_frag_q4.aif", ",", "vs_guitar_melody_q4.aif", ",", "vs_guitar_phrase_q4.aif", ",", "vs_guitar_rythm_q4.aif", ",", "vs_harp_riff.wav", ",", "vs_mik_akdrs3.wav", ",", "vs_mikr.aif", ",", "vs_organ_line.wav", ",", "vs_piano_tango.wav", ",", "vs_sicut_dixit.aif", ",", "vs_song_h_coleridge.wav" ],
					"maxclass" : "umenu",
					"numinlets" : 1,
					"numoutlets" : 3,
					"outlettype" : [ "int", "", "" ],
					"parameter_enable" : 0,
					"patching_rect" : [ 14.0, 12.0, 150.0, 20.0 ]
				}

			}
, 			{
				"box" : 				{
					"id" : "obj-58",
					"maxclass" : "toggle",
					"numinlets" : 1,
					"numoutlets" : 1,
					"outlettype" : [ "int" ],
					"parameter_enable" : 0,
					"patching_rect" : [ 14.0, 109.0, 20.0, 20.0 ],
					"varname" : "onoff"
				}

			}
, 			{
				"box" : 				{
					"fontname" : "Arial",
					"fontsize" : 12.0,
					"frozen_object_attributes" : 					{
						"audiofile" : "vs_harp_riff.wav"
					}
,
					"id" : "obj-56",
					"maxclass" : "newobj",
					"numinlets" : 2,
					"numoutlets" : 2,
					"outlettype" : [ "signal", "bang" ],
					"patching_rect" : [ 14.0, 141.0, 49.0, 20.0 ],
					"save" : [ "#N", "sfplay~", "", 1, 120960, 0, "", ";" ],
					"text" : "sfplay~"
				}

			}
, 			{
				"box" : 				{
					"id" : "obj-10",
					"maxclass" : "button",
					"numinlets" : 1,
					"numoutlets" : 1,
					"outlettype" : [ "bang" ],
					"patching_rect" : [ 253.0, 112.0, 20.0, 20.0 ]
				}

			}
, 			{
				"box" : 				{
					"fontname" : "Arial",
					"fontsize" : 12.0,
					"id" : "obj-5",
					"maxclass" : "flonum",
					"minimum" : 10.0,
					"numinlets" : 1,
					"numoutlets" : 2,
					"outlettype" : [ "float", "bang" ],
					"parameter_enable" : 0,
					"patching_rect" : [ 482.0, 251.0, 50.0, 20.0 ],
					"varname" : "metrorate"
				}

			}
, 			{
				"box" : 				{
					"fontname" : "Arial",
					"fontsize" : 12.0,
					"id" : "obj-1",
					"maxclass" : "newobj",
					"numinlets" : 5,
					"numoutlets" : 6,
					"outlettype" : [ "bang", "bang", "float", "int", "", "bang" ],
					"patching_rect" : [ 253.0, 81.0, 128.0, 20.0 ],
					"text" : "vs.divmetro"
				}

			}
, 			{
				"box" : 				{
					"background" : 1,
					"bgcolor" : [ 0.826431, 0.774039, 0.055432, 1.0 ],
					"id" : "obj-55",
					"maxclass" : "panel",
					"numinlets" : 1,
					"numoutlets" : 0,
					"patching_rect" : [ 412.0, 163.741821, 272.0, 116.516357 ]
				}

			}
 ],
		"lines" : [ 			{
				"patchline" : 				{
					"destination" : [ "obj-10", 0 ],
					"disabled" : 0,
					"hidden" : 0,
					"source" : [ "obj-1", 0 ]
				}

			}
, 			{
				"patchline" : 				{
					"destination" : [ "obj-16", 0 ],
					"disabled" : 0,
					"hidden" : 0,
					"source" : [ "obj-1", 2 ]
				}

			}
, 			{
				"patchline" : 				{
					"destination" : [ "obj-57", 0 ],
					"disabled" : 0,
					"hidden" : 0,
					"source" : [ "obj-1", 3 ]
				}

			}
, 			{
				"patchline" : 				{
					"destination" : [ "obj-23", 0 ],
					"disabled" : 0,
					"hidden" : 0,
					"midpoints" : [ 262.5, 140.629089, 77.0, 140.629089 ],
					"source" : [ "obj-10", 0 ]
				}

			}
, 			{
				"patchline" : 				{
					"destination" : [ "obj-25", 0 ],
					"disabled" : 0,
					"hidden" : 0,
					"source" : [ "obj-10", 0 ]
				}

			}
, 			{
				"patchline" : 				{
					"destination" : [ "obj-38", 0 ],
					"disabled" : 0,
					"hidden" : 0,
					"midpoints" : [ 262.5, 140.5, 228.0, 140.5 ],
					"source" : [ "obj-10", 0 ]
				}

			}
, 			{
				"patchline" : 				{
					"destination" : [ "obj-62", 0 ],
					"disabled" : 0,
					"hidden" : 0,
					"source" : [ "obj-11", 0 ]
				}

			}
, 			{
				"patchline" : 				{
					"destination" : [ "obj-21", 1 ],
					"disabled" : 0,
					"hidden" : 0,
					"source" : [ "obj-13", 0 ]
				}

			}
, 			{
				"patchline" : 				{
					"destination" : [ "obj-67", 0 ],
					"disabled" : 0,
					"hidden" : 0,
					"source" : [ "obj-14", 0 ]
				}

			}
, 			{
				"patchline" : 				{
					"destination" : [ "obj-25", 1 ],
					"disabled" : 0,
					"hidden" : 0,
					"midpoints" : [ 276.100006, 234.0, 276.0, 234.0 ],
					"source" : [ "obj-16", 0 ]
				}

			}
, 			{
				"patchline" : 				{
					"destination" : [ "obj-13", 0 ],
					"disabled" : 0,
					"hidden" : 0,
					"source" : [ "obj-19", 0 ]
				}

			}
, 			{
				"patchline" : 				{
					"destination" : [ "obj-1", 4 ],
					"disabled" : 0,
					"hidden" : 0,
					"source" : [ "obj-2", 1 ]
				}

			}
, 			{
				"patchline" : 				{
					"destination" : [ "obj-1", 2 ],
					"disabled" : 0,
					"hidden" : 0,
					"source" : [ "obj-2", 0 ]
				}

			}
, 			{
				"patchline" : 				{
					"destination" : [ "obj-35", 0 ],
					"disabled" : 0,
					"hidden" : 0,
					"source" : [ "obj-20", 0 ]
				}

			}
, 			{
				"patchline" : 				{
					"destination" : [ "obj-26", 0 ],
					"disabled" : 0,
					"hidden" : 0,
					"source" : [ "obj-21", 0 ]
				}

			}
, 			{
				"patchline" : 				{
					"destination" : [ "obj-14", 0 ],
					"disabled" : 0,
					"hidden" : 0,
					"source" : [ "obj-22", 0 ]
				}

			}
, 			{
				"patchline" : 				{
					"destination" : [ "obj-64", 0 ],
					"disabled" : 0,
					"hidden" : 0,
					"source" : [ "obj-23", 0 ]
				}

			}
, 			{
				"patchline" : 				{
					"destination" : [ "obj-63", 0 ],
					"disabled" : 0,
					"hidden" : 0,
					"source" : [ "obj-24", 0 ]
				}

			}
, 			{
				"patchline" : 				{
					"destination" : [ "obj-20", 0 ],
					"disabled" : 0,
					"hidden" : 0,
					"source" : [ "obj-25", 0 ]
				}

			}
, 			{
				"patchline" : 				{
					"destination" : [ "obj-97", 1 ],
					"disabled" : 0,
					"hidden" : 0,
					"source" : [ "obj-26", 1 ]
				}

			}
, 			{
				"patchline" : 				{
					"destination" : [ "obj-97", 0 ],
					"disabled" : 0,
					"hidden" : 0,
					"source" : [ "obj-26", 0 ]
				}

			}
, 			{
				"patchline" : 				{
					"destination" : [ "obj-1", 1 ],
					"disabled" : 0,
					"hidden" : 0,
					"source" : [ "obj-29", 0 ]
				}

			}
, 			{
				"patchline" : 				{
					"destination" : [ "obj-97", 0 ],
					"disabled" : 0,
					"hidden" : 1,
					"source" : [ "obj-34", 2 ]
				}

			}
, 			{
				"patchline" : 				{
					"destination" : [ "obj-19", 0 ],
					"disabled" : 0,
					"hidden" : 0,
					"source" : [ "obj-35", 0 ]
				}

			}
, 			{
				"patchline" : 				{
					"destination" : [ "obj-32", 7 ],
					"disabled" : 0,
					"hidden" : 0,
					"source" : [ "obj-36", 0 ]
				}

			}
, 			{
				"patchline" : 				{
					"destination" : [ "obj-26", 1 ],
					"disabled" : 0,
					"hidden" : 0,
					"source" : [ "obj-38", 0 ]
				}

			}
, 			{
				"patchline" : 				{
					"destination" : [ "obj-6", 0 ],
					"disabled" : 0,
					"hidden" : 0,
					"midpoints" : [ 228.0, 408.5, 327.25, 408.5 ],
					"source" : [ "obj-38", 0 ]
				}

			}
, 			{
				"patchline" : 				{
					"destination" : [ "obj-7", 1 ],
					"disabled" : 0,
					"hidden" : 0,
					"source" : [ "obj-39", 0 ]
				}

			}
, 			{
				"patchline" : 				{
					"destination" : [ "obj-32", 5 ],
					"disabled" : 0,
					"hidden" : 0,
					"source" : [ "obj-42", 0 ]
				}

			}
, 			{
				"patchline" : 				{
					"destination" : [ "obj-20", 1 ],
					"disabled" : 0,
					"hidden" : 0,
					"source" : [ "obj-47", 0 ]
				}

			}
, 			{
				"patchline" : 				{
					"destination" : [ "obj-7", 2 ],
					"disabled" : 0,
					"hidden" : 0,
					"source" : [ "obj-48", 0 ]
				}

			}
, 			{
				"patchline" : 				{
					"destination" : [ "obj-50", 1 ],
					"disabled" : 0,
					"hidden" : 0,
					"source" : [ "obj-49", 1 ]
				}

			}
, 			{
				"patchline" : 				{
					"destination" : [ "obj-50", 0 ],
					"disabled" : 0,
					"hidden" : 0,
					"source" : [ "obj-49", 0 ]
				}

			}
, 			{
				"patchline" : 				{
					"destination" : [ "obj-50", 0 ],
					"disabled" : 0,
					"hidden" : 0,
					"midpoints" : [ 114.844437, 564.0, 169.758102, 564.0 ],
					"source" : [ "obj-51", 0 ]
				}

			}
, 			{
				"patchline" : 				{
					"destination" : [ "obj-1", 0 ],
					"disabled" : 0,
					"hidden" : 0,
					"source" : [ "obj-53", 0 ]
				}

			}
, 			{
				"patchline" : 				{
					"destination" : [ "obj-7", 0 ],
					"disabled" : 0,
					"hidden" : 0,
					"source" : [ "obj-56", 0 ]
				}

			}
, 			{
				"patchline" : 				{
					"destination" : [ "obj-56", 0 ],
					"disabled" : 0,
					"hidden" : 0,
					"source" : [ "obj-58", 0 ]
				}

			}
, 			{
				"patchline" : 				{
					"destination" : [ "obj-23", 1 ],
					"disabled" : 0,
					"hidden" : 0,
					"midpoints" : [ 103.5, 220.629089, 103.333336, 220.629089 ],
					"source" : [ "obj-62", 0 ]
				}

			}
, 			{
				"patchline" : 				{
					"destination" : [ "obj-23", 2 ],
					"disabled" : 0,
					"hidden" : 0,
					"source" : [ "obj-63", 0 ]
				}

			}
, 			{
				"patchline" : 				{
					"destination" : [ "obj-39", 0 ],
					"disabled" : 0,
					"hidden" : 0,
					"source" : [ "obj-64", 0 ]
				}

			}
, 			{
				"patchline" : 				{
					"destination" : [ "obj-2", 0 ],
					"disabled" : 0,
					"hidden" : 0,
					"midpoints" : [ 421.5, 137.0, 397.0, 137.0, 397.0, 50.0, 317.0, 50.0 ],
					"source" : [ "obj-67", 0 ]
				}

			}
, 			{
				"patchline" : 				{
					"destination" : [ "obj-4", 1 ],
					"disabled" : 0,
					"hidden" : 0,
					"source" : [ "obj-67", 0 ]
				}

			}
, 			{
				"patchline" : 				{
					"destination" : [ "obj-21", 0 ],
					"disabled" : 0,
					"hidden" : 0,
					"source" : [ "obj-7", 0 ]
				}

			}
, 			{
				"patchline" : 				{
					"destination" : [ "obj-71", 0 ],
					"disabled" : 0,
					"hidden" : 0,
					"midpoints" : [ 89.0, 38.5, 23.5, 38.5 ],
					"source" : [ "obj-70", 1 ]
				}

			}
, 			{
				"patchline" : 				{
					"destination" : [ "obj-72", 0 ],
					"disabled" : 0,
					"hidden" : 0,
					"source" : [ "obj-71", 0 ]
				}

			}
, 			{
				"patchline" : 				{
					"destination" : [ "obj-56", 0 ],
					"disabled" : 0,
					"hidden" : 0,
					"midpoints" : [ 41.5, 136.0, 23.5, 136.0 ],
					"source" : [ "obj-72", 1 ]
				}

			}
, 			{
				"patchline" : 				{
					"destination" : [ "obj-58", 0 ],
					"disabled" : 0,
					"hidden" : 0,
					"source" : [ "obj-72", 0 ]
				}

			}
, 			{
				"patchline" : 				{
					"destination" : [ "obj-74", 0 ],
					"disabled" : 0,
					"hidden" : 0,
					"source" : [ "obj-72", 2 ]
				}

			}
, 			{
				"patchline" : 				{
					"destination" : [ "obj-56", 0 ],
					"disabled" : 0,
					"hidden" : 0,
					"midpoints" : [ 59.5, 136.0, 23.5, 136.0 ],
					"source" : [ "obj-74", 0 ]
				}

			}
, 			{
				"patchline" : 				{
					"destination" : [ "obj-50", 0 ],
					"disabled" : 0,
					"hidden" : 0,
					"midpoints" : [ 23.5, 564.0, 169.758102, 564.0 ],
					"source" : [ "obj-9", 0 ]
				}

			}
, 			{
				"patchline" : 				{
					"destination" : [ "obj-49", 1 ],
					"disabled" : 0,
					"hidden" : 0,
					"midpoints" : [ 93.25, 524.0, 202.258163, 524.0 ],
					"source" : [ "obj-97", 1 ]
				}

			}
, 			{
				"patchline" : 				{
					"destination" : [ "obj-49", 0 ],
					"disabled" : 0,
					"hidden" : 0,
					"midpoints" : [ 23.5, 531.0, 169.758102, 531.0 ],
					"source" : [ "obj-97", 0 ]
				}

			}
 ],
		"parameters" : 		{
			"obj-97" : [ "live.gain~", "live.gain~", 0 ]
		}
,
		"dependency_cache" : [ 			{
				"name" : "vs.divmetro.maxpat",
				"bootpath" : "/Users/dudas/Desktop/Translation/English Patches/virtualsound macros/time and triggers",
				"patcherrelativepath" : "../../virtualsound macros/time and triggers",
				"type" : "JSON",
				"implicit" : 1
			}
, 			{
				"name" : "vs.listloop.maxpat",
				"bootpath" : "/Users/dudas/Desktop/Translation/English Patches/virtualsound macros/list processors",
				"patcherrelativepath" : "../../virtualsound macros/list processors",
				"type" : "JSON",
				"implicit" : 1
			}
, 			{
				"name" : "vs.urn-jb.maxpat",
				"bootpath" : "/Users/dudas/Desktop/Translation/English Patches/virtualsound macros/random generators",
				"patcherrelativepath" : "../../virtualsound macros/random generators",
				"type" : "JSON",
				"implicit" : 1
			}
, 			{
				"name" : "vs.multibang.maxpat",
				"bootpath" : "/Users/dudas/Desktop/Translation/English Patches/virtualsound macros/time and triggers",
				"patcherrelativepath" : "../../virtualsound macros/time and triggers",
				"type" : "JSON",
				"implicit" : 1
			}
, 			{
				"name" : "vs.pan~.maxpat",
				"bootpath" : "/Users/dudas/Desktop/Translation/English Patches/virtualsound macros/spat and audio routers",
				"patcherrelativepath" : "../../virtualsound macros/spat and audio routers",
				"type" : "JSON",
				"implicit" : 1
			}
, 			{
				"name" : "vs.sig~.maxpat",
				"bootpath" : "/Users/dudas/Desktop/Translation/English Patches/virtualsound macros/audio utility",
				"patcherrelativepath" : "../../virtualsound macros/audio utility",
				"type" : "JSON",
				"implicit" : 1
			}
, 			{
				"name" : "vs.random.maxpat",
				"bootpath" : "/Users/dudas/Desktop/Translation/English Patches/virtualsound macros/random generators",
				"patcherrelativepath" : "../../virtualsound macros/random generators",
				"type" : "JSON",
				"implicit" : 1
			}
, 			{
				"name" : "vs.lowpass~.maxpat",
				"bootpath" : "/Users/dudas/Desktop/Translation/English Patches/virtualsound macros/filter macros",
				"patcherrelativepath" : "../../virtualsound macros/filter macros",
				"type" : "JSON",
				"implicit" : 1
			}
, 			{
				"name" : "vs.defaulter.maxpat",
				"bootpath" : "/Users/dudas/Desktop/Translation/English Patches/virtualsound macros/max utility",
				"patcherrelativepath" : "../../virtualsound macros/max utility",
				"type" : "JSON",
				"implicit" : 1
			}
, 			{
				"name" : "vs.between.maxpat",
				"bootpath" : "/Users/dudas/Desktop/Translation/English Patches/virtualsound macros/random generators",
				"patcherrelativepath" : "../../virtualsound macros/random generators",
				"type" : "JSON",
				"implicit" : 1
			}
 ]
	}

}
