{
	"patcher" : 	{
		"fileversion" : 1,
		"rect" : [ 34.0, 44.0, 814.0, 500.0 ],
		"bglocked" : 0,
		"defrect" : [ 34.0, 44.0, 814.0, 500.0 ],
		"openrect" : [ 0.0, 0.0, 0.0, 0.0 ],
		"openinpresentation" : 0,
		"default_fontsize" : 12.0,
		"default_fontface" : 0,
		"default_fontname" : "Arial",
		"gridonopen" : 0,
		"gridsize" : [ 15.0, 15.0 ],
		"gridsnaponopen" : 0,
		"toolbarvisible" : 1,
		"boxanimatetime" : 200,
		"imprint" : 0,
		"enablehscroll" : 1,
		"enablevscroll" : 1,
		"devicewidth" : 0.0,
		"boxes" : [ 			{
				"box" : 				{
					"maxclass" : "gain~",
					"outlettype" : [ "signal", "int" ],
					"numinlets" : 2,
					"interp" : 65.0,
					"patching_rect" : [ 549.0, 330.0, 20.0, 140.0 ],
					"numoutlets" : 2,
					"id" : "obj-5"
				}

			}
, 			{
				"box" : 				{
					"maxclass" : "newobj",
					"text" : "loadbang",
					"fontsize" : 12.0,
					"outlettype" : [ "bang" ],
					"fontname" : "Helvetica",
					"numinlets" : 1,
					"patching_rect" : [ 647.0, 127.0, 60.0, 18.0 ],
					"numoutlets" : 1,
					"id" : "obj-71"
				}

			}
, 			{
				"box" : 				{
					"maxclass" : "message",
					"text" : "loop 1",
					"fontsize" : 12.0,
					"outlettype" : [ "" ],
					"fontname" : "Helvetica",
					"numinlets" : 2,
					"patching_rect" : [ 647.0, 151.0, 43.0, 16.0 ],
					"numoutlets" : 1,
					"id" : "obj-72"
				}

			}
, 			{
				"box" : 				{
					"maxclass" : "newobj",
					"text" : "groove~ sound",
					"fontsize" : 12.0,
					"outlettype" : [ "signal", "signal" ],
					"fontname" : "Helvetica",
					"numinlets" : 3,
					"patching_rect" : [ 719.0, 184.0, 90.0, 18.0 ],
					"numoutlets" : 2,
					"id" : "obj-74"
				}

			}
, 			{
				"box" : 				{
					"maxclass" : "newobj",
					"text" : "loadbang",
					"fontsize" : 12.0,
					"outlettype" : [ "bang" ],
					"fontname" : "Helvetica",
					"numinlets" : 1,
					"patching_rect" : [ 555.0, 127.0, 60.0, 18.0 ],
					"numoutlets" : 1,
					"id" : "obj-65"
				}

			}
, 			{
				"box" : 				{
					"maxclass" : "message",
					"text" : "loop 1",
					"fontsize" : 12.0,
					"outlettype" : [ "" ],
					"fontname" : "Helvetica",
					"numinlets" : 2,
					"patching_rect" : [ 555.0, 151.0, 43.0, 16.0 ],
					"numoutlets" : 1,
					"id" : "obj-66"
				}

			}
, 			{
				"box" : 				{
					"maxclass" : "newobj",
					"text" : "groove~ sound",
					"fontsize" : 12.0,
					"outlettype" : [ "signal", "signal" ],
					"fontname" : "Helvetica",
					"numinlets" : 3,
					"patching_rect" : [ 627.0, 185.0, 90.0, 18.0 ],
					"numoutlets" : 2,
					"id" : "obj-68"
				}

			}
, 			{
				"box" : 				{
					"maxclass" : "newobj",
					"text" : "loadbang",
					"fontsize" : 12.0,
					"outlettype" : [ "bang" ],
					"fontname" : "Helvetica",
					"numinlets" : 1,
					"patching_rect" : [ 464.0, 127.0, 60.0, 18.0 ],
					"numoutlets" : 1,
					"id" : "obj-59"
				}

			}
, 			{
				"box" : 				{
					"maxclass" : "message",
					"text" : "loop 1",
					"fontsize" : 12.0,
					"outlettype" : [ "" ],
					"fontname" : "Helvetica",
					"numinlets" : 2,
					"patching_rect" : [ 464.0, 151.0, 43.0, 16.0 ],
					"numoutlets" : 1,
					"id" : "obj-60"
				}

			}
, 			{
				"box" : 				{
					"maxclass" : "newobj",
					"text" : "groove~ sound",
					"fontsize" : 12.0,
					"outlettype" : [ "signal", "signal" ],
					"fontname" : "Helvetica",
					"numinlets" : 3,
					"patching_rect" : [ 536.0, 185.0, 90.0, 18.0 ],
					"numoutlets" : 2,
					"id" : "obj-62"
				}

			}
, 			{
				"box" : 				{
					"maxclass" : "newobj",
					"text" : "loadbang",
					"fontsize" : 12.0,
					"outlettype" : [ "bang" ],
					"fontname" : "Helvetica",
					"numinlets" : 1,
					"patching_rect" : [ 372.0, 127.0, 60.0, 18.0 ],
					"numoutlets" : 1,
					"id" : "obj-53"
				}

			}
, 			{
				"box" : 				{
					"maxclass" : "message",
					"text" : "loop 1",
					"fontsize" : 12.0,
					"outlettype" : [ "" ],
					"fontname" : "Helvetica",
					"numinlets" : 2,
					"patching_rect" : [ 372.0, 151.0, 43.0, 16.0 ],
					"numoutlets" : 1,
					"id" : "obj-54"
				}

			}
, 			{
				"box" : 				{
					"maxclass" : "newobj",
					"text" : "groove~ sound",
					"fontsize" : 12.0,
					"outlettype" : [ "signal", "signal" ],
					"fontname" : "Helvetica",
					"numinlets" : 3,
					"patching_rect" : [ 444.0, 185.0, 90.0, 18.0 ],
					"numoutlets" : 2,
					"id" : "obj-56"
				}

			}
, 			{
				"box" : 				{
					"maxclass" : "newobj",
					"text" : "loadbang",
					"fontsize" : 12.0,
					"outlettype" : [ "bang" ],
					"fontname" : "Helvetica",
					"numinlets" : 1,
					"patching_rect" : [ 281.0, 127.0, 60.0, 18.0 ],
					"numoutlets" : 1,
					"id" : "obj-42"
				}

			}
, 			{
				"box" : 				{
					"maxclass" : "message",
					"text" : "loop 1",
					"fontsize" : 12.0,
					"outlettype" : [ "" ],
					"fontname" : "Helvetica",
					"numinlets" : 2,
					"patching_rect" : [ 281.0, 151.0, 43.0, 16.0 ],
					"numoutlets" : 1,
					"id" : "obj-43"
				}

			}
, 			{
				"box" : 				{
					"maxclass" : "newobj",
					"text" : "groove~ sound",
					"fontsize" : 12.0,
					"outlettype" : [ "signal", "signal" ],
					"fontname" : "Helvetica",
					"numinlets" : 3,
					"patching_rect" : [ 353.0, 185.0, 90.0, 18.0 ],
					"numoutlets" : 2,
					"id" : "obj-46"
				}

			}
, 			{
				"box" : 				{
					"maxclass" : "newobj",
					"text" : "loadbang",
					"fontsize" : 12.0,
					"outlettype" : [ "bang" ],
					"fontname" : "Helvetica",
					"numinlets" : 1,
					"patching_rect" : [ 189.0, 127.0, 60.0, 18.0 ],
					"numoutlets" : 1,
					"id" : "obj-36"
				}

			}
, 			{
				"box" : 				{
					"maxclass" : "message",
					"text" : "loop 1",
					"fontsize" : 12.0,
					"outlettype" : [ "" ],
					"fontname" : "Helvetica",
					"numinlets" : 2,
					"patching_rect" : [ 189.0, 151.0, 43.0, 16.0 ],
					"numoutlets" : 1,
					"id" : "obj-37"
				}

			}
, 			{
				"box" : 				{
					"maxclass" : "newobj",
					"text" : "groove~ sound",
					"fontsize" : 12.0,
					"outlettype" : [ "signal", "signal" ],
					"fontname" : "Helvetica",
					"numinlets" : 3,
					"patching_rect" : [ 261.0, 185.0, 90.0, 18.0 ],
					"numoutlets" : 2,
					"id" : "obj-39"
				}

			}
, 			{
				"box" : 				{
					"maxclass" : "newobj",
					"text" : "loadbang",
					"fontsize" : 12.0,
					"outlettype" : [ "bang" ],
					"fontname" : "Helvetica",
					"numinlets" : 1,
					"patching_rect" : [ 98.0, 127.0, 60.0, 18.0 ],
					"numoutlets" : 1,
					"id" : "obj-26"
				}

			}
, 			{
				"box" : 				{
					"maxclass" : "message",
					"text" : "loop 1",
					"fontsize" : 12.0,
					"outlettype" : [ "" ],
					"fontname" : "Helvetica",
					"numinlets" : 2,
					"patching_rect" : [ 98.0, 151.0, 43.0, 16.0 ],
					"numoutlets" : 1,
					"id" : "obj-27"
				}

			}
, 			{
				"box" : 				{
					"maxclass" : "newobj",
					"text" : "groove~ sound",
					"fontsize" : 12.0,
					"outlettype" : [ "signal", "signal" ],
					"fontname" : "Helvetica",
					"numinlets" : 3,
					"patching_rect" : [ 170.0, 185.0, 90.0, 18.0 ],
					"numoutlets" : 2,
					"id" : "obj-30"
				}

			}
, 			{
				"box" : 				{
					"maxclass" : "message",
					"text" : "replace",
					"fontsize" : 12.0,
					"outlettype" : [ "" ],
					"fontname" : "Helvetica",
					"numinlets" : 2,
					"patching_rect" : [ 635.0, 307.0, 50.0, 16.0 ],
					"numoutlets" : 1,
					"id" : "obj-2"
				}

			}
, 			{
				"box" : 				{
					"maxclass" : "newobj",
					"text" : "loadbang",
					"fontsize" : 12.0,
					"outlettype" : [ "bang" ],
					"fontname" : "Helvetica",
					"numinlets" : 1,
					"patching_rect" : [ 6.0, 127.0, 60.0, 18.0 ],
					"numoutlets" : 1,
					"id" : "obj-3"
				}

			}
, 			{
				"box" : 				{
					"maxclass" : "message",
					"text" : "loop 1",
					"fontsize" : 12.0,
					"outlettype" : [ "" ],
					"fontname" : "Helvetica",
					"numinlets" : 2,
					"patching_rect" : [ 6.0, 151.0, 43.0, 16.0 ],
					"numoutlets" : 1,
					"id" : "obj-4"
				}

			}
, 			{
				"box" : 				{
					"maxclass" : "newobj",
					"text" : "buffer~ sound vs_harp_riff",
					"fontsize" : 12.0,
					"outlettype" : [ "float", "bang" ],
					"fontname" : "Helvetica",
					"numinlets" : 1,
					"patching_rect" : [ 635.0, 333.0, 150.0, 18.0 ],
					"numoutlets" : 2,
					"id" : "obj-9"
				}

			}
, 			{
				"box" : 				{
					"maxclass" : "newobj",
					"text" : "groove~ sound",
					"fontsize" : 12.0,
					"outlettype" : [ "signal", "signal" ],
					"fontname" : "Helvetica",
					"numinlets" : 3,
					"patching_rect" : [ 78.0, 186.0, 90.0, 18.0 ],
					"numoutlets" : 2,
					"id" : "obj-10"
				}

			}
, 			{
				"box" : 				{
					"maxclass" : "newobj",
					"text" : "dac~",
					"fontsize" : 12.0,
					"fontname" : "Helvetica",
					"numinlets" : 2,
					"patching_rect" : [ 528.0, 478.0, 37.0, 18.0 ],
					"numoutlets" : 0,
					"id" : "obj-51"
				}

			}
, 			{
				"box" : 				{
					"maxclass" : "message",
					"text" : "stop",
					"fontsize" : 12.0,
					"outlettype" : [ "" ],
					"fontname" : "Helvetica",
					"numinlets" : 2,
					"patching_rect" : [ 466.0, 454.0, 33.0, 16.0 ],
					"numoutlets" : 1,
					"id" : "obj-50"
				}

			}
, 			{
				"box" : 				{
					"maxclass" : "message",
					"text" : "startwindow",
					"fontsize" : 12.0,
					"outlettype" : [ "" ],
					"fontname" : "Helvetica",
					"numinlets" : 2,
					"patching_rect" : [ 451.0, 417.0, 74.0, 16.0 ],
					"numoutlets" : 1,
					"id" : "obj-49"
				}

			}
, 			{
				"box" : 				{
					"maxclass" : "gain~",
					"outlettype" : [ "signal", "int" ],
					"numinlets" : 2,
					"patching_rect" : [ 528.0, 330.0, 20.0, 140.0 ],
					"numoutlets" : 2,
					"id" : "obj-48"
				}

			}
, 			{
				"box" : 				{
					"maxclass" : "newobj",
					"text" : "*~ 0.125",
					"fontsize" : 12.0,
					"outlettype" : [ "signal" ],
					"fontname" : "Helvetica",
					"numinlets" : 2,
					"patching_rect" : [ 526.0, 306.0, 56.0, 18.0 ],
					"numoutlets" : 1,
					"id" : "obj-44"
				}

			}
, 			{
				"box" : 				{
					"maxclass" : "newobj",
					"text" : "s freqlist",
					"fontsize" : 12.0,
					"fontname" : "Helvetica",
					"numinlets" : 1,
					"patching_rect" : [ 38.0, 464.0, 65.0, 18.0 ],
					"numoutlets" : 0,
					"id" : "obj-28"
				}

			}
, 			{
				"box" : 				{
					"maxclass" : "message",
					"text" : "0",
					"fontsize" : 12.0,
					"outlettype" : [ "" ],
					"fontname" : "Helvetica",
					"numinlets" : 2,
					"patching_rect" : [ 38.0, 275.0, 41.0, 16.0 ],
					"numoutlets" : 1,
					"id" : "obj-31"
				}

			}
, 			{
				"box" : 				{
					"maxclass" : "newobj",
					"text" : "r freqlist",
					"fontsize" : 12.0,
					"outlettype" : [ "" ],
					"fontname" : "Helvetica",
					"numinlets" : 0,
					"patching_rect" : [ 76.0, 5.0, 53.0, 18.0 ],
					"numoutlets" : 1,
					"id" : "obj-32"
				}

			}
, 			{
				"box" : 				{
					"maxclass" : "multislider",
					"outlettype" : [ "", "" ],
					"setstyle" : 1,
					"candicane8" : [ 0.027451, 0.447059, 0.501961, 1.0 ],
					"candicane7" : [ 0.878431, 0.243137, 0.145098, 1.0 ],
					"peakcolor" : [ 0.498039, 0.498039, 0.498039, 1.0 ],
					"setminmax" : [ 0.125, 0.75 ],
					"candicane3" : [ 0.290196, 0.411765, 0.713726, 1.0 ],
					"size" : 8,
					"candicane6" : [ 0.733333, 0.035294, 0.788235, 1.0 ],
					"candicane2" : [ 0.145098, 0.203922, 0.356863, 1.0 ],
					"numinlets" : 1,
					"contdata" : 1,
					"signed" : 1,
					"candicane5" : [ 0.584314, 0.827451, 0.431373, 1.0 ],
					"patching_rect" : [ 38.0, 297.0, 364.0, 159.0 ],
					"numoutlets" : 2,
					"id" : "obj-33",
					"candicane4" : [ 0.439216, 0.619608, 0.070588, 1.0 ]
				}

			}
, 			{
				"box" : 				{
					"maxclass" : "comment",
					"text" : "zero the levels",
					"fontsize" : 12.0,
					"fontname" : "Helvetica",
					"numinlets" : 1,
					"patching_rect" : [ 80.0, 274.0, 123.0, 18.0 ],
					"numoutlets" : 0,
					"id" : "obj-82"
				}

			}
, 			{
				"box" : 				{
					"maxclass" : "newobj",
					"text" : "trigger 0. 0. 0. 0. 0. 0. 0. 0.",
					"fontsize" : 12.0,
					"outlettype" : [ "float", "float", "float", "float", "float", "float", "float", "float" ],
					"fontname" : "Helvetica",
					"numinlets" : 1,
					"patching_rect" : [ 76.0, 45.0, 661.0, 18.0 ],
					"numoutlets" : 8,
					"id" : "obj-12"
				}

			}
, 			{
				"box" : 				{
					"maxclass" : "flonum",
					"fontsize" : 12.0,
					"outlettype" : [ "float", "bang" ],
					"triscale" : 0.9,
					"maximum" : 0.75,
					"bgcolor" : [ 0.866667, 0.866667, 0.866667, 1.0 ],
					"htextcolor" : [ 0.870588, 0.870588, 0.870588, 1.0 ],
					"minimum" : 0.125,
					"fontname" : "Helvetica",
					"numinlets" : 1,
					"patching_rect" : [ 718.0, 92.0, 51.0, 18.0 ],
					"numoutlets" : 2,
					"id" : "obj-15",
					"fontface" : 1
				}

			}
, 			{
				"box" : 				{
					"maxclass" : "flonum",
					"fontsize" : 12.0,
					"outlettype" : [ "float", "bang" ],
					"triscale" : 0.9,
					"maximum" : 0.75,
					"bgcolor" : [ 0.866667, 0.866667, 0.866667, 1.0 ],
					"htextcolor" : [ 0.870588, 0.870588, 0.870588, 1.0 ],
					"minimum" : 0.125,
					"fontname" : "Helvetica",
					"numinlets" : 1,
					"patching_rect" : [ 626.0, 92.0, 51.0, 18.0 ],
					"numoutlets" : 2,
					"id" : "obj-16",
					"fontface" : 1
				}

			}
, 			{
				"box" : 				{
					"maxclass" : "flonum",
					"fontsize" : 12.0,
					"outlettype" : [ "float", "bang" ],
					"triscale" : 0.9,
					"maximum" : 0.75,
					"bgcolor" : [ 0.866667, 0.866667, 0.866667, 1.0 ],
					"htextcolor" : [ 0.870588, 0.870588, 0.870588, 1.0 ],
					"minimum" : 0.125,
					"fontname" : "Helvetica",
					"numinlets" : 1,
					"patching_rect" : [ 535.0, 92.0, 51.0, 18.0 ],
					"numoutlets" : 2,
					"id" : "obj-17",
					"fontface" : 1
				}

			}
, 			{
				"box" : 				{
					"maxclass" : "flonum",
					"fontsize" : 12.0,
					"outlettype" : [ "float", "bang" ],
					"triscale" : 0.9,
					"maximum" : 0.75,
					"bgcolor" : [ 0.866667, 0.866667, 0.866667, 1.0 ],
					"htextcolor" : [ 0.870588, 0.870588, 0.870588, 1.0 ],
					"minimum" : 0.125,
					"fontname" : "Helvetica",
					"numinlets" : 1,
					"patching_rect" : [ 441.0, 92.0, 51.0, 18.0 ],
					"numoutlets" : 2,
					"id" : "obj-18",
					"fontface" : 1
				}

			}
, 			{
				"box" : 				{
					"maxclass" : "flonum",
					"fontsize" : 12.0,
					"outlettype" : [ "float", "bang" ],
					"triscale" : 0.9,
					"maximum" : 0.75,
					"bgcolor" : [ 0.866667, 0.866667, 0.866667, 1.0 ],
					"htextcolor" : [ 0.870588, 0.870588, 0.870588, 1.0 ],
					"minimum" : 0.125,
					"fontname" : "Helvetica",
					"numinlets" : 1,
					"patching_rect" : [ 351.0, 92.0, 51.0, 18.0 ],
					"numoutlets" : 2,
					"id" : "obj-19",
					"fontface" : 1
				}

			}
, 			{
				"box" : 				{
					"maxclass" : "flonum",
					"fontsize" : 12.0,
					"outlettype" : [ "float", "bang" ],
					"triscale" : 0.9,
					"maximum" : 0.75,
					"bgcolor" : [ 0.866667, 0.866667, 0.866667, 1.0 ],
					"htextcolor" : [ 0.870588, 0.870588, 0.870588, 1.0 ],
					"minimum" : 0.125,
					"fontname" : "Helvetica",
					"numinlets" : 1,
					"patching_rect" : [ 259.0, 92.0, 51.0, 18.0 ],
					"numoutlets" : 2,
					"id" : "obj-20",
					"fontface" : 1
				}

			}
, 			{
				"box" : 				{
					"maxclass" : "flonum",
					"fontsize" : 12.0,
					"outlettype" : [ "float", "bang" ],
					"triscale" : 0.9,
					"maximum" : 0.75,
					"bgcolor" : [ 0.866667, 0.866667, 0.866667, 1.0 ],
					"htextcolor" : [ 0.870588, 0.870588, 0.870588, 1.0 ],
					"minimum" : 0.125,
					"fontname" : "Helvetica",
					"numinlets" : 1,
					"patching_rect" : [ 168.0, 92.0, 51.0, 18.0 ],
					"numoutlets" : 2,
					"id" : "obj-21",
					"fontface" : 1
				}

			}
, 			{
				"box" : 				{
					"maxclass" : "flonum",
					"fontsize" : 12.0,
					"outlettype" : [ "float", "bang" ],
					"triscale" : 0.9,
					"maximum" : 0.75,
					"bgcolor" : [ 0.866667, 0.866667, 0.866667, 1.0 ],
					"htextcolor" : [ 0.870588, 0.870588, 0.870588, 1.0 ],
					"minimum" : 0.125,
					"fontname" : "Helvetica",
					"numinlets" : 1,
					"patching_rect" : [ 76.0, 92.0, 51.0, 18.0 ],
					"numoutlets" : 2,
					"id" : "obj-22",
					"fontface" : 1
				}

			}
, 			{
				"box" : 				{
					"maxclass" : "panel",
					"rounded" : 0,
					"bgcolor" : [ 0.635294, 0.917647, 0.823529, 1.0 ],
					"bordercolor" : [ 1.0, 1.0, 1.0, 1.0 ],
					"numinlets" : 1,
					"patching_rect" : [ 75.0, 33.0, 682.0, 41.0 ],
					"numoutlets" : 0,
					"id" : "obj-24"
				}

			}
 ],
		"lines" : [ 			{
				"patchline" : 				{
					"source" : [ "obj-2", 0 ],
					"destination" : [ "obj-9", 0 ],
					"hidden" : 0,
					"midpoints" : [  ]
				}

			}
, 			{
				"patchline" : 				{
					"source" : [ "obj-74", 0 ],
					"destination" : [ "obj-44", 0 ],
					"hidden" : 0,
					"midpoints" : [  ]
				}

			}
, 			{
				"patchline" : 				{
					"source" : [ "obj-72", 0 ],
					"destination" : [ "obj-74", 0 ],
					"hidden" : 0,
					"midpoints" : [ 656.5, 175.0, 728.5, 175.0 ]
				}

			}
, 			{
				"patchline" : 				{
					"source" : [ "obj-15", 0 ],
					"destination" : [ "obj-74", 0 ],
					"hidden" : 0,
					"midpoints" : [  ]
				}

			}
, 			{
				"patchline" : 				{
					"source" : [ "obj-68", 0 ],
					"destination" : [ "obj-44", 0 ],
					"hidden" : 0,
					"midpoints" : [  ]
				}

			}
, 			{
				"patchline" : 				{
					"source" : [ "obj-66", 0 ],
					"destination" : [ "obj-68", 0 ],
					"hidden" : 0,
					"midpoints" : [ 564.5, 176.0, 636.5, 176.0 ]
				}

			}
, 			{
				"patchline" : 				{
					"source" : [ "obj-16", 0 ],
					"destination" : [ "obj-68", 0 ],
					"hidden" : 0,
					"midpoints" : [  ]
				}

			}
, 			{
				"patchline" : 				{
					"source" : [ "obj-62", 0 ],
					"destination" : [ "obj-44", 0 ],
					"hidden" : 0,
					"midpoints" : [  ]
				}

			}
, 			{
				"patchline" : 				{
					"source" : [ "obj-60", 0 ],
					"destination" : [ "obj-62", 0 ],
					"hidden" : 0,
					"midpoints" : [ 473.5, 176.0, 545.5, 176.0 ]
				}

			}
, 			{
				"patchline" : 				{
					"source" : [ "obj-17", 0 ],
					"destination" : [ "obj-62", 0 ],
					"hidden" : 0,
					"midpoints" : [  ]
				}

			}
, 			{
				"patchline" : 				{
					"source" : [ "obj-56", 0 ],
					"destination" : [ "obj-44", 0 ],
					"hidden" : 0,
					"midpoints" : [  ]
				}

			}
, 			{
				"patchline" : 				{
					"source" : [ "obj-54", 0 ],
					"destination" : [ "obj-56", 0 ],
					"hidden" : 0,
					"midpoints" : [ 381.5, 176.0, 453.5, 176.0 ]
				}

			}
, 			{
				"patchline" : 				{
					"source" : [ "obj-18", 0 ],
					"destination" : [ "obj-56", 0 ],
					"hidden" : 0,
					"midpoints" : [  ]
				}

			}
, 			{
				"patchline" : 				{
					"source" : [ "obj-46", 0 ],
					"destination" : [ "obj-44", 0 ],
					"hidden" : 0,
					"midpoints" : [  ]
				}

			}
, 			{
				"patchline" : 				{
					"source" : [ "obj-43", 0 ],
					"destination" : [ "obj-46", 0 ],
					"hidden" : 0,
					"midpoints" : [ 290.5, 176.0, 362.5, 176.0 ]
				}

			}
, 			{
				"patchline" : 				{
					"source" : [ "obj-19", 0 ],
					"destination" : [ "obj-46", 0 ],
					"hidden" : 0,
					"midpoints" : [  ]
				}

			}
, 			{
				"patchline" : 				{
					"source" : [ "obj-39", 0 ],
					"destination" : [ "obj-44", 0 ],
					"hidden" : 0,
					"midpoints" : [  ]
				}

			}
, 			{
				"patchline" : 				{
					"source" : [ "obj-37", 0 ],
					"destination" : [ "obj-39", 0 ],
					"hidden" : 0,
					"midpoints" : [ 198.5, 176.0, 270.5, 176.0 ]
				}

			}
, 			{
				"patchline" : 				{
					"source" : [ "obj-20", 0 ],
					"destination" : [ "obj-39", 0 ],
					"hidden" : 0,
					"midpoints" : [  ]
				}

			}
, 			{
				"patchline" : 				{
					"source" : [ "obj-30", 0 ],
					"destination" : [ "obj-44", 0 ],
					"hidden" : 0,
					"midpoints" : [  ]
				}

			}
, 			{
				"patchline" : 				{
					"source" : [ "obj-27", 0 ],
					"destination" : [ "obj-30", 0 ],
					"hidden" : 0,
					"midpoints" : [ 107.5, 176.0, 179.5, 176.0 ]
				}

			}
, 			{
				"patchline" : 				{
					"source" : [ "obj-21", 0 ],
					"destination" : [ "obj-30", 0 ],
					"hidden" : 0,
					"midpoints" : [  ]
				}

			}
, 			{
				"patchline" : 				{
					"source" : [ "obj-10", 0 ],
					"destination" : [ "obj-44", 0 ],
					"hidden" : 0,
					"midpoints" : [  ]
				}

			}
, 			{
				"patchline" : 				{
					"source" : [ "obj-4", 0 ],
					"destination" : [ "obj-10", 0 ],
					"hidden" : 0,
					"midpoints" : [ 15.5, 177.0, 87.5, 177.0 ]
				}

			}
, 			{
				"patchline" : 				{
					"source" : [ "obj-22", 0 ],
					"destination" : [ "obj-10", 0 ],
					"hidden" : 0,
					"midpoints" : [  ]
				}

			}
, 			{
				"patchline" : 				{
					"source" : [ "obj-12", 0 ],
					"destination" : [ "obj-22", 0 ],
					"hidden" : 0,
					"midpoints" : [  ]
				}

			}
, 			{
				"patchline" : 				{
					"source" : [ "obj-32", 0 ],
					"destination" : [ "obj-12", 0 ],
					"hidden" : 0,
					"midpoints" : [  ]
				}

			}
, 			{
				"patchline" : 				{
					"source" : [ "obj-12", 1 ],
					"destination" : [ "obj-21", 0 ],
					"hidden" : 0,
					"midpoints" : [  ]
				}

			}
, 			{
				"patchline" : 				{
					"source" : [ "obj-12", 2 ],
					"destination" : [ "obj-20", 0 ],
					"hidden" : 0,
					"midpoints" : [  ]
				}

			}
, 			{
				"patchline" : 				{
					"source" : [ "obj-12", 3 ],
					"destination" : [ "obj-19", 0 ],
					"hidden" : 0,
					"midpoints" : [  ]
				}

			}
, 			{
				"patchline" : 				{
					"source" : [ "obj-12", 4 ],
					"destination" : [ "obj-18", 0 ],
					"hidden" : 0,
					"midpoints" : [  ]
				}

			}
, 			{
				"patchline" : 				{
					"source" : [ "obj-12", 5 ],
					"destination" : [ "obj-17", 0 ],
					"hidden" : 0,
					"midpoints" : [  ]
				}

			}
, 			{
				"patchline" : 				{
					"source" : [ "obj-12", 6 ],
					"destination" : [ "obj-16", 0 ],
					"hidden" : 0,
					"midpoints" : [  ]
				}

			}
, 			{
				"patchline" : 				{
					"source" : [ "obj-12", 7 ],
					"destination" : [ "obj-15", 0 ],
					"hidden" : 0,
					"midpoints" : [  ]
				}

			}
, 			{
				"patchline" : 				{
					"source" : [ "obj-31", 0 ],
					"destination" : [ "obj-33", 0 ],
					"hidden" : 0,
					"midpoints" : [  ]
				}

			}
, 			{
				"patchline" : 				{
					"source" : [ "obj-33", 0 ],
					"destination" : [ "obj-28", 0 ],
					"hidden" : 0,
					"midpoints" : [  ]
				}

			}
, 			{
				"patchline" : 				{
					"source" : [ "obj-5", 0 ],
					"destination" : [ "obj-51", 1 ],
					"hidden" : 0,
					"midpoints" : [  ]
				}

			}
, 			{
				"patchline" : 				{
					"source" : [ "obj-48", 0 ],
					"destination" : [ "obj-51", 0 ],
					"hidden" : 0,
					"midpoints" : [  ]
				}

			}
, 			{
				"patchline" : 				{
					"source" : [ "obj-3", 0 ],
					"destination" : [ "obj-4", 0 ],
					"hidden" : 0,
					"midpoints" : [  ]
				}

			}
, 			{
				"patchline" : 				{
					"source" : [ "obj-26", 0 ],
					"destination" : [ "obj-27", 0 ],
					"hidden" : 0,
					"midpoints" : [  ]
				}

			}
, 			{
				"patchline" : 				{
					"source" : [ "obj-36", 0 ],
					"destination" : [ "obj-37", 0 ],
					"hidden" : 0,
					"midpoints" : [  ]
				}

			}
, 			{
				"patchline" : 				{
					"source" : [ "obj-42", 0 ],
					"destination" : [ "obj-43", 0 ],
					"hidden" : 0,
					"midpoints" : [  ]
				}

			}
, 			{
				"patchline" : 				{
					"source" : [ "obj-53", 0 ],
					"destination" : [ "obj-54", 0 ],
					"hidden" : 0,
					"midpoints" : [  ]
				}

			}
, 			{
				"patchline" : 				{
					"source" : [ "obj-59", 0 ],
					"destination" : [ "obj-60", 0 ],
					"hidden" : 0,
					"midpoints" : [  ]
				}

			}
, 			{
				"patchline" : 				{
					"source" : [ "obj-65", 0 ],
					"destination" : [ "obj-66", 0 ],
					"hidden" : 0,
					"midpoints" : [  ]
				}

			}
, 			{
				"patchline" : 				{
					"source" : [ "obj-71", 0 ],
					"destination" : [ "obj-72", 0 ],
					"hidden" : 0,
					"midpoints" : [  ]
				}

			}
, 			{
				"patchline" : 				{
					"source" : [ "obj-44", 0 ],
					"destination" : [ "obj-48", 0 ],
					"hidden" : 0,
					"midpoints" : [  ]
				}

			}
, 			{
				"patchline" : 				{
					"source" : [ "obj-44", 0 ],
					"destination" : [ "obj-5", 0 ],
					"hidden" : 0,
					"midpoints" : [  ]
				}

			}
, 			{
				"patchline" : 				{
					"source" : [ "obj-50", 0 ],
					"destination" : [ "obj-51", 0 ],
					"hidden" : 0,
					"midpoints" : [  ]
				}

			}
, 			{
				"patchline" : 				{
					"source" : [ "obj-49", 0 ],
					"destination" : [ "obj-51", 0 ],
					"hidden" : 0,
					"midpoints" : [  ]
				}

			}
 ]
	}

}
