{
	"patcher" : 	{
		"fileversion" : 1,
		"rect" : [ 11.0, 44.0, 269.0, 271.0 ],
		"bglocked" : 0,
		"defrect" : [ 11.0, 44.0, 269.0, 271.0 ],
		"openrect" : [ 0.0, 0.0, 0.0, 0.0 ],
		"openinpresentation" : 0,
		"default_fontsize" : 12.0,
		"default_fontface" : 0,
		"default_fontname" : "Arial",
		"gridonopen" : 0,
		"gridsize" : [ 15.0, 15.0 ],
		"gridsnaponopen" : 0,
		"toolbarvisible" : 1,
		"boxanimatetime" : 200,
		"imprint" : 0,
		"enablehscroll" : 1,
		"enablevscroll" : 1,
		"devicewidth" : 0.0,
		"boxes" : [ 			{
				"box" : 				{
					"maxclass" : "newobj",
					"text" : "onepole~ 1000",
					"numinlets" : 2,
					"numoutlets" : 1,
					"patching_rect" : [ 65.0, 46.0, 91.0, 20.0 ],
					"outlettype" : [ "signal" ],
					"id" : "obj-2",
					"fontname" : "Arial",
					"fontsize" : 12.0
				}

			}
, 			{
				"box" : 				{
					"maxclass" : "newobj",
					"text" : "out~ 2",
					"numinlets" : 1,
					"numoutlets" : 0,
					"patching_rect" : [ 94.0, 248.0, 44.0, 20.0 ],
					"id" : "obj-16",
					"fontname" : "Arial",
					"fontsize" : 12.0,
					"saved_object_attributes" : 					{

					}

				}

			}
, 			{
				"box" : 				{
					"maxclass" : "newobj",
					"text" : "out~ 1",
					"numinlets" : 1,
					"numoutlets" : 0,
					"patching_rect" : [ 48.0, 248.0, 44.0, 20.0 ],
					"id" : "obj-15",
					"fontname" : "Arial",
					"fontsize" : 12.0,
					"saved_object_attributes" : 					{

					}

				}

			}
, 			{
				"box" : 				{
					"maxclass" : "newobj",
					"text" : "line~",
					"numinlets" : 2,
					"numoutlets" : 2,
					"patching_rect" : [ 6.0, 161.0, 36.0, 20.0 ],
					"outlettype" : [ "signal", "bang" ],
					"id" : "obj-14",
					"fontname" : "Arial",
					"fontsize" : 12.0
				}

			}
, 			{
				"box" : 				{
					"maxclass" : "message",
					"text" : "$1 50",
					"numinlets" : 2,
					"numoutlets" : 1,
					"patching_rect" : [ 6.0, 104.0, 41.0, 18.0 ],
					"outlettype" : [ "" ],
					"id" : "obj-13",
					"fontname" : "Arial",
					"fontsize" : 12.0
				}

			}
, 			{
				"box" : 				{
					"maxclass" : "newobj",
					"text" : "in 1",
					"numinlets" : 1,
					"numoutlets" : 1,
					"patching_rect" : [ 6.0, 4.0, 30.0, 20.0 ],
					"outlettype" : [ "" ],
					"id" : "obj-10",
					"fontname" : "Arial",
					"fontsize" : 12.0,
					"saved_object_attributes" : 					{

					}

				}

			}
, 			{
				"box" : 				{
					"maxclass" : "newobj",
					"text" : "*~",
					"numinlets" : 2,
					"numoutlets" : 1,
					"patching_rect" : [ 90.0, 212.0, 32.5, 20.0 ],
					"outlettype" : [ "signal" ],
					"id" : "obj-9",
					"fontname" : "Arial",
					"fontsize" : 12.0
				}

			}
, 			{
				"box" : 				{
					"maxclass" : "newobj",
					"text" : "*~",
					"numinlets" : 2,
					"numoutlets" : 1,
					"patching_rect" : [ 48.0, 213.0, 32.5, 20.0 ],
					"outlettype" : [ "signal" ],
					"id" : "obj-7",
					"fontname" : "Arial",
					"fontsize" : 12.0
				}

			}
, 			{
				"box" : 				{
					"maxclass" : "newobj",
					"text" : "unpack 0. 0.",
					"numinlets" : 1,
					"numoutlets" : 2,
					"patching_rect" : [ 177.0, 32.0, 76.0, 20.0 ],
					"outlettype" : [ "float", "float" ],
					"id" : "obj-6",
					"fontname" : "Arial",
					"fontsize" : 12.0
				}

			}
, 			{
				"box" : 				{
					"maxclass" : "newobj",
					"text" : "vs.kpan~",
					"numinlets" : 2,
					"numoutlets" : 2,
					"patching_rect" : [ 64.0, 151.0, 59.0, 20.0 ],
					"outlettype" : [ "signal", "signal" ],
					"id" : "obj-5",
					"fontname" : "Arial",
					"fontsize" : 12.0
				}

			}
, 			{
				"box" : 				{
					"maxclass" : "newobj",
					"text" : "in 2",
					"numinlets" : 1,
					"numoutlets" : 1,
					"patching_rect" : [ 177.0, 5.0, 30.0, 20.0 ],
					"outlettype" : [ "" ],
					"id" : "obj-4",
					"fontname" : "Arial",
					"fontsize" : 12.0,
					"saved_object_attributes" : 					{

					}

				}

			}
, 			{
				"box" : 				{
					"maxclass" : "newobj",
					"text" : "vs.dust~ #1",
					"numinlets" : 1,
					"numoutlets" : 1,
					"patching_rect" : [ 65.0, 16.0, 72.0, 20.0 ],
					"outlettype" : [ "signal" ],
					"id" : "obj-1",
					"fontname" : "Arial",
					"fontsize" : 12.0
				}

			}
, 			{
				"box" : 				{
					"maxclass" : "newobj",
					"text" : "reson~",
					"numinlets" : 4,
					"numoutlets" : 1,
					"patching_rect" : [ 64.0, 95.0, 167.5, 20.0 ],
					"outlettype" : [ "signal" ],
					"id" : "obj-3",
					"fontname" : "Arial",
					"fontsize" : 12.0
				}

			}
 ],
		"lines" : [ 			{
				"patchline" : 				{
					"source" : [ "obj-2", 0 ],
					"destination" : [ "obj-3", 0 ],
					"hidden" : 0,
					"midpoints" : [  ]
				}

			}
, 			{
				"patchline" : 				{
					"source" : [ "obj-1", 0 ],
					"destination" : [ "obj-2", 0 ],
					"hidden" : 0,
					"midpoints" : [  ]
				}

			}
, 			{
				"patchline" : 				{
					"source" : [ "obj-4", 0 ],
					"destination" : [ "obj-6", 0 ],
					"hidden" : 0,
					"midpoints" : [  ]
				}

			}
, 			{
				"patchline" : 				{
					"source" : [ "obj-6", 1 ],
					"destination" : [ "obj-5", 1 ],
					"hidden" : 0,
					"midpoints" : [ 243.5, 135.0, 113.5, 135.0 ]
				}

			}
, 			{
				"patchline" : 				{
					"source" : [ "obj-6", 0 ],
					"destination" : [ "obj-3", 3 ],
					"hidden" : 0,
					"midpoints" : [ 186.5, 73.0, 222.0, 73.0 ]
				}

			}
, 			{
				"patchline" : 				{
					"source" : [ "obj-6", 0 ],
					"destination" : [ "obj-3", 2 ],
					"hidden" : 0,
					"midpoints" : [ 186.5, 73.0, 172.5, 73.0 ]
				}

			}
, 			{
				"patchline" : 				{
					"source" : [ "obj-6", 0 ],
					"destination" : [ "obj-3", 1 ],
					"hidden" : 0,
					"midpoints" : [ 186.5, 73.0, 123.0, 73.0 ]
				}

			}
, 			{
				"patchline" : 				{
					"source" : [ "obj-3", 0 ],
					"destination" : [ "obj-5", 0 ],
					"hidden" : 0,
					"midpoints" : [  ]
				}

			}
, 			{
				"patchline" : 				{
					"source" : [ "obj-5", 0 ],
					"destination" : [ "obj-7", 1 ],
					"hidden" : 0,
					"midpoints" : [  ]
				}

			}
, 			{
				"patchline" : 				{
					"source" : [ "obj-5", 1 ],
					"destination" : [ "obj-9", 1 ],
					"hidden" : 0,
					"midpoints" : [  ]
				}

			}
, 			{
				"patchline" : 				{
					"source" : [ "obj-10", 0 ],
					"destination" : [ "obj-13", 0 ],
					"hidden" : 0,
					"midpoints" : [  ]
				}

			}
, 			{
				"patchline" : 				{
					"source" : [ "obj-13", 0 ],
					"destination" : [ "obj-14", 0 ],
					"hidden" : 0,
					"midpoints" : [  ]
				}

			}
, 			{
				"patchline" : 				{
					"source" : [ "obj-14", 0 ],
					"destination" : [ "obj-7", 0 ],
					"hidden" : 0,
					"midpoints" : [  ]
				}

			}
, 			{
				"patchline" : 				{
					"source" : [ "obj-14", 0 ],
					"destination" : [ "obj-9", 0 ],
					"hidden" : 0,
					"midpoints" : [  ]
				}

			}
, 			{
				"patchline" : 				{
					"source" : [ "obj-7", 0 ],
					"destination" : [ "obj-15", 0 ],
					"hidden" : 0,
					"midpoints" : [  ]
				}

			}
, 			{
				"patchline" : 				{
					"source" : [ "obj-9", 0 ],
					"destination" : [ "obj-16", 0 ],
					"hidden" : 0,
					"midpoints" : [  ]
				}

			}
 ]
	}

}
