{
	"patcher" : 	{
		"fileversion" : 1,
		"rect" : [ 4.0, 44.0, 634.0, 540.0 ],
		"bglocked" : 0,
		"defrect" : [ 4.0, 44.0, 634.0, 540.0 ],
		"openrect" : [ 0.0, 0.0, 0.0, 0.0 ],
		"openinpresentation" : 0,
		"default_fontsize" : 12.0,
		"default_fontface" : 0,
		"default_fontname" : "Arial",
		"gridonopen" : 0,
		"gridsize" : [ 15.0, 15.0 ],
		"gridsnaponopen" : 0,
		"toolbarvisible" : 1,
		"boxanimatetime" : 200,
		"imprint" : 0,
		"enablehscroll" : 1,
		"enablevscroll" : 1,
		"devicewidth" : 0.0,
		"boxes" : [ 			{
				"box" : 				{
					"maxclass" : "preset",
					"patching_rect" : [ 114.0, 307.0, 100.0, 40.0 ],
					"id" : "obj-1",
					"numinlets" : 1,
					"numoutlets" : 4,
					"outlettype" : [ "preset", "int", "preset", "int" ],
					"preset_data" : [ 						{
							"number" : 1,
							"data" : [ 5, "obj-37", "flonum", "float", -2.993321, 5, "obj-36", "flonum", "float", 2.84634, 5, "obj-31", "flonum", "float", 1.0, 5, "obj-23", "flonum", "float", 0.1, 4, "obj-22", "function", "clear", 7, "obj-22", "function", "add", 0.0, 4.0, 0, 7, "obj-22", "function", "add", 0.11039, 0.715789, 0, 7, "obj-22", "function", "add", 0.298701, -0.294737, 0, 7, "obj-22", "function", "add", 0.409091, -0.126316, 0, 7, "obj-22", "function", "add", 0.577922, -2.147368, 0, 7, "obj-22", "function", "add", 1.0, -4.0, 0, 5, "obj-22", "function", "domain", 1.0, 6, "obj-22", "function", "range", -4.0, 4.0, 4, "obj-21", "function", "clear", 7, "obj-21", "function", "add", 0.0, 1.305263, 0, 7, "obj-21", "function", "add", 0.233766, 1.305263, 0, 7, "obj-21", "function", "add", 0.340909, 0.126316, 0, 7, "obj-21", "function", "add", 0.464286, 1.305263, 0, 7, "obj-21", "function", "add", 1.0, 4.0, 0, 5, "obj-21", "function", "domain", 1.0, 6, "obj-21", "function", "range", -4.0, 4.0, 5, "obj-18", "flonum", "float", -4.0, 5, "obj-17", "flonum", "float", 4.0, 5, "obj-11", "flonum", "float", 10.0 ]
						}
, 						{
							"number" : 2,
							"data" : [ 5, "obj-37", "flonum", "float", 1.271302, 5, "obj-36", "flonum", "float", 1.25197, 5, "obj-31", "flonum", "float", 1.0, 5, "obj-23", "flonum", "float", 0.006579, 4, "obj-22", "function", "clear", 7, "obj-22", "function", "add", 0.003247, 1.0, 0, 7, "obj-22", "function", "add", 0.941558, 5.011579, 0, 7, "obj-22", "function", "add", 1.0, 5.011579, 0, 5, "obj-22", "function", "domain", 1.0, 6, "obj-22", "function", "range", 1.0, 11.3, 4, "obj-21", "function", "clear", 7, "obj-21", "function", "add", 0.00974, 1.0, 0, 7, "obj-21", "function", "add", 0.941176, 5.12, 0, 7, "obj-21", "function", "add", 1.0, 5.12, 0, 5, "obj-21", "function", "domain", 1.0, 6, "obj-21", "function", "range", 1.0, 11.3, 5, "obj-18", "flonum", "float", 1.0, 5, "obj-17", "flonum", "float", 11.3, 5, "obj-11", "flonum", "float", 152.0 ]
						}
, 						{
							"number" : 3,
							"data" : [ 5, "obj-37", "flonum", "float", 10.124329, 5, "obj-36", "flonum", "float", 7.631584, 5, "obj-31", "flonum", "float", 1.0, 5, "obj-23", "flonum", "float", 0.1, 4, "obj-22", "function", "clear", 7, "obj-22", "function", "add", 0.0, 11.0, 0, 7, "obj-22", "function", "add", 0.11039, 6.894737, 0, 7, "obj-22", "function", "add", 0.298701, 5.631577, 0, 7, "obj-22", "function", "add", 0.409091, 5.84211, 0, 7, "obj-22", "function", "add", 0.577922, 3.315788, 0, 7, "obj-22", "function", "add", 1.0, 1.0, 0, 5, "obj-22", "function", "domain", 1.0, 6, "obj-22", "function", "range", 1.0, 11.0, 4, "obj-21", "function", "clear", 7, "obj-21", "function", "add", 0.0, 7.631584, 0, 7, "obj-21", "function", "add", 0.233766, 7.631584, 0, 7, "obj-21", "function", "add", 0.340909, 6.15789, 0, 7, "obj-21", "function", "add", 0.464286, 7.631584, 0, 7, "obj-21", "function", "add", 1.0, 11.0, 0, 5, "obj-21", "function", "domain", 1.0, 6, "obj-21", "function", "range", 1.0, 11.0, 5, "obj-18", "flonum", "float", 1.0, 5, "obj-17", "flonum", "float", 11.0, 5, "obj-11", "flonum", "float", 10.0 ]
						}
, 						{
							"number" : 4,
							"data" : [ 5, "obj-37", "flonum", "float", 1.0, 5, "obj-36", "flonum", "float", 7.830533, 5, "obj-31", "flonum", "float", 1.0, 5, "obj-23", "flonum", "float", 0.1, 4, "obj-22", "function", "clear", 7, "obj-22", "function", "add", 0.00974, 1.0, 0, 7, "obj-22", "function", "add", 1.0, 1.0, 0, 5, "obj-22", "function", "domain", 1.0, 6, "obj-22", "function", "range", 1.0, 11.3, 4, "obj-21", "function", "clear", 7, "obj-21", "function", "add", 0.0, 7.830534, 0, 7, "obj-21", "function", "add", 0.993506, 7.830528, 0, 5, "obj-21", "function", "domain", 1.0, 6, "obj-21", "function", "range", 1.0, 11.3, 5, "obj-18", "flonum", "float", 1.0, 5, "obj-17", "flonum", "float", 11.3, 5, "obj-11", "flonum", "float", 10.0 ]
						}
, 						{
							"number" : 5,
							"data" : [ 5, "obj-37", "flonum", "float", 1.0, 5, "obj-36", "flonum", "float", 1.0, 5, "obj-31", "flonum", "float", 1.0, 5, "obj-23", "flonum", "float", 0.025, 4, "obj-22", "function", "clear", 7, "obj-22", "function", "add", 0.003247, 1.0, 0, 7, "obj-22", "function", "add", 1.0, 1.0, 0, 5, "obj-22", "function", "domain", 1.0, 6, "obj-22", "function", "range", 1.0, 7.95, 4, "obj-21", "function", "clear", 7, "obj-21", "function", "add", 0.00974, 1.0, 0, 7, "obj-21", "function", "add", 0.181818, 1.0, 0, 7, "obj-21", "function", "add", 0.808442, 7.95, 0, 7, "obj-21", "function", "add", 0.99026, 7.95, 0, 5, "obj-21", "function", "domain", 1.0, 6, "obj-21", "function", "range", 1.0, 7.95, 5, "obj-18", "flonum", "float", 1.0, 5, "obj-17", "flonum", "float", 7.95, 5, "obj-11", "flonum", "float", 40.0 ]
						}
, 						{
							"number" : 6,
							"data" : [ 5, "obj-37", "flonum", "float", 2.0, 5, "obj-36", "flonum", "float", 2.0, 5, "obj-31", "flonum", "float", 1.0, 5, "obj-23", "flonum", "float", 0.025, 4, "obj-22", "function", "clear", 7, "obj-22", "function", "add", 0.003247, 2.0, 0, 7, "obj-22", "function", "add", 1.0, 2.0, 0, 5, "obj-22", "function", "domain", 1.0, 6, "obj-22", "function", "range", 2.0, 11.3, 4, "obj-21", "function", "clear", 7, "obj-21", "function", "add", 0.00974, 2.0, 0, 7, "obj-21", "function", "add", 0.068182, 2.0, 0, 7, "obj-21", "function", "add", 0.188312, 2.097895, 0, 7, "obj-21", "function", "add", 0.886364, 2.0, 0, 7, "obj-21", "function", "add", 1.0, 2.0, 0, 5, "obj-21", "function", "domain", 1.0, 6, "obj-21", "function", "range", 2.0, 11.3, 5, "obj-18", "flonum", "float", 2.0, 5, "obj-17", "flonum", "float", 11.3, 5, "obj-11", "flonum", "float", 40.0 ]
						}
, 						{
							"number" : 7,
							"data" : [ 5, "obj-37", "flonum", "float", 3.0, 5, "obj-36", "flonum", "float", 3.0188, 5, "obj-31", "flonum", "float", 1.0, 5, "obj-23", "flonum", "float", 0.025, 4, "obj-22", "function", "clear", 7, "obj-22", "function", "add", 0.003247, 3.0, 0, 7, "obj-22", "function", "add", 1.0, 3.0, 0, 5, "obj-22", "function", "domain", 1.0, 6, "obj-22", "function", "range", 3.0, 11.3, 4, "obj-21", "function", "clear", 7, "obj-21", "function", "add", 0.00974, 3.0, 0, 7, "obj-21", "function", "add", 0.117647, 3.087368, 0, 7, "obj-21", "function", "add", 1.0, 3.0, 0, 5, "obj-21", "function", "domain", 1.0, 6, "obj-21", "function", "range", 3.0, 11.3, 5, "obj-18", "flonum", "float", 3.0, 5, "obj-17", "flonum", "float", 11.3, 5, "obj-11", "flonum", "float", 40.0 ]
						}
, 						{
							"number" : 8,
							"data" : [ 5, "obj-37", "flonum", "float", -3.175676, 5, "obj-36", "flonum", "float", -3.220067, 5, "obj-31", "flonum", "float", 1.0, 5, "obj-23", "flonum", "float", 0.006579, 4, "obj-22", "function", "clear", 7, "obj-22", "function", "add", 0.003247, -4.0, 0, 7, "obj-22", "function", "add", 0.951299, -0.084211, 0, 7, "obj-22", "function", "add", 1.0, 0.0, 0, 5, "obj-22", "function", "domain", 1.0, 6, "obj-22", "function", "range", -4.0, 0.0, 4, "obj-21", "function", "clear", 7, "obj-21", "function", "add", 0.00974, -4.0, 0, 7, "obj-21", "function", "add", 1.0, 0.0, 0, 5, "obj-21", "function", "domain", 1.0, 6, "obj-21", "function", "range", -4.0, 0.0, 5, "obj-18", "flonum", "float", -4.0, 5, "obj-17", "flonum", "float", 0.0, 5, "obj-11", "flonum", "float", 152.0 ]
						}
 ]
				}

			}
, 			{
				"box" : 				{
					"maxclass" : "gain~",
					"patching_rect" : [ 259.0, 353.0, 20.0, 140.0 ],
					"id" : "obj-46",
					"numinlets" : 2,
					"numoutlets" : 2,
					"outlettype" : [ "signal", "int" ],
					"interp" : 65.0
				}

			}
, 			{
				"box" : 				{
					"maxclass" : "newobj",
					"text" : "dac~",
					"patching_rect" : [ 232.0, 515.0, 37.0, 20.0 ],
					"id" : "obj-51",
					"numinlets" : 2,
					"fontname" : "Arial",
					"numoutlets" : 0,
					"fontsize" : 12.0
				}

			}
, 			{
				"box" : 				{
					"maxclass" : "message",
					"text" : "stop",
					"patching_rect" : [ 149.0, 451.0, 33.0, 18.0 ],
					"id" : "obj-50",
					"numinlets" : 2,
					"fontname" : "Arial",
					"numoutlets" : 1,
					"outlettype" : [ "" ],
					"fontsize" : 12.0
				}

			}
, 			{
				"box" : 				{
					"maxclass" : "message",
					"text" : "startwindow",
					"patching_rect" : [ 147.0, 401.0, 74.0, 18.0 ],
					"id" : "obj-49",
					"numinlets" : 2,
					"fontname" : "Arial",
					"numoutlets" : 1,
					"outlettype" : [ "" ],
					"fontsize" : 12.0
				}

			}
, 			{
				"box" : 				{
					"maxclass" : "gain~",
					"patching_rect" : [ 232.0, 353.0, 20.0, 140.0 ],
					"id" : "obj-48",
					"numinlets" : 2,
					"numoutlets" : 2,
					"outlettype" : [ "signal", "int" ]
				}

			}
, 			{
				"box" : 				{
					"maxclass" : "newobj",
					"text" : "p 8_audiofile",
					"patching_rect" : [ 231.0, 291.0, 79.0, 20.0 ],
					"id" : "obj-44",
					"numinlets" : 1,
					"fontname" : "Arial",
					"numoutlets" : 1,
					"outlettype" : [ "signal" ],
					"fontsize" : 12.0,
					"patcher" : 					{
						"fileversion" : 1,
						"rect" : [ 376.0, 130.0, 964.0, 452.0 ],
						"bglocked" : 0,
						"defrect" : [ 376.0, 130.0, 964.0, 452.0 ],
						"openrect" : [ 0.0, 0.0, 0.0, 0.0 ],
						"openinpresentation" : 0,
						"default_fontsize" : 12.0,
						"default_fontface" : 0,
						"default_fontname" : "Arial",
						"gridonopen" : 0,
						"gridsize" : [ 15.0, 15.0 ],
						"gridsnaponopen" : 0,
						"toolbarvisible" : 1,
						"boxanimatetime" : 200,
						"imprint" : 0,
						"enablehscroll" : 1,
						"enablevscroll" : 1,
						"devicewidth" : 0.0,
						"boxes" : [ 							{
								"box" : 								{
									"maxclass" : "outlet",
									"patching_rect" : [ 165.0, 407.0, 25.0, 25.0 ],
									"id" : "obj-28",
									"numinlets" : 1,
									"numoutlets" : 0,
									"comment" : ""
								}

							}
, 							{
								"box" : 								{
									"maxclass" : "inlet",
									"patching_rect" : [ 76.0, 63.0, 25.0, 25.0 ],
									"id" : "obj-25",
									"numinlets" : 0,
									"numoutlets" : 1,
									"outlettype" : [ "" ],
									"comment" : ""
								}

							}
, 							{
								"box" : 								{
									"maxclass" : "newobj",
									"text" : "sig~",
									"patching_rect" : [ 713.859009, 187.097595, 33.0, 20.0 ],
									"id" : "obj-23",
									"numinlets" : 1,
									"fontname" : "Arial",
									"numoutlets" : 1,
									"outlettype" : [ "signal" ],
									"fontsize" : 12.0
								}

							}
, 							{
								"box" : 								{
									"maxclass" : "newobj",
									"text" : "sig~",
									"patching_rect" : [ 621.859009, 187.097595, 33.0, 20.0 ],
									"id" : "obj-14",
									"numinlets" : 1,
									"fontname" : "Arial",
									"numoutlets" : 1,
									"outlettype" : [ "signal" ],
									"fontsize" : 12.0
								}

							}
, 							{
								"box" : 								{
									"maxclass" : "newobj",
									"text" : "sig~",
									"patching_rect" : [ 532.859009, 186.097595, 33.0, 20.0 ],
									"id" : "obj-13",
									"numinlets" : 1,
									"fontname" : "Arial",
									"numoutlets" : 1,
									"outlettype" : [ "signal" ],
									"fontsize" : 12.0
								}

							}
, 							{
								"box" : 								{
									"maxclass" : "newobj",
									"text" : "sig~",
									"patching_rect" : [ 436.859009, 185.097595, 33.0, 20.0 ],
									"id" : "obj-11",
									"numinlets" : 1,
									"fontname" : "Arial",
									"numoutlets" : 1,
									"outlettype" : [ "signal" ],
									"fontsize" : 12.0
								}

							}
, 							{
								"box" : 								{
									"maxclass" : "newobj",
									"text" : "sig~",
									"patching_rect" : [ 346.859009, 185.097595, 33.0, 20.0 ],
									"id" : "obj-8",
									"numinlets" : 1,
									"fontname" : "Arial",
									"numoutlets" : 1,
									"outlettype" : [ "signal" ],
									"fontsize" : 12.0
								}

							}
, 							{
								"box" : 								{
									"maxclass" : "newobj",
									"text" : "sig~",
									"patching_rect" : [ 252.859009, 185.097595, 33.0, 20.0 ],
									"id" : "obj-7",
									"numinlets" : 1,
									"fontname" : "Arial",
									"numoutlets" : 1,
									"outlettype" : [ "signal" ],
									"fontsize" : 12.0
								}

							}
, 							{
								"box" : 								{
									"maxclass" : "newobj",
									"text" : "sig~",
									"patching_rect" : [ 163.859009, 186.097595, 33.0, 20.0 ],
									"id" : "obj-6",
									"numinlets" : 1,
									"fontname" : "Arial",
									"numoutlets" : 1,
									"outlettype" : [ "signal" ],
									"fontsize" : 12.0
								}

							}
, 							{
								"box" : 								{
									"maxclass" : "newobj",
									"text" : "sig~",
									"patching_rect" : [ 70.859009, 182.097595, 33.0, 20.0 ],
									"id" : "obj-1",
									"numinlets" : 1,
									"fontname" : "Arial",
									"numoutlets" : 1,
									"outlettype" : [ "signal" ],
									"fontsize" : 12.0
								}

							}
, 							{
								"box" : 								{
									"maxclass" : "newobj",
									"text" : "groove~ suono",
									"patching_rect" : [ 770.0, 263.0, 90.0, 20.0 ],
									"id" : "obj-74",
									"numinlets" : 3,
									"fontname" : "Arial",
									"numoutlets" : 2,
									"outlettype" : [ "signal", "signal" ],
									"fontsize" : 12.0
								}

							}
, 							{
								"box" : 								{
									"maxclass" : "newobj",
									"text" : "groove~ suono",
									"patching_rect" : [ 678.0, 263.0, 90.0, 20.0 ],
									"id" : "obj-68",
									"numinlets" : 3,
									"fontname" : "Arial",
									"numoutlets" : 2,
									"outlettype" : [ "signal", "signal" ],
									"fontsize" : 12.0
								}

							}
, 							{
								"box" : 								{
									"maxclass" : "newobj",
									"text" : "groove~ suono",
									"patching_rect" : [ 587.0, 263.0, 90.0, 20.0 ],
									"id" : "obj-62",
									"numinlets" : 3,
									"fontname" : "Arial",
									"numoutlets" : 2,
									"outlettype" : [ "signal", "signal" ],
									"fontsize" : 12.0
								}

							}
, 							{
								"box" : 								{
									"maxclass" : "newobj",
									"text" : "groove~ suono",
									"patching_rect" : [ 495.0, 263.0, 90.0, 20.0 ],
									"id" : "obj-56",
									"numinlets" : 3,
									"fontname" : "Arial",
									"numoutlets" : 2,
									"outlettype" : [ "signal", "signal" ],
									"fontsize" : 12.0
								}

							}
, 							{
								"box" : 								{
									"maxclass" : "newobj",
									"text" : "groove~ suono",
									"patching_rect" : [ 404.0, 263.0, 90.0, 20.0 ],
									"id" : "obj-46",
									"numinlets" : 3,
									"fontname" : "Arial",
									"numoutlets" : 2,
									"outlettype" : [ "signal", "signal" ],
									"fontsize" : 12.0
								}

							}
, 							{
								"box" : 								{
									"maxclass" : "newobj",
									"text" : "groove~ suono",
									"patching_rect" : [ 312.0, 263.0, 90.0, 20.0 ],
									"id" : "obj-39",
									"numinlets" : 3,
									"fontname" : "Arial",
									"numoutlets" : 2,
									"outlettype" : [ "signal", "signal" ],
									"fontsize" : 12.0
								}

							}
, 							{
								"box" : 								{
									"maxclass" : "newobj",
									"text" : "groove~ suono",
									"patching_rect" : [ 221.0, 263.0, 90.0, 20.0 ],
									"id" : "obj-30",
									"numinlets" : 3,
									"fontname" : "Arial",
									"numoutlets" : 2,
									"outlettype" : [ "signal", "signal" ],
									"fontsize" : 12.0
								}

							}
, 							{
								"box" : 								{
									"maxclass" : "newobj",
									"text" : "loadbang",
									"patching_rect" : [ 813.0, 196.0, 60.0, 20.0 ],
									"id" : "obj-3",
									"numinlets" : 1,
									"fontname" : "Arial",
									"numoutlets" : 1,
									"outlettype" : [ "bang" ],
									"fontsize" : 12.0
								}

							}
, 							{
								"box" : 								{
									"maxclass" : "message",
									"text" : "loop 1",
									"patching_rect" : [ 813.0, 219.0, 43.0, 18.0 ],
									"id" : "obj-4",
									"numinlets" : 2,
									"fontname" : "Arial",
									"numoutlets" : 1,
									"outlettype" : [ "" ],
									"fontsize" : 12.0
								}

							}
, 							{
								"box" : 								{
									"maxclass" : "newobj",
									"text" : "buffer~ suono vs_harp_riff",
									"patching_rect" : [ 437.0, 379.0, 150.0, 20.0 ],
									"id" : "obj-9",
									"numinlets" : 1,
									"fontname" : "Arial",
									"numoutlets" : 2,
									"outlettype" : [ "float", "bang" ],
									"fontsize" : 12.0
								}

							}
, 							{
								"box" : 								{
									"maxclass" : "newobj",
									"text" : "groove~ suono",
									"patching_rect" : [ 129.0, 263.0, 90.0, 20.0 ],
									"id" : "obj-10",
									"numinlets" : 3,
									"fontname" : "Arial",
									"numoutlets" : 2,
									"outlettype" : [ "signal", "signal" ],
									"fontsize" : 12.0
								}

							}
, 							{
								"box" : 								{
									"maxclass" : "newobj",
									"text" : "*~ 0.1",
									"patching_rect" : [ 164.0, 375.0, 42.0, 20.0 ],
									"id" : "obj-44",
									"numinlets" : 2,
									"fontname" : "Arial",
									"numoutlets" : 1,
									"outlettype" : [ "signal" ],
									"fontsize" : 12.0
								}

							}
, 							{
								"box" : 								{
									"maxclass" : "newobj",
									"text" : "unpack 0. 0. 0. 0. 0. 0. 0. 0.",
									"patching_rect" : [ 75.0, 104.0, 659.0, 20.0 ],
									"id" : "obj-12",
									"numinlets" : 1,
									"fontname" : "Arial",
									"numoutlets" : 8,
									"outlettype" : [ "float", "float", "float", "float", "float", "float", "float", "float" ],
									"fontsize" : 12.0
								}

							}
, 							{
								"box" : 								{
									"maxclass" : "flonum",
									"patching_rect" : [ 715.0, 156.0, 49.0, 20.0 ],
									"id" : "obj-15",
									"numinlets" : 1,
									"bgcolor" : [ 0.866667, 0.866667, 0.866667, 1.0 ],
									"fontname" : "Arial",
									"triscale" : 0.9,
									"numoutlets" : 2,
									"fontface" : 1,
									"outlettype" : [ "float", "bang" ],
									"fontsize" : 12.0,
									"htextcolor" : [ 0.870588, 0.870588, 0.870588, 1.0 ]
								}

							}
, 							{
								"box" : 								{
									"maxclass" : "flonum",
									"patching_rect" : [ 623.0, 158.0, 49.0, 20.0 ],
									"id" : "obj-16",
									"numinlets" : 1,
									"bgcolor" : [ 0.866667, 0.866667, 0.866667, 1.0 ],
									"fontname" : "Arial",
									"triscale" : 0.9,
									"numoutlets" : 2,
									"fontface" : 1,
									"outlettype" : [ "float", "bang" ],
									"fontsize" : 12.0,
									"htextcolor" : [ 0.870588, 0.870588, 0.870588, 1.0 ]
								}

							}
, 							{
								"box" : 								{
									"maxclass" : "flonum",
									"patching_rect" : [ 532.0, 157.0, 49.0, 20.0 ],
									"id" : "obj-17",
									"numinlets" : 1,
									"bgcolor" : [ 0.866667, 0.866667, 0.866667, 1.0 ],
									"fontname" : "Arial",
									"triscale" : 0.9,
									"numoutlets" : 2,
									"fontface" : 1,
									"outlettype" : [ "float", "bang" ],
									"fontsize" : 12.0,
									"htextcolor" : [ 0.870588, 0.870588, 0.870588, 1.0 ]
								}

							}
, 							{
								"box" : 								{
									"maxclass" : "flonum",
									"patching_rect" : [ 438.0, 157.0, 49.0, 20.0 ],
									"id" : "obj-18",
									"numinlets" : 1,
									"bgcolor" : [ 0.866667, 0.866667, 0.866667, 1.0 ],
									"fontname" : "Arial",
									"triscale" : 0.9,
									"numoutlets" : 2,
									"fontface" : 1,
									"outlettype" : [ "float", "bang" ],
									"fontsize" : 12.0,
									"htextcolor" : [ 0.870588, 0.870588, 0.870588, 1.0 ]
								}

							}
, 							{
								"box" : 								{
									"maxclass" : "flonum",
									"patching_rect" : [ 348.0, 157.0, 49.0, 20.0 ],
									"id" : "obj-19",
									"numinlets" : 1,
									"bgcolor" : [ 0.866667, 0.866667, 0.866667, 1.0 ],
									"fontname" : "Arial",
									"triscale" : 0.9,
									"numoutlets" : 2,
									"fontface" : 1,
									"outlettype" : [ "float", "bang" ],
									"fontsize" : 12.0,
									"htextcolor" : [ 0.870588, 0.870588, 0.870588, 1.0 ]
								}

							}
, 							{
								"box" : 								{
									"maxclass" : "flonum",
									"patching_rect" : [ 256.0, 155.0, 49.0, 20.0 ],
									"id" : "obj-20",
									"numinlets" : 1,
									"bgcolor" : [ 0.866667, 0.866667, 0.866667, 1.0 ],
									"fontname" : "Arial",
									"triscale" : 0.9,
									"numoutlets" : 2,
									"fontface" : 1,
									"outlettype" : [ "float", "bang" ],
									"fontsize" : 12.0,
									"htextcolor" : [ 0.870588, 0.870588, 0.870588, 1.0 ]
								}

							}
, 							{
								"box" : 								{
									"maxclass" : "flonum",
									"patching_rect" : [ 165.0, 157.0, 49.0, 20.0 ],
									"id" : "obj-21",
									"numinlets" : 1,
									"bgcolor" : [ 0.866667, 0.866667, 0.866667, 1.0 ],
									"fontname" : "Arial",
									"triscale" : 0.9,
									"numoutlets" : 2,
									"fontface" : 1,
									"outlettype" : [ "float", "bang" ],
									"fontsize" : 12.0,
									"htextcolor" : [ 0.870588, 0.870588, 0.870588, 1.0 ]
								}

							}
, 							{
								"box" : 								{
									"maxclass" : "flonum",
									"patching_rect" : [ 73.0, 157.0, 49.0, 20.0 ],
									"id" : "obj-22",
									"numinlets" : 1,
									"bgcolor" : [ 0.866667, 0.866667, 0.866667, 1.0 ],
									"fontname" : "Arial",
									"triscale" : 0.9,
									"numoutlets" : 2,
									"fontface" : 1,
									"outlettype" : [ "float", "bang" ],
									"fontsize" : 12.0,
									"htextcolor" : [ 0.870588, 0.870588, 0.870588, 1.0 ]
								}

							}
 ],
						"lines" : [ 							{
								"patchline" : 								{
									"source" : [ "obj-1", 0 ],
									"destination" : [ "obj-10", 0 ],
									"hidden" : 0,
									"midpoints" : [  ]
								}

							}
, 							{
								"patchline" : 								{
									"source" : [ "obj-10", 0 ],
									"destination" : [ "obj-44", 0 ],
									"hidden" : 0,
									"midpoints" : [  ]
								}

							}
, 							{
								"patchline" : 								{
									"source" : [ "obj-11", 0 ],
									"destination" : [ "obj-56", 0 ],
									"hidden" : 0,
									"midpoints" : [  ]
								}

							}
, 							{
								"patchline" : 								{
									"source" : [ "obj-12", 7 ],
									"destination" : [ "obj-15", 0 ],
									"hidden" : 0,
									"midpoints" : [  ]
								}

							}
, 							{
								"patchline" : 								{
									"source" : [ "obj-12", 6 ],
									"destination" : [ "obj-16", 0 ],
									"hidden" : 0,
									"midpoints" : [  ]
								}

							}
, 							{
								"patchline" : 								{
									"source" : [ "obj-12", 5 ],
									"destination" : [ "obj-17", 0 ],
									"hidden" : 0,
									"midpoints" : [  ]
								}

							}
, 							{
								"patchline" : 								{
									"source" : [ "obj-12", 4 ],
									"destination" : [ "obj-18", 0 ],
									"hidden" : 0,
									"midpoints" : [  ]
								}

							}
, 							{
								"patchline" : 								{
									"source" : [ "obj-12", 3 ],
									"destination" : [ "obj-19", 0 ],
									"hidden" : 0,
									"midpoints" : [  ]
								}

							}
, 							{
								"patchline" : 								{
									"source" : [ "obj-12", 2 ],
									"destination" : [ "obj-20", 0 ],
									"hidden" : 0,
									"midpoints" : [  ]
								}

							}
, 							{
								"patchline" : 								{
									"source" : [ "obj-12", 1 ],
									"destination" : [ "obj-21", 0 ],
									"hidden" : 0,
									"midpoints" : [  ]
								}

							}
, 							{
								"patchline" : 								{
									"source" : [ "obj-12", 0 ],
									"destination" : [ "obj-22", 0 ],
									"hidden" : 0,
									"midpoints" : [  ]
								}

							}
, 							{
								"patchline" : 								{
									"source" : [ "obj-13", 0 ],
									"destination" : [ "obj-62", 0 ],
									"hidden" : 0,
									"midpoints" : [  ]
								}

							}
, 							{
								"patchline" : 								{
									"source" : [ "obj-14", 0 ],
									"destination" : [ "obj-68", 0 ],
									"hidden" : 0,
									"midpoints" : [  ]
								}

							}
, 							{
								"patchline" : 								{
									"source" : [ "obj-15", 0 ],
									"destination" : [ "obj-23", 0 ],
									"hidden" : 0,
									"midpoints" : [  ]
								}

							}
, 							{
								"patchline" : 								{
									"source" : [ "obj-16", 0 ],
									"destination" : [ "obj-14", 0 ],
									"hidden" : 0,
									"midpoints" : [  ]
								}

							}
, 							{
								"patchline" : 								{
									"source" : [ "obj-17", 0 ],
									"destination" : [ "obj-13", 0 ],
									"hidden" : 0,
									"midpoints" : [  ]
								}

							}
, 							{
								"patchline" : 								{
									"source" : [ "obj-18", 0 ],
									"destination" : [ "obj-11", 0 ],
									"hidden" : 0,
									"midpoints" : [  ]
								}

							}
, 							{
								"patchline" : 								{
									"source" : [ "obj-19", 0 ],
									"destination" : [ "obj-8", 0 ],
									"hidden" : 0,
									"midpoints" : [  ]
								}

							}
, 							{
								"patchline" : 								{
									"source" : [ "obj-20", 0 ],
									"destination" : [ "obj-7", 0 ],
									"hidden" : 0,
									"midpoints" : [  ]
								}

							}
, 							{
								"patchline" : 								{
									"source" : [ "obj-21", 0 ],
									"destination" : [ "obj-6", 0 ],
									"hidden" : 0,
									"midpoints" : [  ]
								}

							}
, 							{
								"patchline" : 								{
									"source" : [ "obj-22", 0 ],
									"destination" : [ "obj-1", 0 ],
									"hidden" : 0,
									"midpoints" : [  ]
								}

							}
, 							{
								"patchline" : 								{
									"source" : [ "obj-23", 0 ],
									"destination" : [ "obj-74", 0 ],
									"hidden" : 0,
									"midpoints" : [  ]
								}

							}
, 							{
								"patchline" : 								{
									"source" : [ "obj-25", 0 ],
									"destination" : [ "obj-12", 0 ],
									"hidden" : 0,
									"midpoints" : [  ]
								}

							}
, 							{
								"patchline" : 								{
									"source" : [ "obj-3", 0 ],
									"destination" : [ "obj-4", 0 ],
									"hidden" : 0,
									"midpoints" : [  ]
								}

							}
, 							{
								"patchline" : 								{
									"source" : [ "obj-30", 0 ],
									"destination" : [ "obj-44", 0 ],
									"hidden" : 0,
									"midpoints" : [  ]
								}

							}
, 							{
								"patchline" : 								{
									"source" : [ "obj-39", 0 ],
									"destination" : [ "obj-44", 0 ],
									"hidden" : 0,
									"midpoints" : [  ]
								}

							}
, 							{
								"patchline" : 								{
									"source" : [ "obj-4", 0 ],
									"destination" : [ "obj-10", 0 ],
									"hidden" : 0,
									"midpoints" : [ 822.5, 253.5, 138.5, 253.5 ]
								}

							}
, 							{
								"patchline" : 								{
									"source" : [ "obj-4", 0 ],
									"destination" : [ "obj-30", 0 ],
									"hidden" : 0,
									"midpoints" : [ 822.5, 253.5, 230.5, 253.5 ]
								}

							}
, 							{
								"patchline" : 								{
									"source" : [ "obj-4", 0 ],
									"destination" : [ "obj-39", 0 ],
									"hidden" : 0,
									"midpoints" : [ 822.5, 253.5, 321.5, 253.5 ]
								}

							}
, 							{
								"patchline" : 								{
									"source" : [ "obj-4", 0 ],
									"destination" : [ "obj-46", 0 ],
									"hidden" : 0,
									"midpoints" : [ 822.5, 253.5, 413.5, 253.5 ]
								}

							}
, 							{
								"patchline" : 								{
									"source" : [ "obj-4", 0 ],
									"destination" : [ "obj-56", 0 ],
									"hidden" : 0,
									"midpoints" : [ 822.5, 253.5, 504.5, 253.5 ]
								}

							}
, 							{
								"patchline" : 								{
									"source" : [ "obj-4", 0 ],
									"destination" : [ "obj-62", 0 ],
									"hidden" : 0,
									"midpoints" : [ 822.5, 253.5, 596.5, 253.5 ]
								}

							}
, 							{
								"patchline" : 								{
									"source" : [ "obj-4", 0 ],
									"destination" : [ "obj-68", 0 ],
									"hidden" : 0,
									"midpoints" : [ 822.5, 253.5, 687.5, 253.5 ]
								}

							}
, 							{
								"patchline" : 								{
									"source" : [ "obj-4", 0 ],
									"destination" : [ "obj-74", 0 ],
									"hidden" : 0,
									"midpoints" : [ 822.5, 253.5, 779.5, 253.5 ]
								}

							}
, 							{
								"patchline" : 								{
									"source" : [ "obj-44", 0 ],
									"destination" : [ "obj-28", 0 ],
									"hidden" : 0,
									"midpoints" : [  ]
								}

							}
, 							{
								"patchline" : 								{
									"source" : [ "obj-46", 0 ],
									"destination" : [ "obj-44", 0 ],
									"hidden" : 0,
									"midpoints" : [  ]
								}

							}
, 							{
								"patchline" : 								{
									"source" : [ "obj-56", 0 ],
									"destination" : [ "obj-44", 0 ],
									"hidden" : 0,
									"midpoints" : [  ]
								}

							}
, 							{
								"patchline" : 								{
									"source" : [ "obj-6", 0 ],
									"destination" : [ "obj-30", 0 ],
									"hidden" : 0,
									"midpoints" : [  ]
								}

							}
, 							{
								"patchline" : 								{
									"source" : [ "obj-62", 0 ],
									"destination" : [ "obj-44", 0 ],
									"hidden" : 0,
									"midpoints" : [  ]
								}

							}
, 							{
								"patchline" : 								{
									"source" : [ "obj-68", 0 ],
									"destination" : [ "obj-44", 0 ],
									"hidden" : 0,
									"midpoints" : [  ]
								}

							}
, 							{
								"patchline" : 								{
									"source" : [ "obj-7", 0 ],
									"destination" : [ "obj-39", 0 ],
									"hidden" : 0,
									"midpoints" : [  ]
								}

							}
, 							{
								"patchline" : 								{
									"source" : [ "obj-74", 0 ],
									"destination" : [ "obj-44", 0 ],
									"hidden" : 0,
									"midpoints" : [  ]
								}

							}
, 							{
								"patchline" : 								{
									"source" : [ "obj-8", 0 ],
									"destination" : [ "obj-46", 0 ],
									"hidden" : 0,
									"midpoints" : [  ]
								}

							}
 ]
					}
,
					"saved_object_attributes" : 					{
						"fontname" : "Arial",
						"globalpatchername" : "",
						"default_fontface" : 0,
						"fontface" : 0,
						"fontsize" : 12.0,
						"default_fontname" : "Arial",
						"default_fontsize" : 12.0
					}

				}

			}
, 			{
				"box" : 				{
					"maxclass" : "comment",
					"text" : "outermost component frequencies",
					"patching_rect" : [ 230.0, 166.0, 212.0, 20.0 ],
					"id" : "obj-6",
					"numinlets" : 1,
					"fontname" : "Arial",
					"numoutlets" : 0,
					"fontsize" : 12.0
				}

			}
, 			{
				"box" : 				{
					"maxclass" : "message",
					"text" : "clear",
					"patching_rect" : [ 14.0, 2.0, 37.0, 18.0 ],
					"id" : "obj-2",
					"numinlets" : 2,
					"fontname" : "Arial",
					"numoutlets" : 1,
					"outlettype" : [ "" ],
					"fontsize" : 12.0
				}

			}
, 			{
				"box" : 				{
					"maxclass" : "message",
					"text" : "clear",
					"patching_rect" : [ 346.0, 2.0, 37.0, 18.0 ],
					"id" : "obj-3",
					"numinlets" : 2,
					"fontname" : "Arial",
					"numoutlets" : 1,
					"outlettype" : [ "" ],
					"fontsize" : 12.0
				}

			}
, 			{
				"box" : 				{
					"maxclass" : "message",
					"text" : "clear",
					"patching_rect" : [ 352.0, 315.0, 37.0, 18.0 ],
					"id" : "obj-4",
					"numinlets" : 2,
					"fontname" : "Arial",
					"numoutlets" : 1,
					"outlettype" : [ "" ],
					"fontsize" : 12.0
				}

			}
, 			{
				"box" : 				{
					"maxclass" : "newobj",
					"text" : "!/ 1.",
					"patching_rect" : [ 541.0, 263.0, 32.5, 20.0 ],
					"id" : "obj-10",
					"numinlets" : 2,
					"fontname" : "Arial",
					"numoutlets" : 1,
					"outlettype" : [ "float" ],
					"fontsize" : 12.0
				}

			}
, 			{
				"box" : 				{
					"maxclass" : "flonum",
					"patching_rect" : [ 541.0, 241.0, 59.0, 20.0 ],
					"id" : "obj-11",
					"numinlets" : 1,
					"bgcolor" : [ 0.866667, 0.866667, 0.866667, 1.0 ],
					"fontname" : "Arial",
					"triscale" : 0.9,
					"numoutlets" : 2,
					"outlettype" : [ "float", "bang" ],
					"fontsize" : 12.0,
					"htextcolor" : [ 0.870588, 0.870588, 0.870588, 1.0 ]
				}

			}
, 			{
				"box" : 				{
					"maxclass" : "newobj",
					"text" : "r to_func",
					"patching_rect" : [ 242.0, 3.0, 57.0, 20.0 ],
					"id" : "obj-12",
					"numinlets" : 0,
					"fontname" : "Arial",
					"numoutlets" : 1,
					"outlettype" : [ "" ],
					"fontsize" : 12.0
				}

			}
, 			{
				"box" : 				{
					"maxclass" : "newobj",
					"text" : "s to_func",
					"patching_rect" : [ 432.0, 358.0, 59.0, 20.0 ],
					"id" : "obj-13",
					"numinlets" : 1,
					"fontname" : "Arial",
					"numoutlets" : 0,
					"fontsize" : 12.0
				}

			}
, 			{
				"box" : 				{
					"maxclass" : "comment",
					"text" : "max",
					"patching_rect" : [ 485.0, 240.0, 33.0, 20.0 ],
					"id" : "obj-15",
					"numinlets" : 1,
					"fontname" : "Arial",
					"numoutlets" : 0,
					"fontsize" : 12.0
				}

			}
, 			{
				"box" : 				{
					"maxclass" : "newobj",
					"text" : "p range",
					"patching_rect" : [ 432.0, 284.0, 51.0, 20.0 ],
					"id" : "obj-16",
					"numinlets" : 2,
					"fontname" : "Arial",
					"numoutlets" : 1,
					"outlettype" : [ "" ],
					"fontsize" : 12.0,
					"patcher" : 					{
						"fileversion" : 1,
						"rect" : [ 20.0, 74.0, 141.0, 198.0 ],
						"bglocked" : 0,
						"defrect" : [ 20.0, 74.0, 141.0, 198.0 ],
						"openrect" : [ 0.0, 0.0, 0.0, 0.0 ],
						"openinpresentation" : 0,
						"default_fontsize" : 12.0,
						"default_fontface" : 0,
						"default_fontname" : "Arial",
						"gridonopen" : 0,
						"gridsize" : [ 15.0, 15.0 ],
						"gridsnaponopen" : 0,
						"toolbarvisible" : 1,
						"boxanimatetime" : 200,
						"imprint" : 0,
						"enablehscroll" : 1,
						"enablevscroll" : 1,
						"devicewidth" : 0.0,
						"boxes" : [ 							{
								"box" : 								{
									"maxclass" : "newobj",
									"text" : "prepend setrange",
									"patching_rect" : [ 18.0, 84.0, 105.0, 20.0 ],
									"id" : "obj-1",
									"numinlets" : 1,
									"fontname" : "Arial",
									"numoutlets" : 1,
									"outlettype" : [ "" ],
									"fontsize" : 12.0
								}

							}
, 							{
								"box" : 								{
									"maxclass" : "newobj",
									"text" : "pak 0. 0.",
									"patching_rect" : [ 18.0, 59.0, 57.0, 20.0 ],
									"id" : "obj-2",
									"numinlets" : 2,
									"fontname" : "Arial",
									"numoutlets" : 1,
									"outlettype" : [ "" ],
									"fontsize" : 12.0
								}

							}
, 							{
								"box" : 								{
									"maxclass" : "inlet",
									"patching_rect" : [ 57.0, 24.0, 25.0, 25.0 ],
									"id" : "obj-3",
									"numinlets" : 0,
									"numoutlets" : 1,
									"outlettype" : [ "float" ],
									"comment" : ""
								}

							}
, 							{
								"box" : 								{
									"maxclass" : "inlet",
									"patching_rect" : [ 18.0, 24.0, 25.0, 25.0 ],
									"id" : "obj-4",
									"numinlets" : 0,
									"numoutlets" : 1,
									"outlettype" : [ "float" ],
									"comment" : ""
								}

							}
, 							{
								"box" : 								{
									"maxclass" : "outlet",
									"patching_rect" : [ 18.0, 114.0, 25.0, 25.0 ],
									"id" : "obj-5",
									"numinlets" : 1,
									"numoutlets" : 0,
									"comment" : ""
								}

							}
 ],
						"lines" : [ 							{
								"patchline" : 								{
									"source" : [ "obj-1", 0 ],
									"destination" : [ "obj-5", 0 ],
									"hidden" : 0,
									"midpoints" : [ 27.5, 106.0, 27.5, 106.0 ]
								}

							}
, 							{
								"patchline" : 								{
									"source" : [ "obj-2", 0 ],
									"destination" : [ "obj-1", 0 ],
									"hidden" : 0,
									"midpoints" : [  ]
								}

							}
, 							{
								"patchline" : 								{
									"source" : [ "obj-3", 0 ],
									"destination" : [ "obj-2", 1 ],
									"hidden" : 0,
									"midpoints" : [  ]
								}

							}
, 							{
								"patchline" : 								{
									"source" : [ "obj-4", 0 ],
									"destination" : [ "obj-2", 0 ],
									"hidden" : 0,
									"midpoints" : [  ]
								}

							}
 ]
					}
,
					"saved_object_attributes" : 					{
						"fontname" : "Arial",
						"globalpatchername" : "",
						"default_fontface" : 0,
						"fontface" : 0,
						"fontsize" : 12.0,
						"default_fontname" : "Arial",
						"default_fontsize" : 12.0
					}

				}

			}
, 			{
				"box" : 				{
					"maxclass" : "flonum",
					"patching_rect" : [ 484.0, 255.0, 54.0, 20.0 ],
					"id" : "obj-17",
					"numinlets" : 1,
					"bgcolor" : [ 0.866667, 0.866667, 0.866667, 1.0 ],
					"fontname" : "Arial",
					"triscale" : 0.9,
					"numoutlets" : 2,
					"outlettype" : [ "float", "bang" ],
					"fontsize" : 12.0,
					"htextcolor" : [ 0.870588, 0.870588, 0.870588, 1.0 ]
				}

			}
, 			{
				"box" : 				{
					"maxclass" : "flonum",
					"patching_rect" : [ 431.0, 255.0, 52.0, 20.0 ],
					"id" : "obj-18",
					"numinlets" : 1,
					"bgcolor" : [ 0.866667, 0.866667, 0.866667, 1.0 ],
					"fontname" : "Arial",
					"triscale" : 0.9,
					"numoutlets" : 2,
					"outlettype" : [ "float", "bang" ],
					"fontsize" : 12.0,
					"htextcolor" : [ 0.870588, 0.870588, 0.870588, 1.0 ]
				}

			}
, 			{
				"box" : 				{
					"maxclass" : "comment",
					"text" : "min",
					"patching_rect" : [ 433.0, 240.0, 30.0, 20.0 ],
					"id" : "obj-19",
					"numinlets" : 1,
					"fontname" : "Arial",
					"numoutlets" : 0,
					"fontsize" : 12.0
				}

			}
, 			{
				"box" : 				{
					"maxclass" : "function",
					"patching_rect" : [ 338.0, 39.0, 284.0, 120.0 ],
					"id" : "obj-21",
					"numinlets" : 1,
					"bordercolor" : [ 0.0, 0.0, 0.0, 1.0 ],
					"domain" : 1.0,
					"linecolor" : [ 0.333333, 0.333333, 0.333333, 1.0 ],
					"numoutlets" : 4,
					"outlettype" : [ "float", "", "", "bang" ],
					"pointcolor" : [ 0.321569, 0.321569, 0.321569, 1.0 ],
					"addpoints" : [ 0.00974, 0.0, 0, 1.0, 1.0, 0 ]
				}

			}
, 			{
				"box" : 				{
					"maxclass" : "function",
					"patching_rect" : [ 13.0, 39.0, 320.0, 120.0 ],
					"id" : "obj-22",
					"numinlets" : 1,
					"bordercolor" : [ 0.0, 0.0, 0.0, 1.0 ],
					"domain" : 1.0,
					"linecolor" : [ 0.333333, 0.333333, 0.333333, 1.0 ],
					"numoutlets" : 4,
					"outlettype" : [ "float", "", "", "bang" ],
					"pointcolor" : [ 0.321569, 0.321569, 0.321569, 1.0 ],
					"addpoints" : [ 0.003247, 0.0, 0, 0.951299, 0.978947, 0, 1.0, 1.0, 0 ]
				}

			}
, 			{
				"box" : 				{
					"maxclass" : "flonum",
					"patching_rect" : [ 541.0, 285.0, 56.0, 20.0 ],
					"id" : "obj-23",
					"numinlets" : 1,
					"bgcolor" : [ 0.866667, 0.866667, 0.866667, 1.0 ],
					"fontname" : "Arial",
					"triscale" : 0.9,
					"numoutlets" : 2,
					"outlettype" : [ "float", "bang" ],
					"fontsize" : 12.0,
					"htextcolor" : [ 0.870588, 0.870588, 0.870588, 1.0 ]
				}

			}
, 			{
				"box" : 				{
					"maxclass" : "newobj",
					"text" : "snapshot~ 5",
					"patching_rect" : [ 541.0, 332.0, 76.0, 20.0 ],
					"id" : "obj-24",
					"numinlets" : 2,
					"fontname" : "Arial",
					"numoutlets" : 1,
					"outlettype" : [ "float" ],
					"fontsize" : 12.0
				}

			}
, 			{
				"box" : 				{
					"maxclass" : "newobj",
					"text" : "phasor~",
					"patching_rect" : [ 541.0, 308.0, 54.0, 20.0 ],
					"id" : "obj-25",
					"numinlets" : 2,
					"fontname" : "Arial",
					"numoutlets" : 1,
					"outlettype" : [ "signal" ],
					"fontsize" : 12.0
				}

			}
, 			{
				"box" : 				{
					"maxclass" : "flonum",
					"patching_rect" : [ 302.0, 239.0, 40.0, 20.0 ],
					"id" : "obj-31",
					"numinlets" : 1,
					"bgcolor" : [ 0.866667, 0.866667, 0.866667, 1.0 ],
					"fontname" : "Arial",
					"triscale" : 0.9,
					"numoutlets" : 2,
					"outlettype" : [ "float", "bang" ],
					"fontsize" : 12.0,
					"htextcolor" : [ 0.870588, 0.870588, 0.870588, 1.0 ]
				}

			}
, 			{
				"box" : 				{
					"maxclass" : "newobj",
					"text" : "t 8 f",
					"patching_rect" : [ 231.0, 207.0, 32.5, 20.0 ],
					"id" : "obj-35",
					"numinlets" : 1,
					"fontname" : "Arial",
					"numoutlets" : 2,
					"outlettype" : [ "int", "float" ],
					"fontsize" : 12.0
				}

			}
, 			{
				"box" : 				{
					"maxclass" : "flonum",
					"patching_rect" : [ 310.0, 183.0, 72.0, 20.0 ],
					"id" : "obj-36",
					"numinlets" : 1,
					"bgcolor" : [ 0.866667, 0.866667, 0.866667, 1.0 ],
					"fontname" : "Arial",
					"triscale" : 0.9,
					"numoutlets" : 2,
					"outlettype" : [ "float", "bang" ],
					"fontsize" : 12.0,
					"htextcolor" : [ 0.870588, 0.870588, 0.870588, 1.0 ]
				}

			}
, 			{
				"box" : 				{
					"maxclass" : "flonum",
					"patching_rect" : [ 231.0, 183.0, 73.0, 20.0 ],
					"id" : "obj-37",
					"numinlets" : 1,
					"bgcolor" : [ 0.866667, 0.866667, 0.866667, 1.0 ],
					"fontname" : "Arial",
					"triscale" : 0.9,
					"numoutlets" : 2,
					"outlettype" : [ "float", "bang" ],
					"fontsize" : 12.0,
					"htextcolor" : [ 0.870588, 0.870588, 0.870588, 1.0 ]
				}

			}
, 			{
				"box" : 				{
					"maxclass" : "newobj",
					"text" : "vs.explist 0 0 1",
					"patching_rect" : [ 231.0, 266.0, 90.0, 20.0 ],
					"id" : "obj-38",
					"numinlets" : 4,
					"fontname" : "Arial",
					"numoutlets" : 1,
					"outlettype" : [ "" ],
					"fontsize" : 12.0
				}

			}
, 			{
				"box" : 				{
					"maxclass" : "comment",
					"text" : "duration",
					"patching_rect" : [ 541.0, 225.0, 60.0, 20.0 ],
					"id" : "obj-39",
					"numinlets" : 1,
					"fontname" : "Arial",
					"numoutlets" : 0,
					"fontsize" : 12.0
				}

			}
, 			{
				"box" : 				{
					"maxclass" : "comment",
					"text" : "messages for function",
					"patching_rect" : [ 486.0, 358.0, 128.0, 20.0 ],
					"id" : "obj-40",
					"numinlets" : 1,
					"fontname" : "Arial",
					"numoutlets" : 0,
					"fontsize" : 12.0
				}

			}
, 			{
				"box" : 				{
					"maxclass" : "comment",
					"text" : "curve",
					"patching_rect" : [ 302.0, 222.0, 40.0, 20.0 ],
					"id" : "obj-43",
					"numinlets" : 1,
					"fontname" : "Arial",
					"numoutlets" : 0,
					"fontsize" : 12.0
				}

			}
, 			{
				"box" : 				{
					"maxclass" : "panel",
					"patching_rect" : [ 349.0, 216.0, 273.0, 165.0 ],
					"id" : "obj-41",
					"numinlets" : 1,
					"bgcolor" : [ 0.909804, 0.847059, 0.509804, 1.0 ],
					"rounded" : 0,
					"numoutlets" : 0,
					"background" : 1
				}

			}
 ],
		"lines" : [ 			{
				"patchline" : 				{
					"source" : [ "obj-1", 2 ],
					"destination" : [ "obj-46", 0 ],
					"hidden" : 1,
					"midpoints" : [ 177.5, 359.0, 267.0, 359.0 ]
				}

			}
, 			{
				"patchline" : 				{
					"source" : [ "obj-1", 2 ],
					"destination" : [ "obj-48", 0 ],
					"hidden" : 1,
					"midpoints" : [ 177.5, 359.0, 240.0, 359.0 ]
				}

			}
, 			{
				"patchline" : 				{
					"source" : [ "obj-10", 0 ],
					"destination" : [ "obj-23", 0 ],
					"hidden" : 0,
					"midpoints" : [  ]
				}

			}
, 			{
				"patchline" : 				{
					"source" : [ "obj-11", 0 ],
					"destination" : [ "obj-10", 0 ],
					"hidden" : 0,
					"midpoints" : [  ]
				}

			}
, 			{
				"patchline" : 				{
					"source" : [ "obj-12", 0 ],
					"destination" : [ "obj-21", 0 ],
					"hidden" : 0,
					"midpoints" : [ 251.5, 29.0, 347.5, 29.0 ]
				}

			}
, 			{
				"patchline" : 				{
					"source" : [ "obj-12", 0 ],
					"destination" : [ "obj-22", 0 ],
					"hidden" : 0,
					"midpoints" : [ 251.5, 29.0, 22.5, 29.0 ]
				}

			}
, 			{
				"patchline" : 				{
					"source" : [ "obj-16", 0 ],
					"destination" : [ "obj-13", 0 ],
					"hidden" : 0,
					"midpoints" : [  ]
				}

			}
, 			{
				"patchline" : 				{
					"source" : [ "obj-17", 0 ],
					"destination" : [ "obj-16", 1 ],
					"hidden" : 0,
					"midpoints" : [  ]
				}

			}
, 			{
				"patchline" : 				{
					"source" : [ "obj-18", 0 ],
					"destination" : [ "obj-16", 0 ],
					"hidden" : 0,
					"midpoints" : [  ]
				}

			}
, 			{
				"patchline" : 				{
					"source" : [ "obj-2", 0 ],
					"destination" : [ "obj-22", 0 ],
					"hidden" : 0,
					"midpoints" : [  ]
				}

			}
, 			{
				"patchline" : 				{
					"source" : [ "obj-21", 0 ],
					"destination" : [ "obj-36", 0 ],
					"hidden" : 0,
					"midpoints" : [ 347.5, 164.0, 319.5, 164.0 ]
				}

			}
, 			{
				"patchline" : 				{
					"source" : [ "obj-22", 0 ],
					"destination" : [ "obj-37", 0 ],
					"hidden" : 0,
					"midpoints" : [ 22.5, 165.0, 240.5, 165.0 ]
				}

			}
, 			{
				"patchline" : 				{
					"source" : [ "obj-23", 0 ],
					"destination" : [ "obj-25", 0 ],
					"hidden" : 0,
					"midpoints" : [  ]
				}

			}
, 			{
				"patchline" : 				{
					"source" : [ "obj-24", 0 ],
					"destination" : [ "obj-13", 0 ],
					"hidden" : 0,
					"midpoints" : [  ]
				}

			}
, 			{
				"patchline" : 				{
					"source" : [ "obj-25", 0 ],
					"destination" : [ "obj-24", 0 ],
					"hidden" : 0,
					"midpoints" : [  ]
				}

			}
, 			{
				"patchline" : 				{
					"source" : [ "obj-3", 0 ],
					"destination" : [ "obj-21", 0 ],
					"hidden" : 0,
					"midpoints" : [  ]
				}

			}
, 			{
				"patchline" : 				{
					"source" : [ "obj-31", 0 ],
					"destination" : [ "obj-38", 3 ],
					"hidden" : 0,
					"midpoints" : [  ]
				}

			}
, 			{
				"patchline" : 				{
					"source" : [ "obj-35", 1 ],
					"destination" : [ "obj-38", 1 ],
					"hidden" : 0,
					"midpoints" : [ 254.0, 235.0, 264.166656, 235.0 ]
				}

			}
, 			{
				"patchline" : 				{
					"source" : [ "obj-35", 0 ],
					"destination" : [ "obj-38", 0 ],
					"hidden" : 0,
					"midpoints" : [  ]
				}

			}
, 			{
				"patchline" : 				{
					"source" : [ "obj-36", 0 ],
					"destination" : [ "obj-38", 2 ],
					"hidden" : 0,
					"midpoints" : [ 319.5, 211.0, 287.833344, 211.0 ]
				}

			}
, 			{
				"patchline" : 				{
					"source" : [ "obj-37", 0 ],
					"destination" : [ "obj-35", 0 ],
					"hidden" : 0,
					"midpoints" : [  ]
				}

			}
, 			{
				"patchline" : 				{
					"source" : [ "obj-38", 0 ],
					"destination" : [ "obj-44", 0 ],
					"hidden" : 0,
					"midpoints" : [  ]
				}

			}
, 			{
				"patchline" : 				{
					"source" : [ "obj-4", 0 ],
					"destination" : [ "obj-13", 0 ],
					"hidden" : 0,
					"midpoints" : [ 361.5, 343.0, 441.5, 343.0 ]
				}

			}
, 			{
				"patchline" : 				{
					"source" : [ "obj-44", 0 ],
					"destination" : [ "obj-46", 0 ],
					"hidden" : 0,
					"midpoints" : [  ]
				}

			}
, 			{
				"patchline" : 				{
					"source" : [ "obj-44", 0 ],
					"destination" : [ "obj-48", 0 ],
					"hidden" : 0,
					"midpoints" : [  ]
				}

			}
, 			{
				"patchline" : 				{
					"source" : [ "obj-46", 0 ],
					"destination" : [ "obj-51", 1 ],
					"hidden" : 0,
					"midpoints" : [  ]
				}

			}
, 			{
				"patchline" : 				{
					"source" : [ "obj-48", 1 ],
					"destination" : [ "obj-46", 0 ],
					"hidden" : 0,
					"midpoints" : [  ]
				}

			}
, 			{
				"patchline" : 				{
					"source" : [ "obj-48", 0 ],
					"destination" : [ "obj-51", 0 ],
					"hidden" : 0,
					"midpoints" : [  ]
				}

			}
, 			{
				"patchline" : 				{
					"source" : [ "obj-49", 0 ],
					"destination" : [ "obj-51", 0 ],
					"hidden" : 0,
					"midpoints" : [ 156.5, 440.0, 202.0, 440.0, 202.0, 505.0, 241.5, 505.0 ]
				}

			}
, 			{
				"patchline" : 				{
					"source" : [ "obj-50", 0 ],
					"destination" : [ "obj-51", 0 ],
					"hidden" : 0,
					"midpoints" : [ 158.5, 505.0, 241.5, 505.0 ]
				}

			}
 ]
	}

}
