{
	"patcher" : 	{
		"fileversion" : 1,
		"rect" : [ 6.0, 44.0, 616.0, 257.0 ],
		"bglocked" : 0,
		"defrect" : [ 6.0, 44.0, 616.0, 257.0 ],
		"openrect" : [ 0.0, 0.0, 0.0, 0.0 ],
		"openinpresentation" : 0,
		"default_fontsize" : 12.0,
		"default_fontface" : 0,
		"default_fontname" : "Arial",
		"gridonopen" : 0,
		"gridsize" : [ 15.0, 15.0 ],
		"gridsnaponopen" : 0,
		"toolbarvisible" : 1,
		"boxanimatetime" : 200,
		"imprint" : 0,
		"enablehscroll" : 1,
		"enablevscroll" : 1,
		"devicewidth" : 0.0,
		"boxes" : [ 			{
				"box" : 				{
					"maxclass" : "comment",
					"text" : "<- the \"receive\" object receives the lists",
					"fontsize" : 12.0,
					"fontname" : "Arial",
					"numinlets" : 1,
					"patching_rect" : [ 44.0, 9.0, 229.0, 20.0 ],
					"numoutlets" : 0,
					"id" : "obj-1"
				}

			}
, 			{
				"box" : 				{
					"maxclass" : "message",
					"text" : "1 0 -0.111 0 0.04 0 -0.02 0 0 0.012 0",
					"fontsize" : 12.0,
					"outlettype" : [ "" ],
					"fontname" : "Arial",
					"numinlets" : 2,
					"patching_rect" : [ 241.0, 110.0, 205.0, 18.0 ],
					"numoutlets" : 1,
					"id" : "obj-2"
				}

			}
, 			{
				"box" : 				{
					"maxclass" : "newobj",
					"text" : "s list",
					"fontsize" : 12.0,
					"fontname" : "Arial",
					"numinlets" : 1,
					"patching_rect" : [ 241.0, 188.0, 34.0, 20.0 ],
					"numoutlets" : 0,
					"id" : "obj-3"
				}

			}
, 			{
				"box" : 				{
					"maxclass" : "newobj",
					"text" : "r list",
					"fontsize" : 12.0,
					"outlettype" : [ "" ],
					"fontname" : "Arial",
					"numinlets" : 0,
					"patching_rect" : [ 10.0, 8.0, 32.0, 20.0 ],
					"numoutlets" : 1,
					"id" : "obj-4"
				}

			}
, 			{
				"box" : 				{
					"maxclass" : "newobj",
					"text" : "unpack 0. 0. 0. 0. 0. 0. 0. 0. 0. 0.",
					"fontsize" : 12.0,
					"outlettype" : [ "float", "float", "float", "float", "float", "float", "float", "float", "float", "float" ],
					"fontname" : "Arial",
					"numinlets" : 1,
					"patching_rect" : [ 10.0, 33.0, 568.0, 20.0 ],
					"numoutlets" : 10,
					"id" : "obj-5"
				}

			}
, 			{
				"box" : 				{
					"maxclass" : "flonum",
					"fontsize" : 12.0,
					"outlettype" : [ "float", "bang" ],
					"triscale" : 0.9,
					"bgcolor" : [ 0.866667, 0.866667, 0.866667, 1.0 ],
					"htextcolor" : [ 0.870588, 0.870588, 0.870588, 1.0 ],
					"fontname" : "Arial",
					"numinlets" : 1,
					"patching_rect" : [ 559.0, 72.0, 48.0, 20.0 ],
					"numoutlets" : 2,
					"id" : "obj-6",
					"fontface" : 1
				}

			}
, 			{
				"box" : 				{
					"maxclass" : "flonum",
					"fontsize" : 12.0,
					"outlettype" : [ "float", "bang" ],
					"triscale" : 0.9,
					"bgcolor" : [ 0.866667, 0.866667, 0.866667, 1.0 ],
					"htextcolor" : [ 0.870588, 0.870588, 0.870588, 1.0 ],
					"fontname" : "Arial",
					"numinlets" : 1,
					"patching_rect" : [ 498.0, 73.0, 48.0, 20.0 ],
					"numoutlets" : 2,
					"id" : "obj-7",
					"fontface" : 1
				}

			}
, 			{
				"box" : 				{
					"maxclass" : "flonum",
					"fontsize" : 12.0,
					"outlettype" : [ "float", "bang" ],
					"triscale" : 0.9,
					"bgcolor" : [ 0.866667, 0.866667, 0.866667, 1.0 ],
					"htextcolor" : [ 0.870588, 0.870588, 0.870588, 1.0 ],
					"fontname" : "Arial",
					"numinlets" : 1,
					"patching_rect" : [ 437.0, 73.0, 48.0, 20.0 ],
					"numoutlets" : 2,
					"id" : "obj-8",
					"fontface" : 1
				}

			}
, 			{
				"box" : 				{
					"maxclass" : "flonum",
					"fontsize" : 12.0,
					"outlettype" : [ "float", "bang" ],
					"triscale" : 0.9,
					"bgcolor" : [ 0.866667, 0.866667, 0.866667, 1.0 ],
					"htextcolor" : [ 0.870588, 0.870588, 0.870588, 1.0 ],
					"fontname" : "Arial",
					"numinlets" : 1,
					"patching_rect" : [ 376.0, 73.0, 48.0, 20.0 ],
					"numoutlets" : 2,
					"id" : "obj-9",
					"fontface" : 1
				}

			}
, 			{
				"box" : 				{
					"maxclass" : "flonum",
					"fontsize" : 12.0,
					"outlettype" : [ "float", "bang" ],
					"triscale" : 0.9,
					"bgcolor" : [ 0.866667, 0.866667, 0.866667, 1.0 ],
					"htextcolor" : [ 0.870588, 0.870588, 0.870588, 1.0 ],
					"fontname" : "Arial",
					"numinlets" : 1,
					"patching_rect" : [ 315.0, 73.0, 48.0, 20.0 ],
					"numoutlets" : 2,
					"id" : "obj-10",
					"fontface" : 1
				}

			}
, 			{
				"box" : 				{
					"maxclass" : "flonum",
					"fontsize" : 12.0,
					"outlettype" : [ "float", "bang" ],
					"triscale" : 0.9,
					"bgcolor" : [ 0.866667, 0.866667, 0.866667, 1.0 ],
					"htextcolor" : [ 0.870588, 0.870588, 0.870588, 1.0 ],
					"fontname" : "Arial",
					"numinlets" : 1,
					"patching_rect" : [ 254.0, 73.0, 48.0, 20.0 ],
					"numoutlets" : 2,
					"id" : "obj-11",
					"fontface" : 1
				}

			}
, 			{
				"box" : 				{
					"maxclass" : "flonum",
					"fontsize" : 12.0,
					"outlettype" : [ "float", "bang" ],
					"triscale" : 0.9,
					"bgcolor" : [ 0.866667, 0.866667, 0.866667, 1.0 ],
					"htextcolor" : [ 0.870588, 0.870588, 0.870588, 1.0 ],
					"fontname" : "Arial",
					"numinlets" : 1,
					"patching_rect" : [ 193.0, 73.0, 48.0, 20.0 ],
					"numoutlets" : 2,
					"id" : "obj-12",
					"fontface" : 1
				}

			}
, 			{
				"box" : 				{
					"maxclass" : "flonum",
					"fontsize" : 12.0,
					"outlettype" : [ "float", "bang" ],
					"triscale" : 0.9,
					"bgcolor" : [ 0.866667, 0.866667, 0.866667, 1.0 ],
					"htextcolor" : [ 0.870588, 0.870588, 0.870588, 1.0 ],
					"fontname" : "Arial",
					"numinlets" : 1,
					"patching_rect" : [ 132.0, 73.0, 48.0, 20.0 ],
					"numoutlets" : 2,
					"id" : "obj-13",
					"fontface" : 1
				}

			}
, 			{
				"box" : 				{
					"maxclass" : "flonum",
					"fontsize" : 12.0,
					"outlettype" : [ "float", "bang" ],
					"triscale" : 0.9,
					"bgcolor" : [ 0.866667, 0.866667, 0.866667, 1.0 ],
					"htextcolor" : [ 0.870588, 0.870588, 0.870588, 1.0 ],
					"fontname" : "Arial",
					"numinlets" : 1,
					"patching_rect" : [ 71.0, 73.0, 48.0, 20.0 ],
					"numoutlets" : 2,
					"id" : "obj-14",
					"fontface" : 1
				}

			}
, 			{
				"box" : 				{
					"maxclass" : "flonum",
					"fontsize" : 12.0,
					"outlettype" : [ "float", "bang" ],
					"triscale" : 0.9,
					"bgcolor" : [ 0.866667, 0.866667, 0.866667, 1.0 ],
					"htextcolor" : [ 0.870588, 0.870588, 0.870588, 1.0 ],
					"fontname" : "Arial",
					"numinlets" : 1,
					"patching_rect" : [ 10.0, 73.0, 48.0, 20.0 ],
					"numoutlets" : 2,
					"id" : "obj-15",
					"fontface" : 1
				}

			}
, 			{
				"box" : 				{
					"maxclass" : "comment",
					"text" : "In edit mode, create a second message box with 10 numbers and connect it to the [s list] object\r---------------------------------------->",
					"linecount" : 4,
					"fontsize" : 12.0,
					"fontname" : "Arial",
					"numinlets" : 1,
					"patching_rect" : [ 65.0, 144.0, 189.0, 62.0 ],
					"numoutlets" : 0,
					"id" : "obj-17"
				}

			}
, 			{
				"box" : 				{
					"maxclass" : "comment",
					"text" : "<- the \"send\" object sends the lists",
					"fontsize" : 12.0,
					"fontname" : "Arial",
					"numinlets" : 1,
					"patching_rect" : [ 274.0, 190.0, 196.0, 20.0 ],
					"numoutlets" : 0,
					"id" : "obj-18"
				}

			}
, 			{
				"box" : 				{
					"maxclass" : "comment",
					"text" : "After this, switch to performance mode and click alternately on the two lists, observing how this affects the boxes connected to the outlets of unpack",
					"linecount" : 3,
					"fontsize" : 12.0,
					"fontname" : "Arial",
					"numinlets" : 1,
					"patching_rect" : [ 66.0, 208.0, 287.0, 48.0 ],
					"numoutlets" : 0,
					"id" : "obj-19"
				}

			}
, 			{
				"box" : 				{
					"maxclass" : "panel",
					"rounded" : 0,
					"bgcolor" : [ 0.635294, 0.917647, 0.823529, 1.0 ],
					"background" : 1,
					"bordercolor" : [ 1.0, 1.0, 1.0, 1.0 ],
					"numinlets" : 1,
					"patching_rect" : [ 5.0, 57.0, 608.0, 42.0 ],
					"numoutlets" : 0,
					"id" : "obj-16"
				}

			}
 ],
		"lines" : [ 			{
				"patchline" : 				{
					"source" : [ "obj-2", 0 ],
					"destination" : [ "obj-3", 0 ],
					"hidden" : 0,
					"midpoints" : [  ]
				}

			}
, 			{
				"patchline" : 				{
					"source" : [ "obj-5", 0 ],
					"destination" : [ "obj-15", 0 ],
					"hidden" : 0,
					"midpoints" : [  ]
				}

			}
, 			{
				"patchline" : 				{
					"source" : [ "obj-4", 0 ],
					"destination" : [ "obj-5", 0 ],
					"hidden" : 0,
					"midpoints" : [  ]
				}

			}
, 			{
				"patchline" : 				{
					"source" : [ "obj-5", 1 ],
					"destination" : [ "obj-14", 0 ],
					"hidden" : 0,
					"midpoints" : [  ]
				}

			}
, 			{
				"patchline" : 				{
					"source" : [ "obj-5", 2 ],
					"destination" : [ "obj-13", 0 ],
					"hidden" : 0,
					"midpoints" : [  ]
				}

			}
, 			{
				"patchline" : 				{
					"source" : [ "obj-5", 3 ],
					"destination" : [ "obj-12", 0 ],
					"hidden" : 0,
					"midpoints" : [  ]
				}

			}
, 			{
				"patchline" : 				{
					"source" : [ "obj-5", 4 ],
					"destination" : [ "obj-11", 0 ],
					"hidden" : 0,
					"midpoints" : [  ]
				}

			}
, 			{
				"patchline" : 				{
					"source" : [ "obj-5", 5 ],
					"destination" : [ "obj-10", 0 ],
					"hidden" : 0,
					"midpoints" : [  ]
				}

			}
, 			{
				"patchline" : 				{
					"source" : [ "obj-5", 6 ],
					"destination" : [ "obj-9", 0 ],
					"hidden" : 0,
					"midpoints" : [  ]
				}

			}
, 			{
				"patchline" : 				{
					"source" : [ "obj-5", 7 ],
					"destination" : [ "obj-8", 0 ],
					"hidden" : 0,
					"midpoints" : [  ]
				}

			}
, 			{
				"patchline" : 				{
					"source" : [ "obj-5", 8 ],
					"destination" : [ "obj-7", 0 ],
					"hidden" : 0,
					"midpoints" : [  ]
				}

			}
, 			{
				"patchline" : 				{
					"source" : [ "obj-5", 9 ],
					"destination" : [ "obj-6", 0 ],
					"hidden" : 0,
					"midpoints" : [  ]
				}

			}
 ]
	}

}
