{
	"patcher" : 	{
		"fileversion" : 1,
		"rect" : [ 10.0, 59.0, 292.0, 248.0 ],
		"bglocked" : 0,
		"defrect" : [ 10.0, 59.0, 292.0, 248.0 ],
		"openrect" : [ 0.0, 0.0, 0.0, 0.0 ],
		"openinpresentation" : 0,
		"default_fontsize" : 12.0,
		"default_fontface" : 0,
		"default_fontname" : "Arial",
		"gridonopen" : 0,
		"gridsize" : [ 15.0, 15.0 ],
		"gridsnaponopen" : 0,
		"toolbarvisible" : 1,
		"boxanimatetime" : 200,
		"imprint" : 0,
		"enablehscroll" : 1,
		"enablevscroll" : 1,
		"devicewidth" : 0.0,
		"boxes" : [ 			{
				"box" : 				{
					"maxclass" : "newobj",
					"text" : "*~",
					"patching_rect" : [ 119.081078, 162.172409, 32.5, 21.0 ],
					"id" : "obj-1",
					"numinlets" : 2,
					"fontname" : "Arial",
					"numoutlets" : 1,
					"outlettype" : [ "signal" ],
					"fontsize" : 13.019648
				}

			}
, 			{
				"box" : 				{
					"maxclass" : "comment",
					"text" : "frequency",
					"patching_rect" : [ 50.0, 103.931038, 68.0, 21.0 ],
					"id" : "obj-2",
					"numinlets" : 1,
					"fontname" : "Arial",
					"numoutlets" : 0,
					"fontsize" : 13.019648
				}

			}
, 			{
				"box" : 				{
					"maxclass" : "flonum",
					"patching_rect" : [ 119.081078, 102.827583, 62.684685, 21.0 ],
					"id" : "obj-3",
					"numinlets" : 1,
					"bgcolor" : [ 0.866667, 0.866667, 0.866667, 1.0 ],
					"fontname" : "Arial",
					"triscale" : 0.9,
					"numoutlets" : 2,
					"outlettype" : [ "float", "bang" ],
					"fontsize" : 13.019648,
					"htextcolor" : [ 0.870588, 0.870588, 0.870588, 1.0 ]
				}

			}
, 			{
				"box" : 				{
					"maxclass" : "newobj",
					"text" : "mtof",
					"patching_rect" : [ 119.081078, 78.551727, 36.0, 21.0 ],
					"id" : "obj-4",
					"numinlets" : 1,
					"fontname" : "Arial",
					"numoutlets" : 1,
					"outlettype" : [ "" ],
					"fontsize" : 13.019648
				}

			}
, 			{
				"box" : 				{
					"maxclass" : "newobj",
					"text" : "rect~",
					"patching_rect" : [ 119.081078, 126.0, 46.0, 21.0 ],
					"id" : "obj-5",
					"numinlets" : 3,
					"fontname" : "Arial",
					"numoutlets" : 1,
					"outlettype" : [ "signal" ],
					"fontsize" : 13.019648
				}

			}
, 			{
				"box" : 				{
					"maxclass" : "number",
					"patching_rect" : [ 119.081078, 52.068966, 44.774776, 21.0 ],
					"id" : "obj-6",
					"numinlets" : 1,
					"bgcolor" : [ 0.866667, 0.866667, 0.866667, 1.0 ],
					"fontname" : "Arial",
					"triscale" : 0.9,
					"numoutlets" : 2,
					"outlettype" : [ "int", "bang" ],
					"fontsize" : 13.019648,
					"htextcolor" : [ 0.870588, 0.870588, 0.870588, 1.0 ]
				}

			}
, 			{
				"box" : 				{
					"maxclass" : "comment",
					"text" : "MIDI note",
					"patching_rect" : [ 51.279278, 53.172413, 67.0, 21.0 ],
					"id" : "obj-7",
					"numinlets" : 1,
					"fontname" : "Arial",
					"numoutlets" : 0,
					"fontsize" : 13.019648
				}

			}
, 			{
				"box" : 				{
					"maxclass" : "inlet",
					"patching_rect" : [ 119.081078, 24.0, 25.0, 25.0 ],
					"id" : "obj-8",
					"numinlets" : 0,
					"numoutlets" : 1,
					"outlettype" : [ "" ],
					"comment" : ""
				}

			}
, 			{
				"box" : 				{
					"maxclass" : "inlet",
					"patching_rect" : [ 172.810806, 127.103447, 25.0, 25.0 ],
					"id" : "obj-9",
					"numinlets" : 0,
					"numoutlets" : 1,
					"outlettype" : [ "" ],
					"comment" : ""
				}

			}
, 			{
				"box" : 				{
					"maxclass" : "outlet",
					"patching_rect" : [ 119.081078, 186.448273, 25.0, 25.0 ],
					"id" : "obj-10",
					"numinlets" : 1,
					"numoutlets" : 0,
					"comment" : ""
				}

			}
 ],
		"lines" : [ 			{
				"patchline" : 				{
					"source" : [ "obj-8", 0 ],
					"destination" : [ "obj-6", 0 ],
					"hidden" : 0,
					"midpoints" : [  ]
				}

			}
, 			{
				"patchline" : 				{
					"source" : [ "obj-6", 0 ],
					"destination" : [ "obj-4", 0 ],
					"hidden" : 0,
					"midpoints" : [  ]
				}

			}
, 			{
				"patchline" : 				{
					"source" : [ "obj-4", 0 ],
					"destination" : [ "obj-3", 0 ],
					"hidden" : 0,
					"midpoints" : [  ]
				}

			}
, 			{
				"patchline" : 				{
					"source" : [ "obj-3", 0 ],
					"destination" : [ "obj-5", 0 ],
					"hidden" : 0,
					"midpoints" : [  ]
				}

			}
, 			{
				"patchline" : 				{
					"source" : [ "obj-5", 0 ],
					"destination" : [ "obj-1", 0 ],
					"hidden" : 0,
					"midpoints" : [  ]
				}

			}
, 			{
				"patchline" : 				{
					"source" : [ "obj-1", 0 ],
					"destination" : [ "obj-10", 0 ],
					"hidden" : 0,
					"midpoints" : [  ]
				}

			}
, 			{
				"patchline" : 				{
					"source" : [ "obj-9", 0 ],
					"destination" : [ "obj-1", 1 ],
					"hidden" : 0,
					"midpoints" : [  ]
				}

			}
 ]
	}

}
