{
	"patcher" : 	{
		"fileversion" : 1,
		"rect" : [ 116.0, 44.0, 426.0, 414.0 ],
		"bglocked" : 0,
		"defrect" : [ 116.0, 44.0, 426.0, 414.0 ],
		"openrect" : [ 0.0, 0.0, 0.0, 0.0 ],
		"openinpresentation" : 0,
		"default_fontsize" : 12.0,
		"default_fontface" : 0,
		"default_fontname" : "Arial",
		"gridonopen" : 0,
		"gridsize" : [ 15.0, 15.0 ],
		"gridsnaponopen" : 0,
		"toolbarvisible" : 1,
		"boxanimatetime" : 200,
		"imprint" : 0,
		"enablehscroll" : 1,
		"enablevscroll" : 1,
		"devicewidth" : 0.0,
		"boxes" : [ 			{
				"box" : 				{
					"maxclass" : "newobj",
					"text" : "+ 7",
					"outlettype" : [ "int" ],
					"fontname" : "Arial",
					"patching_rect" : [ 318.0, 83.0, 32.5, 20.0 ],
					"id" : "obj-17",
					"numinlets" : 2,
					"fontsize" : 12.0,
					"numoutlets" : 1
				}

			}
, 			{
				"box" : 				{
					"maxclass" : "newobj",
					"text" : "noteout",
					"fontname" : "Arial",
					"patching_rect" : [ 41.0, 389.0, 51.0, 20.0 ],
					"id" : "obj-16",
					"numinlets" : 3,
					"fontsize" : 12.0,
					"numoutlets" : 0
				}

			}
, 			{
				"box" : 				{
					"maxclass" : "newobj",
					"text" : "r duration",
					"outlettype" : [ "" ],
					"fontname" : "Arial",
					"patching_rect" : [ 132.0, 328.0, 61.0, 20.0 ],
					"id" : "obj-15",
					"numinlets" : 0,
					"fontsize" : 12.0,
					"numoutlets" : 1
				}

			}
, 			{
				"box" : 				{
					"maxclass" : "newobj",
					"text" : "vs.between 72 97",
					"outlettype" : [ "" ],
					"fontname" : "Arial",
					"patching_rect" : [ 79.0, 245.0, 105.0, 20.0 ],
					"id" : "obj-14",
					"numinlets" : 4,
					"fontsize" : 12.0,
					"numoutlets" : 1
				}

			}
, 			{
				"box" : 				{
					"maxclass" : "newobj",
					"text" : "makenote 100 100",
					"outlettype" : [ "float", "float" ],
					"fontname" : "Arial",
					"patching_rect" : [ 41.0, 355.0, 110.0, 20.0 ],
					"id" : "obj-13",
					"numinlets" : 3,
					"fontsize" : 12.0,
					"numoutlets" : 2
				}

			}
, 			{
				"box" : 				{
					"maxclass" : "newobj",
					"text" : "vs.between 36 40",
					"outlettype" : [ "" ],
					"fontname" : "Arial",
					"patching_rect" : [ 313.0, 187.0, 105.0, 20.0 ],
					"id" : "obj-12",
					"numinlets" : 4,
					"fontsize" : 12.0,
					"numoutlets" : 1
				}

			}
, 			{
				"box" : 				{
					"maxclass" : "newobj",
					"text" : "s duration",
					"fontname" : "Arial",
					"patching_rect" : [ 107.0, 206.0, 63.0, 20.0 ],
					"id" : "obj-11",
					"numinlets" : 1,
					"fontsize" : 12.0,
					"numoutlets" : 0
				}

			}
, 			{
				"box" : 				{
					"maxclass" : "newobj",
					"text" : "s duration",
					"fontname" : "Arial",
					"patching_rect" : [ 315.0, 134.0, 63.0, 20.0 ],
					"id" : "obj-10",
					"numinlets" : 1,
					"fontsize" : 12.0,
					"numoutlets" : 0
				}

			}
, 			{
				"box" : 				{
					"maxclass" : "newobj",
					"text" : "t b 100",
					"outlettype" : [ "bang", "int" ],
					"fontname" : "Arial",
					"patching_rect" : [ 79.0, 177.0, 47.0, 20.0 ],
					"id" : "obj-9",
					"numinlets" : 1,
					"fontsize" : 12.0,
					"numoutlets" : 2
				}

			}
, 			{
				"box" : 				{
					"maxclass" : "newobj",
					"text" : "t b 500",
					"outlettype" : [ "bang", "int" ],
					"fontname" : "Arial",
					"patching_rect" : [ 316.0, 108.0, 47.0, 20.0 ],
					"id" : "obj-8",
					"numinlets" : 1,
					"fontsize" : 12.0,
					"numoutlets" : 2
				}

			}
, 			{
				"box" : 				{
					"maxclass" : "newobj",
					"text" : "select 0 1",
					"outlettype" : [ "bang", "bang", "" ],
					"fontname" : "Arial",
					"patching_rect" : [ 314.0, 160.0, 62.0, 20.0 ],
					"id" : "obj-7",
					"numinlets" : 1,
					"fontsize" : 12.0,
					"numoutlets" : 3
				}

			}
, 			{
				"box" : 				{
					"maxclass" : "newobj",
					"text" : "< 80",
					"outlettype" : [ "int" ],
					"fontname" : "Arial",
					"patching_rect" : [ 14.0, 93.0, 34.0, 20.0 ],
					"id" : "obj-6",
					"numinlets" : 2,
					"fontsize" : 12.0,
					"numoutlets" : 1
				}

			}
, 			{
				"box" : 				{
					"maxclass" : "newobj",
					"text" : "random 100",
					"outlettype" : [ "int" ],
					"fontname" : "Arial",
					"patching_rect" : [ 14.0, 65.0, 75.0, 20.0 ],
					"id" : "obj-5",
					"numinlets" : 2,
					"fontsize" : 12.0,
					"numoutlets" : 1
				}

			}
, 			{
				"box" : 				{
					"maxclass" : "newobj",
					"text" : "r duration",
					"outlettype" : [ "" ],
					"fontname" : "Arial",
					"patching_rect" : [ 317.0, 58.0, 61.0, 20.0 ],
					"id" : "obj-4",
					"numinlets" : 0,
					"fontsize" : 12.0,
					"numoutlets" : 1
				}

			}
, 			{
				"box" : 				{
					"maxclass" : "toggle",
					"outlettype" : [ "int" ],
					"patching_rect" : [ 14.0, 4.0, 20.0, 20.0 ],
					"id" : "obj-3",
					"numinlets" : 1,
					"numoutlets" : 1
				}

			}
, 			{
				"box" : 				{
					"maxclass" : "newobj",
					"text" : "metro 100",
					"outlettype" : [ "bang" ],
					"fontname" : "Arial",
					"patching_rect" : [ 14.0, 35.0, 65.0, 20.0 ],
					"id" : "obj-1",
					"numinlets" : 2,
					"fontsize" : 12.0,
					"numoutlets" : 1
				}

			}
 ],
		"lines" : [ 			{
				"patchline" : 				{
					"source" : [ "obj-15", 0 ],
					"destination" : [ "obj-13", 2 ],
					"hidden" : 0,
					"midpoints" : [  ]
				}

			}
, 			{
				"patchline" : 				{
					"source" : [ "obj-9", 1 ],
					"destination" : [ "obj-11", 0 ],
					"hidden" : 0,
					"midpoints" : [  ]
				}

			}
, 			{
				"patchline" : 				{
					"source" : [ "obj-3", 0 ],
					"destination" : [ "obj-1", 0 ],
					"hidden" : 0,
					"midpoints" : [  ]
				}

			}
, 			{
				"patchline" : 				{
					"source" : [ "obj-1", 0 ],
					"destination" : [ "obj-5", 0 ],
					"hidden" : 0,
					"midpoints" : [  ]
				}

			}
, 			{
				"patchline" : 				{
					"source" : [ "obj-13", 0 ],
					"destination" : [ "obj-16", 0 ],
					"hidden" : 0,
					"midpoints" : [  ]
				}

			}
, 			{
				"patchline" : 				{
					"source" : [ "obj-13", 1 ],
					"destination" : [ "obj-16", 1 ],
					"hidden" : 0,
					"midpoints" : [  ]
				}

			}
, 			{
				"patchline" : 				{
					"source" : [ "obj-5", 0 ],
					"destination" : [ "obj-6", 0 ],
					"hidden" : 0,
					"midpoints" : [  ]
				}

			}
, 			{
				"patchline" : 				{
					"source" : [ "obj-9", 0 ],
					"destination" : [ "obj-14", 0 ],
					"hidden" : 0,
					"midpoints" : [  ]
				}

			}
 ]
	}

}
